SplineFontDB: 1.0
FontName: Lingdings-Regular
FullName: Lingdings
FamilyName: Lingdings
Weight: Regular
Copyright: Copyright © 2003 Ximian, Inc.
Comments: Bulletproof Regular\n===================\nglyphs-similar to MS Wingdings font\n\nMany glyphs taken from the OpenSymbol and OpenDing fonts.
Version: 0.1
ItalicAngle: 0
UnderlinePosition: -133
UnderlineWidth: 20
Ascent: 1878
Descent: 170
NeedsXUIDChange: 1
FSType: 0
PfmFamily: 81
TTFWeight: 400
TTFWidth: 5
Panose: 5 0 0 0 0 0 0 0 0 0
LineGap: 49
VLineGap: 0
LangName: 1033 
LangName: 1030 "" "" "normal" 
LangName: 1031 "" "" "Standard" 
LangName: 1034 "" "" "Normal" 
LangName: 1035 "" "" "Normaali" 
LangName: 1036 "" "" "Normal" 
LangName: 1040 "" "" "Normale" 
LangName: 1043 "" "" "Standaard" 
LangName: 1044 "" "" "Normal" 
LangName: 1051 "" "" "Norm+AOEA-lne" 
LangName: 1053 "" "" "Normal" 
LangName: 1060 "" "" "Navadno" 
LangName: 2070 "" "" "Normal" 
LangName: 3082 "" "" "Normal" 
Encoding: custom
UnicodeInterp: none
DisplaySize: -36
AntiAlias: 1
FitToEm: 1
WinInfo: 80 16 12
BeginChars: 258 226
StartChar: .notdef
Encoding: 0 0 0
Width: 1024
Flags: HW
Back
128 0 m 5
 128 1480 l 5
 896 1480 l 5
 896 0 l 5
 128 0 l 5
256 128 m 5
 768 128 l 5
 768 1352 l 5
 256 1352 l 5
 256 128 l 5
EndSplineSet
EndChar
StartChar: pencil
Encoding: 33 61473 2
Width: 2108
Flags: HW
Fore
434 430 m 25
 264 156 l 25
 320 86 l 25
 624 170 l 25
 682 224 682 288 624 364 c 8
 564 446 502 468 434 430 c 25
80 -34 m 25
 406 468 l 25
 1786 1516 l 25
 1870 1530 1942 1498 2000 1420 c 0
 2056 1342 2070 1262 2040 1180 c 25
 650 130 l 25
 80 -34 l 25
EndSplineSet
Back
74 -37 m 5
 404 470 l 5
 1779 1517 l 5
 1936.33 1469.67 2022 1358.67 2036 1184 c 5
 657 137 l 5
 74 -37 l 5
1534 1268 m 5
 1634.67 1214.67 1697.33 1130 1722 1014 c 5
 1979 1209 l 5
 1955.67 1331.67 1892.33 1415.33 1789 1460 c 5
 1534 1268 l 5
526 502 m 5
 537.334 504.666 546.666 506 554 506 c 4
 580.666 506 594 493.334 594 468 c 5
 593 458 l 5
 1422 1093 l 5
 1400 1109.67 1378.33 1122.67 1357 1132 c 5
 526 502 l 5
622 420 m 5
 652.666 412.666 668 393 668 361 c 5
 1501 999 l 5
 1491 1021 1477 1040.67 1459 1058 c 5
 622 420 l 5
697 322 m 5
 709.666 321.334 719 318.166 725 312.5 c 132
 731 306.834 734 298.666 734 288 c 4
 734 278.666 729.666 265 721 247 c 5
 1549 880 l 5
 1541 908.666 1532.33 933.666 1523 955 c 5
 697 322 l 5
258 157 m 5
 315 85 l 5
 626 177 l 5
 671.334 217 694 246.666 694 266 c 4
 694 274 691.834 279.834 687.5 283.5 c 132
 683.166 287.166 676.334 289 667 289 c 4
 647.666 289 614.334 277.334 567 254 c 5
 607 292 627 323.666 627 349 c 4
 627 361.666 623.5 371.166 616.5 377.5 c 132
 609.5 383.834 598.666 387 584 387 c 4
 568.666 387 537.334 375.666 490 353 c 5
 532 389 553 420.666 553 448 c 4
 553 455.334 551 460.834 547 464.5 c 132
 543 468.166 536.666 470 528 470 c 4
 498 470 466 457 432 431 c 5
 258 157 l 5
EndSplineSet
EndChar
StartChar: scissors
Encoding: 34 61474 3
Width: 2342
Flags: HW
Fore
698 1072 m 8
 722 1174 672 1260 548 1330 c 8
 382 1424 278 1426 236 1336 c 24
 206 1274 276 1196 440 1102 c 16
 596 1014 682 1002 698 1072 c 8
908 892 m 26
 2198 154 l 25
 2102 106 l 16
 1972 58 1872 64 1796 124 c 9
 272 1102 l 25
 218 1144 l 26
 116 1222 94 1306 152 1396 c 0
 228 1516 380 1518 608 1402 c 0
 752 1326 818 1188 806 988 c 0
 804 964 838 932 908 892 c 26
702 414 m 16
 686 484 600 474 444 386 c 8
 280 290 210 210 240 150 c 24
 284 60 388 62 552 156 c 16
 676 226 726 312 702 414 c 16
912 594 m 26
 842 554 808 522 812 498 c 0
 822 298 756 160 612 84 c 0
 384 -30 232 -28 156 90 c 0
 98 178 120 262 222 342 c 26
 276 386 l 25
 1800 1362 l 17
 1876 1422 1978 1428 2106 1380 c 8
 2202 1332 l 25
 912 594 l 26
EndSplineSet
Back
944 871 m 5
 803 785 l 5
 728 830 l 5
 714.666 870 669 907 591 941 c 6
 383 1032 l 6
 226.334 1100.67 148 1185.67 148 1287 c 4
 148 1341 168.166 1386.67 208.5 1424 c 132
 248.834 1461.33 297.666 1480 355 1480 c 4
 437 1480 509 1452.33 571 1397 c 4
 632.334 1341.67 663 1277.33 663 1204 c 4
 663 1198.67 661.666 1180.33 659 1149 c 5
 658 1126 l 5
 656.666 1111.33 656 1100.33 656 1093 c 4
 656 1045 694 1003.67 770 969 c 4
 783.334 962.334 796.334 955.334 809 948 c 6
 944 871 l 5
738 683 m 5
 1868 1388 l 5
 1887.33 1390.67 1905.67 1392 1923 1392 c 4
 2015 1392 2106 1373.67 2196 1337 c 5
 995 640 l 6
 957.666 618 932 604.334 918 599 c 6
 896 591 l 6
 838.666 569.666 810 531.334 810 476 c 6
 810 467 l 5
 812 442 l 5
 815 393 l 5
 819.666 302.334 770.666 214.334 668 129 c 4
 565.334 43 457.334 0 344 0 c 4
 286.666 0 239.666 14.5 203 43.5 c 132
 166.334 72.5 148 109.334 148 154 c 4
 148 212 205 276.666 319 348 c 6
 636 546 l 6
 705.334 589.334 740 628.334 740 663 c 4
 740 667 739.334 673.666 738 683 c 5
1063 620 m 5
 1217 712 l 5
 2196 150 l 5
 2114 116.666 2035.66 100 1961 100 c 4
 1931 100 1898.67 102.666 1864 108 c 5
 1063 620 l 5
355 1132 m 6
 404 1108 l 6
 448 1087.33 483.666 1077 511 1077 c 4
 564.334 1077 591 1114.33 591 1189 c 4
 591 1243.67 566.334 1294 517 1340 c 132
 467.666 1386 413.334 1409 354 1409 c 4
 318.666 1409 288.166 1396.67 262.5 1372 c 132
 236.834 1347.33 224 1318 224 1284 c 4
 224 1227.33 267.666 1176.67 355 1132 c 6
558 411 m 5
 329 268 l 6
 259 224 224 185.666 224 153 c 4
 224 126.334 234.666 106.334 256 93 c 132
 277.334 79.666 309.334 73 352 73 c 4
 440 73 526.334 107.334 611 176 c 132
 695.666 244.666 738 314.666 738 386 c 4
 738 434 717 458 675 458 c 4
 649.666 458 610.666 442.334 558 411 c 5
994 693 m 4
 1026.67 693 1043 708.666 1043 740 c 4
 1043 771.334 1026.67 787 994 787 c 4
 962 787 946 771.334 946 740 c 4
 946 708.666 962 693 994 693 c 4
EndSplineSet
EndChar
StartChar: scissorscutting
Encoding: 35 61475 4
Width: 2342
Flags: HW
Fore
730 1290 m 25
 702 1354 l 26
 654 1472 678 1556 772 1606 c 0
 898 1672 1030 1596 1170 1382 c 0
 1256 1244 1246 1092 1134 926 c 0
 1116 902 1130 858 1176 790 c 26
 1704 0 l 25
 1470 0 l 25
 730 1290 l 25
1084 1052 m 8
 1154 1128 1154 1226 1082 1350 c 8
 986 1514 898 1568 816 1512 c 24
 760 1474 778 1372 874 1206 c 16
 964 1052 1034 1000 1084 1052 c 8
758 480 m 16
 778 548 698 582 518 584 c 8
 328 584 230 550 226 484 c 24
 218 384 308 334 498 332 c 16
 642 332 728 380 758 480 c 16
1030 530 m 26
 950 532 904 522 892 500 c 0
 802 320 676 232 514 240 c 0
 260 254 130 332 122 474 c 0
 118 578 178 640 306 658 c 26
 372 668 l 25
 2184 752 l 17
 2278 766 2370 720 2456 614 c 8
 2514 524 l 25
 1030 530 l 26
EndSplineSet
Back
1190 753 m 5
 1026 739 l 5
 978 811 l 5
 980 822.334 981 831.666 981 839 c 4
 981 867 955.334 911 904 971 c 6
 757 1145 l 6
 678.334 1237.67 639 1320.67 639 1394 c 4
 639 1446.67 657.666 1491.33 695 1528 c 132
 732.334 1564.67 778 1583 832 1583 c 4
 902 1583 965.334 1552 1022 1490 c 132
 1078.67 1428 1107 1358.67 1107 1282 c 4
 1107 1236.67 1090 1185.33 1056 1128 c 6
 1044 1108 l 6
 1026 1077.33 1017 1052 1017 1032 c 4
 1017 1004.67 1036.67 966.666 1076 918 c 4
 1085.33 906.666 1094.33 894.666 1103 882 c 6
 1190 753 l 5
922 675 m 5
 2247 813 l 5
 2343.66 781.666 2433.66 719 2517 625 c 5
 1134 524 l 6
 1102.67 521.334 1081.67 520 1071 520 c 4
 1061.67 520 1054 520.334 1048 521 c 6
 1024 523 l 6
 1014.67 524.334 1005.67 525 997 525 c 4
 947.666 525 913 500 893 450 c 6
 883 426 l 5
 821 269.334 685.334 191 476 191 c 4
 380 191 301.334 210.5 240 249.5 c 132
 178.666 288.5 148 338 148 398 c 4
 148 448.666 165.834 485.334 201.5 508 c 132
 237.166 530.666 303 547 399 557 c 6
 771 597 l 6
 829 603 866.834 610.666 884.5 620 c 132
 902.166 629.334 914.666 647.666 922 675 c 5
1187 476 m 5
 1367 491 l 5
 1699 0 l 5
 1478 0 l 5
 1187 476 l 5
775 1246 m 5
 809 1204 l 6
 853 1148.67 892.334 1121 927 1121 c 4
 952.334 1121 975.666 1136.5 997 1167.5 c 132
 1018.33 1198.5 1029 1232.67 1029 1270 c 4
 1029 1331.33 1009.33 1386.67 970 1436 c 132
 930.666 1485.33 887 1510 839 1510 c 4
 804.334 1510 774.666 1498.33 750 1475 c 132
 725.334 1451.67 713 1423.67 713 1391 c 4
 713 1349.67 733.666 1301.33 775 1246 c 5
642 510 m 6
 373 481 l 6
 272.334 470.334 222 442.334 222 397 c 4
 222 360.334 246.334 329.166 295 303.5 c 132
 343.666 277.834 402.666 265 472 265 c 4
 560 265 637.166 283.334 703.5 320 c 132
 769.834 356.666 803 399.334 803 448 c 4
 803 490.666 769.666 512 703 512 c 4
 680.334 512 660 511.334 642 510 c 6
1182 566 m 4
 1212 566 1227 582.666 1227 616 c 4
 1227 646.666 1209.33 662 1174 662 c 4
 1144 662 1129 645.666 1129 613 c 4
 1129 581.666 1146.67 566 1182 566 c 4
EndSplineSet
EndChar
StartChar: readingglasses
Encoding: 36 61476 5
Width: 2750
Flags: HW
Back
1662 381 m 5
 2068 803 l 6
 2209.34 950.334 2330.34 1024 2431 1024 c 4
 2503.66 1024 2563 998.5 2609 947.5 c 132
 2655 896.5 2678 830.666 2678 750 c 4
 2678 680.666 2663 646 2633 646 c 4
 2605.66 646 2592 660 2592 688 c 4
 2592 694.666 2593 701.334 2595 708 c 6
 2603 732 l 6
 2613 761.334 2618 784 2618 800 c 4
 2618 848 2599.84 889 2563.5 923 c 132
 2527.16 957 2483.34 974 2432 974 c 4
 2344 974 2231.66 901.666 2095 757 c 6
 1662 301 l 5
 1646 213.666 1604.5 141.666 1537.5 85 c 132
 1470.5 28.334 1393.67 0 1307 0 c 4
 1205.67 0 1124.5 31.666 1063.5 95 c 132
 1002.5 158.334 964.666 250.334 950 371 c 5
 962 386.334 968 401 968 415 c 4
 968 435 960.334 450 945 460 c 132
 929.666 470 906.666 475 876 475 c 4
 811.334 475 779 454.334 779 413 c 4
 779 399 785.666 385 799 371 c 5
 778.334 243.666 738.5 150 679.5 90 c 132
 620.5 30 539.334 0 436 0 c 4
 334.666 0 249 36.834 179 110.5 c 132
 109 184.166 74 274.334 74 381 c 5
 540 855 l 6
 652 969 755 1026 849 1026 c 4
 919 1026 976.834 1000.33 1022.5 949 c 132
 1068.17 897.666 1091 832.334 1091 753 c 4
 1091 683.666 1076 649 1046 649 c 4
 1018.67 649 1005 662.666 1005 690 c 4
 1005 696.666 1006 703.334 1008 710 c 6
 1016 735 l 5
 1026 764.334 1031 787 1031 803 c 4
 1031 850.334 1013.67 890.5 979 923.5 c 132
 944.334 956.5 902.334 973 853 973 c 4
 765 973 668 918.666 562 810 c 6
 145 381 l 5
 644 381 l 6
 703.334 381 733 392 733 414 c 6
 733 433 l 6
 733 493 782.334 523 881 523 c 4
 917.666 523 949 514.334 975 497 c 4
 1001 479 1014 457.666 1014 433 c 6
 1014 420 l 6
 1014 394 1044.33 381 1105 381 c 6
 1662 381 l 5
585 331 m 6
 282 331 l 6
 220 331 181.166 328.666 165.5 324 c 132
 149.834 319.334 142 307.334 142 288 c 4
 142 234 174.334 181.834 239 131.5 c 132
 303.666 81.166 371 56 441 56 c 4
 509.666 56 572.166 77.666 628.5 121 c 132
 684.834 164.334 713 213 713 267 c 4
 713 293.666 705.166 311 689.5 319 c 132
 673.834 327 639 331 585 331 c 6
1482 331 m 6
 1182 331 l 6
 1118.67 331 1078 327 1060 319 c 132
 1042 311 1033 292.666 1033 264 c 4
 1033 212 1061.5 164.334 1118.5 121 c 132
 1175.5 77.666 1238.33 56 1307 56 c 4
 1375 56 1441.5 81.334 1506.5 132 c 132
 1571.5 182.666 1604 234.666 1604 288 c 4
 1604 316.666 1563.33 331 1482 331 c 6
EndSplineSet
EndChar
StartChar: bell
Encoding: 37 9223 6
Width: 1828
Flags: HW
Back
835 1431 m 5
 835 1488.33 861.666 1517 915 1517 c 4
 968.334 1517 995 1488.33 995 1431 c 5
 1133.67 1416.33 1240 1355.67 1314 1249 c 4
 1343.33 1207 1368.67 1148.33 1390 1073 c 132
 1411.33 997.666 1422 929.666 1422 869 c 6
 1422 797 l 6
 1422 730.334 1433.5 671.834 1456.5 621.5 c 132
 1479.5 571.166 1526.67 499.666 1598 407 c 6
 1636 357 l 6
 1666.67 317 1682 279.666 1682 245 c 4
 1682 163 1609.83 95.5 1465.5 42.5 c 132
 1321.17 -10.5 1137.67 -37 915 -37 c 4
 691.666 -37 508 -10.5 364 42.5 c 132
 220 95.5 148 163 148 245 c 4
 148 279.666 163.334 317 194 357 c 6
 232 407 l 6
 303.334 499.666 350.334 571.166 373 621.5 c 132
 395.666 671.834 407 730.334 407 797 c 6
 407 869 l 6
 407 929.666 417.834 997.666 439.5 1073 c 132
 461.166 1148.33 486.666 1207 516 1249 c 4
 590 1355.67 696.334 1416.33 835 1431 c 5
280 385 m 5
 458 457 670 493 916 493 c 4
 1161.33 493 1373 457 1551 385 c 5
 1478.33 483 1430.33 557.5 1407 608.5 c 132
 1383.67 659.5 1372 715 1372 775 c 5
 1369 867 l 5
 1369 997 1340.33 1111 1283 1209 c 4
 1211.67 1332.33 1089.33 1394 916 1394 c 4
 742.666 1394 620 1332.33 548 1209 c 4
 491.334 1111 463 997 463 867 c 5
 460 775 l 5
 460 715 448.334 659.834 425 609.5 c 132
 401.666 559.166 353.334 484.334 280 385 c 5
460 395 m 5
 284.666 343.666 197 290.334 197 235 c 4
 197 174.334 267.666 122 409 78 c 132
 550.334 34 718.666 12 914 12 c 4
 1112 12 1281.17 34 1421.5 78 c 132
 1561.83 122 1632 175 1632 237 c 4
 1632 291 1559.5 339 1414.5 381 c 132
 1269.5 423 1103.67 444 917 444 c 4
 888.334 444 852.666 443 810 441 c 5
 815.334 423.666 818 408 818 394 c 4
 818 342.666 800.834 299.166 766.5 263.5 c 132
 732.166 227.834 690.334 210 641 210 c 4
 589 210 545.834 227.5 511.5 262.5 c 132
 477.166 297.5 460 341.666 460 395 c 5
EndSplineSet
EndChar
StartChar: book
Encoding: 38 61478 7
Width: 2490
Flags: HW
Back
2320 -25 m 5
 1442 41 l 5
 1410 23.666 1378.67 10.5 1348 1.5 c 132
 1317.33 -7.5 1287.67 -12 1259 -12 c 4
 1229.67 -12 1198.17 -7.5 1164.5 1.5 c 132
 1130.83 10.5 1095 23.666 1057 41 c 5
 173 -25 l 5
 173 1365 l 5
 360 1376 l 5
 432 1517 l 5
 510.666 1537.67 585.166 1553.17 655.5 1563.5 c 132
 725.834 1573.83 791.666 1579 853 1579 c 4
 959.666 1579 1043.17 1565.17 1103.5 1537.5 c 132
 1163.83 1509.83 1211.33 1463.33 1246 1398 c 5
 1277.33 1462 1324.67 1508.17 1388 1536.5 c 132
 1451.33 1564.83 1538.33 1579 1649 1579 c 4
 1705.67 1579 1767.83 1573.83 1835.5 1563.5 c 132
 1903.17 1553.17 1976.67 1537.67 2056 1517 c 5
 2124 1387 l 5
 2320 1376 l 5
 2320 -25 l 5
2270 28 m 5
 2270 1332 l 5
 2147 1339 l 5
 2196 1258 l 5
 2196 110 l 5
 1395 160 l 5
 1356.33 127.334 1307 111 1247 111 c 4
 1187.67 111 1139 127.334 1101 160 c 5
 296 110 l 5
 296 1258 l 5
 333 1329 l 5
 222 1323 l 5
 222 28 l 5
 1073 91 l 5
 1106.33 73 1138.33 59.5 1169 50.5 c 132
 1199.67 41.5 1229.33 37 1258 37 c 4
 1284.67 37 1312 41.5 1340 50.5 c 132
 1368 59.5 1397 73 1427 91 c 5
 2270 28 l 5
346 1248 m 5
 346 205 l 5
 444 396 l 5
 444 1428 l 5
 346 1248 l 5
2048 1424 m 5
 2048 396 l 5
 2147 210 l 5
 2147 1237 l 5
 2048 1424 l 5
384 160 m 5
 1115 218 l 5
 1136.33 190.666 1172 171.334 1222 160 c 5
 1212.67 244 1180.17 304.166 1124.5 340.5 c 132
 1068.83 376.834 981.334 395 862 395 c 4
 806.666 395 747.166 391.166 683.5 383.5 c 132
 619.834 375.834 552 364.334 480 349 c 5
 384 160 l 5
2117 160 m 5
 2021 346 l 5
 1943.67 362.666 1871.83 375 1805.5 383 c 132
 1739.17 391 1678.67 395 1624 395 c 4
 1388.67 395 1271 316.666 1271 160 c 5
 1320.33 168 1358 187.666 1384 219 c 5
 2117 160 l 5
494 403 m 5
 571.334 417 639.834 427.334 699.5 434 c 132
 759.166 440.666 810 444 852 444 c 4
 1023.33 444 1146.67 402.666 1222 320 c 5
 1222 1251 l 6
 1222 1344.33 1193 1414.17 1135 1460.5 c 132
 1077 1506.83 989.666 1530 873 1530 c 4
 813 1530 751.5 1525.83 688.5 1517.5 c 132
 625.5 1509.17 560.666 1496.67 494 1480 c 5
 494 403 l 5
1999 1482 m 5
 1925.67 1498 1858 1510 1796 1518 c 132
 1734 1526 1677.67 1530 1627 1530 c 4
 1503.67 1530 1410.33 1504.67 1347 1454 c 4
 1296.33 1414 1271 1345.67 1271 1249 c 6
 1271 316 l 5
 1317 364.666 1366 398.166 1418 416.5 c 132
 1470 434.834 1541.67 444 1633 444 c 4
 1693.67 444 1754.5 440.5 1815.5 433.5 c 132
 1876.5 426.5 1937.67 415.666 1999 401 c 5
 1999 1482 l 5
EndSplineSet
EndChar
StartChar: candle
Encoding: 39 61479 8
Width: 1410
VWidth: 1000
Flags: HW
Fore
850 448 m 1
 838 394 l 1
 822 394 l 1
 834 448 l 1
 850 448 l 1
850 332 m 1
 822 282 l 1
 814 182 806 122 800 102 c 0
 782 34 740 0 678 0 c 0
 616 0 574 40 550 120 c 0
 546 134 538 200 522 316 c 1
 574 326 l 1
 584 380 l 1
 794 380 l 1
 798 338 l 1
 850 380 l 1
 850 332 l 1
1194 1050 m 1
 1020 872 l 1
 960 984 l 1
 1194 1050 l 1
734 1122 m 1
 606 1122 l 1
 678 1536 l 1
 734 1122 l 1
926 1194 m 1
 926 1176 924 1150 922 1114 c 128
 918 1078 916 1052 916 1034 c 1
 874 1068 840 1090 812 1106 c 1
 926 1194 l 1
1350 752 m 1
 1026 680 l 1
 1026 814 l 1
 1072 814 l 2
 1108 814 1156 804 1212 786 c 0
 1276 766 1322 754 1350 752 c 1
910 956 m 0
 882 982 830 1010 756 1038 c 1
 766 1068 l 1
 804 1046 852 1010 910 956 c 0
938 908 m 1
 926 894 l 1
 900 928 l 1
 910 940 l 1
 938 908 l 1
960 806 m 1
 948 806 l 1
 938 878 l 1
 954 878 l 1
 960 806 l 1
744 1050 m 1
 688 1050 l 1
 688 1060 l 1
 744 1060 l 1
 744 1050 l 1
954 696 m 1
 938 696 l 1
 938 784 l 1
 954 784 l 1
 954 696 l 1
678 1068 m 1
 590 1038 l 1
 600 1068 l 1
 678 1068 l 1
562 1106 m 1
 542 1086 510 1066 462 1044 c 1
 434 1226 l 1
 562 1106 l 1
1082 536 m 1
 954 560 l 1
 962 580 978 604 1004 630 c 1
 1016 622 1042 590 1082 536 c 1
558 1028 m 1
 502 990 l 1
 496 1002 l 1
 544 1038 l 1
 558 1028 l 1
926 618 m 1
 888 546 l 1
 876 552 l 1
 916 624 l 1
 926 618 l 1
502 978 m 1
 456 950 l 1
 450 962 l 1
 490 990 l 1
 502 978 l 1
828 724 m 1
 804 724 l 2
 774 724 752 720 740 712 c 1
 688 742 l 1
 678 742 662 736 642 728 c 128
 620 718 604 712 594 712 c 2
 558 712 l 1
 566 758 612 780 694 780 c 0
 708 780 728 776 754 770 c 128
 778 764 798 762 812 762 c 1
 828 724 l 1
882 530 m 1
 844 458 l 1
 834 464 l 1
 866 530 l 1
 882 530 l 1
462 934 m 1
 418 862 l 1
 408 868 l 1
 446 940 l 1
 462 934 l 1
656 658 m 1
 646 658 l 1
 632 696 l 1
 650 696 l 1
 656 658 l 1
722 614 m 1
 716 570 l 1
 700 570 l 1
 710 614 l 1
 722 614 l 1
408 978 m 1
 388 934 368 898 346 872 c 1
 70 1138 l 1
 408 978 l 1
804 706 m 1
 722 464 l 1
 732 452 756 428 794 398 c 1
 780 398 758 402 732 412 c 128
 704 422 682 426 668 426 c 1
 656 398 l 1
 590 398 l 1
 604 416 626 436 656 458 c 1
 638 528 616 606 588 696 c 1
 602 656 628 604 668 540 c 1
 668 592 l 1
 694 530 l 1
 694 560 l 1
 734 540 l 1
 756 614 778 670 804 706 c 1
412 768 m 1
 396 768 l 1
 392 852 l 1
 402 852 l 1
 412 768 l 1
412 706 m 1
 402 706 l 1
 392 746 l 1
 402 746 l 1
 412 706 l 1
446 618 m 1
 408 658 l 1
 424 690 l 1
 446 618 l 1
490 530 m 1
 480 524 l 1
 434 596 l 1
 450 596 l 1
 490 530 l 1
346 680 m 1
 206 768 l 1
 222 774 266 790 340 814 c 1
 344 796 346 772 346 746 c 2
 346 680 l 1
518 468 m 1
 502 468 l 1
 502 508 l 1
 518 508 l 1
 518 468 l 1
538 448 m 1
 534 358 l 1
 518 358 l 1
 528 448 l 1
 538 448 l 1
428 524 m 1
 202 486 l 1
 362 630 l 1
 428 524 l 1
EndSplineSet
Back
493 932 m 5
 493 869 l 5
 599 859 666.666 841.5 696 816.5 c 132
 725.334 791.5 740 739.666 740 661 c 6
 740 143 l 6
 740 79.666 718.834 33.834 676.5 5.5 c 132
 634.166 -22.834 566 -37 472 -37 c 4
 384 -37 310.334 -21 251 11 c 4
 225.666 25 210.334 38.5 205 51.5 c 132
 199.666 64.5 197 94.334 197 141 c 6
 197 660 l 6
 197 722 199.834 761 205.5 777 c 132
 211.166 793 227.666 808.334 255 823 c 4
 296.334 845.666 359.334 861 444 869 c 5
 444 932 l 5
 388 935.334 343.166 952.666 309.5 984 c 132
 275.834 1015.33 259 1054.67 259 1102 c 4
 259 1153.33 280.666 1210 324 1272 c 6
 349 1309 l 6
 393.666 1373 416 1428 416 1474 c 4
 416 1482.67 414.666 1495 412 1511 c 5
 581.334 1415 666 1293.33 666 1146 c 4
 666 1090.67 651.666 1045.17 623 1009.5 c 132
 594.334 973.834 551 948 493 932 c 5
458 1428 m 5
 450.666 1392 426 1339.67 384 1271 c 6
 362 1234 l 6
 326 1174 308 1128.67 308 1098 c 4
 308 1064 322.666 1034.83 352 1010.5 c 132
 381.334 986.166 416.334 974 457 974 c 4
 501 974 538.5 989.5 569.5 1020.5 c 132
 600.5 1051.5 616 1089 616 1133 c 4
 616 1232.33 563.334 1330.67 458 1428 c 5
444 765 m 5
 444 816 l 5
 320.666 806.666 259 787 259 757 c 4
 259 743.666 280 731.334 322 720 c 132
 364 708.666 410 703 460 703 c 4
 532 703 586 707.666 622 717 c 132
 658 726.334 676 740 676 758 c 4
 676 786.666 615 806 493 816 c 5
 493 765 l 5
 444 765 l 5
690 704 m 5
 664 687.334 632.5 674.834 595.5 666.5 c 132
 558.5 658.166 516 654 468 654 c 4
 420.666 654 378.5 658.166 341.5 666.5 c 132
 304.5 674.834 272.666 687.334 246 704 c 5
 246 143 l 6
 246 99.666 264.5 67 301.5 45 c 132
 338.5 23 394 12 468 12 c 4
 542 12 597.5 23 634.5 45 c 132
 671.5 67 690 99.666 690 143 c 6
 690 704 l 5
EndSplineSet
EndChar
StartChar: telephonesolid
Encoding: 40 61480 9
Width: 2286
VWidth: 1000
Flags: HW
Fore
2100 1018 m 1
 2100 956 2076 916 2032 898 c 0
 2006 884 1958 878 1886 878 c 0
 1806 878 1748 886 1712 900 c 0
 1656 920 1626 966 1622 1032 c 1
 1782 1006 1940 1002 2100 1018 c 1
2100 1068 m 1
 2050 1060 2004 1056 1962 1056 c 0
 1938 1056 1818 1066 1598 1084 c 1
 1590 1148 1540 1190 1452 1206 c 1
 1456 1060 l 1
 1540 978 1618 842 1690 648 c 0
 1760 460 1794 304 1794 178 c 0
 1794 58 1772 -2 1726 -2 c 2
 522 -2 l 2
 464 -2 436 48 436 148 c 0
 436 274 472 434 542 630 c 0
 618 836 698 980 780 1060 c 1
 780 1206 l 1
 694 1192 646 1150 636 1084 c 1
 564 1066 462 1056 334 1056 c 0
 246 1056 180 1060 134 1068 c 1
 140 1256 198 1386 310 1456 c 0
 382 1502 512 1538 700 1564 c 0
 844 1584 984 1594 1118 1594 c 0
 1508 1594 1776 1548 1926 1456 c 0
 2038 1388 2096 1258 2100 1068 c 1
1382 1220 m 1
 1286 1248 1196 1262 1114 1262 c 0
 1036 1262 946 1248 846 1220 c 1
 894 1096 l 1
 1336 1096 l 1
 1382 1220 l 1
1448 618 m 0
 1448 696 1412 758 1338 804 c 0
 1274 844 1202 864 1118 864 c 0
 1036 864 964 844 900 802 c 0
 824 756 786 694 786 618 c 0
 786 540 824 478 900 432 c 0
 964 392 1036 370 1118 370 c 0
 1200 370 1274 392 1338 432 c 0
 1412 478 1448 540 1448 618 c 0
1614 144 m 1
 1634 164 l 1
 1614 184 l 1
 626 184 l 1
 606 164 l 1
 626 144 l 1
 1614 144 l 1
1396 712 m 0
 1396 682 1380 666 1348 666 c 0
 1314 666 1296 682 1296 712 c 0
 1296 746 1314 762 1348 762 c 0
 1380 762 1396 746 1396 712 c 0
1292 784 m 0
 1292 752 1276 736 1242 736 c 0
 1208 736 1192 752 1192 784 c 0
 1192 816 1208 832 1242 832 c 0
 1276 832 1292 816 1292 784 c 0
1430 596 m 0
 1430 564 1412 546 1378 546 c 0
 1346 546 1330 564 1330 596 c 0
 1330 628 1346 644 1378 644 c 0
 1412 644 1430 628 1430 596 c 0
1138 804 m 0
 1138 772 1122 756 1088 756 c 0
 1054 756 1038 772 1038 804 c 0
 1038 836 1054 852 1088 852 c 0
 1122 852 1138 836 1138 804 c 0
1360 486 m 0
 1360 452 1342 436 1308 436 c 0
 1276 436 1260 452 1260 486 c 0
 1260 516 1276 532 1308 532 c 0
 1342 532 1360 516 1360 486 c 0
1324 620 m 0
 1324 578 1298 542 1250 510 c 0
 1206 484 1160 472 1114 472 c 0
 1068 472 1024 484 984 510 c 0
 936 540 912 576 912 620 c 0
 912 664 938 698 990 722 c 0
 1030 742 1074 752 1122 752 c 0
 1170 752 1214 742 1252 720 c 0
 1300 698 1324 664 1324 620 c 0
998 756 m 0
 998 724 980 708 948 708 c 0
 914 708 898 724 898 756 c 0
 898 788 914 804 948 804 c 0
 980 804 998 788 998 756 c 0
1234 428 m 0
 1234 396 1218 378 1184 378 c 0
 1150 378 1134 396 1134 428 c 0
 1134 460 1150 476 1184 476 c 0
 1218 476 1234 460 1234 428 c 0
912 654 m 0
 912 622 894 606 862 606 c 0
 828 606 812 622 812 654 c 0
 812 686 828 702 862 702 c 0
 894 702 912 686 912 654 c 0
1074 436 m 0
 1074 404 1056 390 1024 390 c 0
 990 390 972 404 972 436 c 0
 972 468 990 486 1024 486 c 0
 1056 486 1074 468 1074 436 c 0
940 508 m 0
 940 476 924 460 890 460 c 0
 856 460 840 476 840 508 c 0
 840 540 856 558 890 558 c 0
 924 558 940 540 940 508 c 0
614 1032 m 1
 610 966 576 920 512 898 c 0
 476 884 416 878 332 878 c 0
 268 878 224 886 194 902 c 0
 154 922 136 960 136 1018 c 1
 194 1012 248 1010 300 1010 c 0
 404 1010 510 1018 614 1032 c 1
EndSplineSet
Back
1938 1376 m 5
 1992 1285.33 2028.66 1182.67 2048 1068 c 5
 1989.33 1055.33 1931.33 1049 1874 1049 c 4
 1776.67 1049 1674.33 1074.67 1567 1126 c 5
 1567 1147 l 6
 1567 1245.67 1417.33 1295 1118 1295 c 4
 808.666 1295 654 1245.67 654 1147 c 6
 654 1126 l 5
 551.334 1066 450 1036 350 1036 c 4
 290.666 1036 231.666 1046.67 173 1068 c 5
 191.666 1176 228.666 1278.67 284 1376 c 5
 410.666 1423.33 542.5 1458.67 679.5 1482 c 132
 816.5 1505.33 958.666 1517 1106 1517 c 4
 1258.67 1517 1404.33 1505.33 1543 1482 c 132
 1681.67 1458.67 1813.33 1423.33 1938 1376 c 5
2048 1024 m 5
 2048 976 l 6
 2048 914 2034.84 871.5 2008.5 848.5 c 132
 1982.17 825.5 1933.33 814 1862 814 c 4
 1762 814 1687.83 831.666 1639.5 867 c 132
 1591.17 902.334 1567 956.666 1567 1030 c 6
 1567 1075 l 5
 1661.67 1024.33 1763.67 999 1873 999 c 4
 1935.67 999 1994 1007.33 2048 1024 c 5
654 1068 m 5
 654 1031 l 6
 654 951 630.834 892.834 584.5 856.5 c 132
 538.166 820.166 464 802 362 802 c 4
 288.666 802 238.834 814.166 212.5 838.5 c 132
 186.166 862.834 173 909 173 977 c 6
 173 1020 l 5
 240.334 998 301.334 987 356 987 c 4
 458.666 987 558 1014 654 1068 c 5
963 1012 m 5
 1259 1012 l 5
 1259 1147 l 5
 1481 1147 l 5
 1481 960 l 5
 1745 539 l 6
 1783.67 477.666 1809 427.5 1821 388.5 c 132
 1833 349.5 1839 298 1839 234 c 6
 1839 0 l 5
 383 0 l 5
 383 234 l 6
 383 333.334 416.334 436.334 483 543 c 5
 741 960 l 5
 741 1147 l 5
 963 1147 l 5
 963 1012 l 5
833 851 m 5
 833 765 l 5
 956 765 l 5
 956 851 l 5
 833 851 l 5
1043 851 m 5
 1043 765 l 5
 1166 765 l 5
 1166 851 l 5
 1043 851 l 5
1253 851 m 5
 1253 765 l 5
 1376 765 l 5
 1376 851 l 5
 1253 851 l 5
833 703 m 5
 833 617 l 5
 956 617 l 5
 956 703 l 5
 833 703 l 5
1043 703 m 5
 1043 617 l 5
 1166 617 l 5
 1166 703 l 5
 1043 703 l 5
1253 703 m 5
 1253 617 l 5
 1376 617 l 5
 1376 703 l 5
 1253 703 l 5
833 555 m 5
 833 469 l 5
 956 469 l 5
 956 555 l 5
 833 555 l 5
1043 555 m 5
 1043 469 l 5
 1166 469 l 5
 1166 555 l 5
 1043 555 l 5
1253 555 m 5
 1253 469 l 5
 1376 469 l 5
 1376 555 l 5
 1253 555 l 5
EndSplineSet
EndChar
StartChar: telhandsetcirc
Encoding: 41 61481 10
Width: 1824
Flags: HW
Back
173 740 m 4
 173 944.666 245.334 1119.17 390 1263.5 c 132
 534.666 1407.83 709 1480 913 1480 c 4
 1117.67 1480 1292.17 1407.83 1436.5 1263.5 c 132
 1580.83 1119.17 1653 944.666 1653 740 c 4
 1653 536 1580.83 361.666 1436.5 217 c 132
 1292.17 72.334 1117.67 0 913 0 c 4
 709 0 534.666 72.334 390 217 c 132
 245.334 361.666 173 536 173 740 c 4
235 740 m 4
 235 551.334 300.834 391.166 432.5 259.5 c 132
 564.166 127.834 724.334 62 913 62 c 4
 1102.33 62 1262.83 127.834 1394.5 259.5 c 132
 1526.17 391.166 1592 551.334 1592 740 c 4
 1592 929.334 1526.17 1089.83 1394.5 1221.5 c 132
 1262.83 1353.17 1102.33 1419 913 1419 c 4
 723.666 1419 563.334 1353.17 432 1221.5 c 132
 300.666 1089.83 235 929.334 235 740 c 4
1098 195 m 5
 1039.33 159.666 972.666 135.666 898 123 c 5
 889.334 161.666 885 199.666 885 237 c 4
 885 299.666 901.666 366 935 436 c 5
 949 436 l 6
 1013.67 436 1046 533.334 1046 728 c 4
 1046 929.334 1013.67 1030 949 1030 c 6
 935 1030 l 5
 896.334 1096.67 877 1162 877 1226 c 4
 877 1265.33 884 1304 898 1342 c 5
 966.666 1330.67 1033.33 1306.67 1098 1270 c 5
 1128.67 1188 1151.67 1102.33 1167 1013 c 132
 1182.33 923.666 1190 830.666 1190 734 c 4
 1190 635.334 1182.33 541.166 1167 451.5 c 132
 1151.67 361.834 1128.67 276.334 1098 195 c 5
869 123 m 5
 838 123 l 6
 798 123 770.5 131.666 755.5 149 c 132
 740.5 166.334 733 198 733 244 c 4
 733 372 779.666 436 873 436 c 6
 903 436 l 5
 869.666 374.666 853 308.334 853 237 c 4
 853 197 858.334 159 869 123 c 5
898 1030 m 5
 874 1030 l 6
 774.666 1030 725 1093 725 1219 c 4
 725 1267 732.834 1299.5 748.5 1316.5 c 132
 764.166 1333.5 794.334 1342 839 1342 c 6
 867 1342 l 5
 852.334 1298.67 845 1259.33 845 1224 c 4
 845 1156.67 862.666 1092 898 1030 c 5
EndSplineSet
EndChar
StartChar: envelopeback
Encoding: 42 61482 11
Width: 2318
Flags: HW
Back
878 740 m 5
 222 1396 l 5
 222 84 l 5
 878 740 l 5
1407 705 m 5
 1230 529 l 5
 1210.67 509 1187.33 499 1160 499 c 4
 1132.67 499 1109 509 1089 529 c 6
 913 705 l 5
 257 49 l 5
 2062 49 l 5
 1407 705 l 5
1442 740 m 5
 2097 84 l 5
 2097 1396 l 5
 1442 740 l 5
257 1431 m 5
 1125 563 l 6
 1134.33 553.666 1146 549 1160 549 c 4
 1174 549 1185.67 553.666 1195 563 c 6
 2063 1431 l 5
 257 1431 l 5
173 1480 m 5
 2147 1480 l 5
 2147 0 l 5
 173 0 l 5
 173 1480 l 5
EndSplineSet
EndChar
StartChar: envelopefront
Encoding: 43 61483 12
Width: 2318
Flags: HW
Back
1900 1283 m 5
 1900 987 l 5
 1653 987 l 5
 1653 1283 l 5
 1900 1283 l 5
765 839 m 5
 1406 839 l 5
 1406 790 l 5
 765 790 l 5
 765 839 l 5
962 444 m 5
 1604 444 l 5
 1604 395 l 5
 962 395 l 5
 962 444 l 5
864 641 m 5
 1505 641 l 5
 1505 592 l 5
 864 592 l 5
 864 641 l 5
222 1431 m 5
 222 49 l 5
 2097 49 l 5
 2097 1431 l 5
 222 1431 l 5
173 1480 m 5
 2147 1480 l 5
 2147 0 l 5
 173 0 l 5
 173 1480 l 5
EndSplineSet
EndChar
StartChar: mailboxflagdwn
Encoding: 44 61484 13
Width: 2398
Flags: HW
Back
1061 0 m 5
 173 0 l 5
 173 740 l 6
 173 844.666 204.666 936.334 268 1015 c 132
 331.334 1093.67 416 1146.67 522 1174 c 6
 1620 1454 l 6
 1689.33 1471.33 1743.33 1480 1782 1480 c 4
 1902.67 1480 2007 1436 2095 1348 c 132
 2183 1260 2227 1155.33 2227 1034 c 6
 2227 296 l 5
 1061 0 l 5
1012 49 m 5
 1012 740 l 6
 1012 850.666 973.666 944 897 1020 c 132
 820.334 1096 726.666 1134 616 1134 c 4
 507.334 1134 414.5 1095.5 337.5 1018.5 c 132
 260.5 941.5 222 848.666 222 740 c 6
 222 49 l 5
 1012 49 l 5
2178 333 m 5
 2178 1034 l 6
 2178 1143.33 2139.5 1237.17 2062.5 1315.5 c 132
 1985.5 1393.83 1893.33 1433 1786 1433 c 4
 1750.67 1433 1716 1428.67 1682 1420 c 6
 717 1171 l 5
 828.334 1137 913.5 1083 972.5 1009 c 132
 1031.5 935 1061 845.334 1061 740 c 6
 1061 49 l 5
 2178 333 l 5
1684 305 m 5
 1684 613 l 5
 1160 482 l 5
 1160 635 l 5
 2073 865 l 5
 2073 402 l 5
 1684 305 l 5
778 649 m 5
 668 605 l 5
 472 605 l 5
 438 649 l 5
 438 777 l 5
 472 740 l 5
 668 740 l 5
 778 777 l 5
 778 649 l 5
EndSplineSet
EndChar
StartChar: mailboxflagup
Encoding: 45 61485 14
Width: 2398
Flags: HW
Back
1061 0 m 5
 173 0 l 5
 173 740 l 6
 173 844.666 203.834 935.666 265.5 1013 c 132
 327.166 1090.33 410.666 1142.67 516 1170 c 6
 1228 1353 l 5
 1228 1507 l 5
 1672 1621 l 5
 1672 1464 l 5
 1710 1473.33 1749.67 1478 1791 1478 c 4
 1907 1478 2008.66 1433.5 2096 1344.5 c 132
 2183.34 1255.5 2227 1152 2227 1034 c 6
 2227 296 l 5
 1061 0 l 5
1012 49 m 5
 1012 736 l 6
 1012 846.666 973.166 940 895.5 1016 c 132
 817.834 1092 722.334 1130 609 1130 c 4
 498.334 1130 406.166 1092.5 332.5 1017.5 c 132
 258.834 942.5 222 848.666 222 736 c 6
 222 49 l 5
 1012 49 l 5
2178 333 m 5
 2178 1032 l 6
 2178 1139.33 2138.84 1233 2060.5 1313 c 132
 1982.17 1393 1890.33 1433 1785 1433 c 4
 1753 1433 1715.33 1427.67 1672 1417 c 5
 1672 1214 l 5
 1388 1136 l 5
 1388 539 l 5
 1228 501 l 5
 1228 1300 l 5
 712 1169 l 5
 822.666 1135 908.5 1080.17 969.5 1004.5 c 132
 1030.5 928.834 1061 839.334 1061 736 c 6
 1061 49 l 5
 2178 333 l 5
778 649 m 5
 668 605 l 5
 472 605 l 5
 438 649 l 5
 438 777 l 5
 472 740 l 5
 668 740 l 5
 778 777 l 5
 778 649 l 5
EndSplineSet
EndChar
StartChar: mailbxopnflgup
Encoding: 46 61486 15
Width: 2948
Flags: HW
Back
1619 0 m 5
 725 0 l 5
 354 311 l 6
 233.334 412.334 173 506 173 592 c 4
 173 654 197.166 704 245.5 742 c 132
 293.834 780 357.666 799 437 799 c 4
 531 799 627 771 725 715 c 5
 725 740 l 6
 725 845.334 755.834 936.5 817.5 1013.5 c 132
 879.166 1090.5 962.666 1142.67 1068 1170 c 6
 1780 1353 l 5
 1780 1507 l 5
 2224 1621 l 5
 2224 1464 l 5
 2262.66 1473.33 2302.34 1478 2343 1478 c 4
 2459 1478 2560.66 1433.5 2648 1344.5 c 132
 2735.34 1255.5 2779 1152 2779 1034 c 6
 2779 296 l 5
 1619 0 l 5
1479 49 m 5
 933 504 l 6
 737 666.666 573 748 441 748 c 4
 376.334 748 324 734.334 284 707 c 132
 244 679.666 224 644 224 600 c 4
 224 519.334 299 417.666 449 295 c 6
 748 49 l 5
 1479 49 l 5
751 408 m 5
 716 370 l 5
 566 370 l 5
 452 466 l 5
 477 509 l 5
 529 469 l 5
 606 469 l 5
 638 501 l 5
 751 408 l 5
1516 930 m 5
 1431.33 1058 1313.67 1122 1163 1122 c 4
 1051 1122 958.334 1085.17 885 1011.5 c 132
 811.666 937.834 775 844.666 775 732 c 6
 775 686 l 5
 851 637.334 916.334 588.666 971 540 c 6
 1010 506 l 5
 1165 842 l 5
 1516 930 l 5
1569 733 m 5
 1569 780.334 1559.33 830.334 1540 883 c 5
 1200 799 l 5
 1051 473 l 5
 1231 322 l 5
 1307 666 l 5
 1569 733 l 5
1564 228 m 5
 1564 677 l 5
 1347 623 l 5
 1272 289 l 5
 1399 186 l 5
 1564 228 l 5
1564 49 m 5
 1564 180 l 5
 1444 149 l 5
 1564 49 l 5
2730 333 m 5
 2730 1032 l 6
 2730 1139.33 2690.84 1233 2612.5 1313 c 132
 2534.16 1393 2442.34 1433 2337 1433 c 4
 2305 1433 2267.34 1427.67 2224 1417 c 5
 2224 1214 l 5
 1940 1136 l 5
 1940 539 l 5
 1780 501 l 5
 1780 1300 l 5
 1265 1169 l 5
 1375 1135 1460.5 1080.17 1521.5 1004.5 c 132
 1582.5 928.834 1613 839.334 1613 736 c 6
 1613 49 l 5
 2730 333 l 5
EndSplineSet
EndChar
StartChar: mailbxopnflgdwn
Encoding: 47 61487 16
Width: 2954
Flags: HW
Back
1618 0 m 5
 723 0 l 5
 352 308 l 6
 232.666 407.334 173 500.666 173 588 c 4
 173 650.666 196.834 701 244.5 739 c 132
 292.166 777 355.334 796 434 796 c 4
 512.666 796 611 767.666 729 711 c 5
 729 740 l 6
 729 844 760 934.334 822 1011 c 132
 884 1087.67 967.334 1139.33 1072 1166 c 6
 2173 1449 l 6
 2243.66 1467 2301.66 1476 2347 1476 c 4
 2463 1476 2564.66 1431.17 2652 1341.5 c 132
 2739.34 1251.83 2783 1147.33 2783 1028 c 6
 2783 292 l 5
 1618 0 l 5
1478 49 m 5
 930 501 l 5
 733.334 664.334 570.334 746 441 746 c 4
 375.666 746 322.834 732.166 282.5 704.5 c 132
 242.166 676.834 222 641 222 597 c 4
 222 514.334 296.666 412.666 446 292 c 6
 748 49 l 5
 1478 49 l 5
755 408 m 5
 720 370 l 5
 570 370 l 5
 456 466 l 5
 482 509 l 5
 533 469 l 5
 610 469 l 5
 642 501 l 5
 755 408 l 5
1568 49 m 5
 1568 740 l 6
 1568 850.666 1529.83 944 1453.5 1020 c 132
 1377.17 1096 1283.33 1134 1172 1134 c 4
 1063.33 1134 970.666 1095.5 894 1018.5 c 132
 817.334 941.5 779 848.666 779 740 c 6
 779 683 l 5
 819.666 657 883.666 608 971 536 c 6
 1568 49 l 5
2734 333 m 5
 2734 1034 l 6
 2734 1143.33 2695.5 1237.17 2618.5 1315.5 c 132
 2541.5 1393.83 2449.34 1433 2342 1433 c 4
 2306.66 1433 2272.34 1428.67 2239 1420 c 6
 1273 1171 l 5
 1384.33 1137 1469.67 1083 1529 1009 c 132
 1588.33 935 1618 845.334 1618 740 c 6
 1618 49 l 5
 2734 333 l 5
2241 305 m 5
 2241 613 l 5
 1716 482 l 5
 1716 635 l 5
 2629 865 l 5
 2629 402 l 5
 2241 305 l 5
EndSplineSet
EndChar
StartChar: folder
Encoding: 48 61488 17
Width: 2244
Flags: HW
Fore
180 1248 m 29
 266 1488 l 29
 1068 1488 l 29
 1188 1284 l 29
 2080 1284 l 29
 2080 0 l 29
 180 0 l 29
 180 1248 l 29
EndSplineSet
Back
173 0 m 5
 173 1159 l 6
 173 1241.67 214 1283 296 1283 c 6
 353 1283 l 6
 381.666 1283 402 1287.5 414 1296.5 c 132
 426 1305.5 435.334 1323 442 1349 c 6
 452 1389 l 5
 463.334 1431 477 1456.67 493 1466 c 4
 509 1475.33 548 1480 610 1480 c 6
 994 1480 l 6
 1045.33 1480 1079.5 1475.17 1096.5 1465.5 c 132
 1113.5 1455.83 1126.67 1433.67 1136 1399 c 5
 1147 1356 l 5
 1156.33 1321.33 1166.5 1300.5 1177.5 1293.5 c 132
 1188.5 1286.5 1216.67 1283 1262 1283 c 6
 1951 1283 l 6
 1997.67 1283 2029.66 1274.33 2047 1257 c 132
 2064.34 1239.67 2073 1207.33 2073 1160 c 6
 2073 0 l 5
 173 0 l 5
222 53 m 5
 2024 46 l 5
 2024 1160 l 6
 2024 1209.33 1999.33 1234 1950 1234 c 6
 303 1234 l 6
 249 1234 222 1209.33 222 1160 c 6
 222 53 l 5
480 1283 m 5
 1111 1283 l 5
 1091 1359 l 5
 1083 1391 1073.33 1411 1062 1419 c 132
 1050.67 1427 1026 1431 988 1431 c 6
 621 1431 l 6
 576.334 1431 547.166 1427.17 533.5 1419.5 c 132
 519.834 1411.83 509 1392.67 501 1362 c 6
 480 1283 l 5
EndSplineSet
EndChar
StartChar: folderopen
Encoding: 49 61489 18
Width: 2780
Flags: HW
Fore
180 1248 m 25
 266 1488 l 25
 1068 1488 l 25
 1188 1284 l 25
 2080 1284 l 17
 2080 1064 l 1
 756 1064 l 1
 246 70 l 1
 2044 70 l 1
 2514 1014 l 1
 2078 1016 l 1
 2080 1064 l 1
 2616 1062 l 1
 2080 0 l 9
 180 0 l 25
 180 1248 l 25
EndSplineSet
Back
173 0 m 5
 173 1159 l 6
 173 1241.67 214 1283 296 1283 c 6
 353 1283 l 6
 381.666 1283 402 1287.5 414 1296.5 c 132
 426 1305.5 435.334 1323 442 1349 c 6
 452 1389 l 6
 462.666 1431 476.334 1456.67 493 1466 c 4
 509 1475.33 547.666 1480 609 1480 c 6
 991 1480 l 6
 1046.33 1480 1081.67 1475.67 1097 1467 c 132
 1112.33 1458.33 1125.67 1435 1137 1397 c 6
 1148 1360 l 6
 1159.33 1322 1169.83 1299.67 1179.5 1293 c 132
 1189.17 1286.33 1216 1283 1260 1283 c 6
 1951 1283 l 6
 1998.33 1283 2030.5 1274.17 2047.5 1256.5 c 132
 2064.5 1238.83 2073 1205.67 2073 1157 c 6
 2073 1061 l 5
 2470 1061 l 6
 2542 1061 2579 1048.33 2581 1023 c 4
 2581.66 1017.67 2570 990.666 2546 942 c 5
 2073 0 l 5
 173 0 l 5
222 102 m 5
 652 940 l 6
 683.334 1000.67 707.666 1036 725 1046 c 132
 742.334 1056 787.334 1061 860 1061 c 6
 2024 1061 l 5
 2024 1157 l 6
 2024 1208.33 1999 1234 1949 1234 c 6
 1254 1234 l 6
 1191.33 1234 1152.67 1237.67 1138 1245 c 132
 1123.33 1252.33 1111.33 1275 1102 1313 c 5
 1090 1359 l 6
 1081.33 1391.67 1071.5 1411.83 1060.5 1419.5 c 132
 1049.5 1427.17 1025 1431 987 1431 c 6
 617 1431 l 6
 574.334 1431 545.666 1427 531 1419 c 4
 516.334 1410.33 505 1391.67 497 1363 c 5
 485 1317 l 5
 474.334 1279 462.5 1255.67 449.5 1247 c 132
 436.5 1238.33 407.666 1234 363 1234 c 6
 301 1234 l 6
 269 1234 247.834 1229.17 237.5 1219.5 c 132
 227.166 1209.83 222 1189.33 222 1158 c 6
 222 102 l 5
252 49 m 5
 2041 49 l 5
 2484 937 l 5
 2498.66 969 2506 987 2506 991 c 4
 2504 1005 2483.34 1012 2444 1012 c 6
 830 1012 l 6
 791.334 1012 764.666 1007.67 750 999 c 132
 735.334 990.334 720.334 970.666 705 940 c 6
 252 49 l 5
EndSplineSet
EndChar
StartChar: filetalltext1
Encoding: 50 61490 19
Width: 1428
Flags: HW
Back
370 247 m 5
 370 296 l 5
 1061 296 l 5
 1061 247 l 5
 370 247 l 5
370 444 m 5
 370 493 l 5
 1061 493 l 5
 1061 444 l 5
 370 444 l 5
864 1411 m 5
 864 1086 l 5
 1189 1086 l 5
 864 1411 l 5
1259 1086 m 5
 1259 0 l 5
 173 0 l 5
 173 1480 l 5
 864 1480 l 5
 1259 1086 l 5
814 1036 m 5
 814 1431 l 5
 222 1431 l 5
 222 49 l 5
 1209 49 l 5
 1209 1036 l 5
 814 1036 l 5
370 641 m 5
 370 691 l 5
 1061 691 l 5
 1061 641 l 5
 370 641 l 5
370 839 m 5
 370 888 l 5
 1061 888 l 5
 1061 839 l 5
 370 839 l 5
370 1036 m 5
 370 1086 l 5
 666 1086 l 5
 666 1036 l 5
 370 1036 l 5
370 1234 m 5
 370 1283 l 5
 666 1283 l 5
 666 1234 l 5
 370 1234 l 5
EndSplineSet
EndChar
StartChar: filetalltext
Encoding: 51 61491 20
Width: 1428
Flags: HW
Back
1259 1480 m 5
 1259 0 l 5
 173 0 l 5
 173 1480 l 5
 1259 1480 l 5
1209 1431 m 5
 222 1431 l 5
 222 49 l 5
 1209 49 l 5
 1209 1431 l 5
370 247 m 5
 370 296 l 5
 1061 296 l 5
 1061 247 l 5
 370 247 l 5
370 444 m 5
 370 493 l 5
 1061 493 l 5
 1061 444 l 5
 370 444 l 5
370 641 m 5
 370 691 l 5
 1061 691 l 5
 1061 641 l 5
 370 641 l 5
370 839 m 5
 370 888 l 5
 1061 888 l 5
 1061 839 l 5
 370 839 l 5
370 1036 m 5
 370 1086 l 5
 1061 1086 l 5
 1061 1036 l 5
 370 1036 l 5
370 1234 m 5
 370 1283 l 5
 1061 1283 l 5
 1061 1234 l 5
 370 1234 l 5
EndSplineSet
EndChar
StartChar: filetalltext3
Encoding: 52 61492 21
Width: 1824
Flags: HW
Back
1456 -197 m 5
 1259 -197 l 5
 1259 -395 l 5
 173 -395 l 5
 173 1086 l 5
 370 1086 l 5
 370 1283 l 5
 568 1283 l 5
 568 1480 l 5
 1653 1480 l 5
 1653 0 l 5
 1456 0 l 5
 1456 -197 l 5
617 1431 m 5
 617 1283 l 5
 1456 1283 l 5
 1456 49 l 5
 1604 49 l 5
 1604 1431 l 5
 617 1431 l 5
420 1234 m 5
 420 1086 l 5
 1259 1086 l 5
 1259 -148 l 5
 1407 -148 l 5
 1407 1234 l 5
 420 1234 l 5
1209 1036 m 5
 222 1036 l 5
 222 -346 l 5
 1209 -346 l 5
 1209 1036 l 5
370 -148 m 5
 370 -99 l 5
 1061 -99 l 5
 1061 -148 l 5
 370 -148 l 5
370 49 m 5
 370 99 l 5
 1061 99 l 5
 1061 49 l 5
 370 49 l 5
370 247 m 5
 370 296 l 5
 1061 296 l 5
 1061 247 l 5
 370 247 l 5
370 444 m 5
 370 493 l 5
 1061 493 l 5
 1061 444 l 5
 370 444 l 5
370 641 m 5
 370 691 l 5
 1061 691 l 5
 1061 641 l 5
 370 641 l 5
370 839 m 5
 370 888 l 5
 1061 888 l 5
 1061 839 l 5
 370 839 l 5
EndSplineSet
EndChar
StartChar: filecabinet
Encoding: 53 61493 22
Width: 1134
Flags: HW
Back
963 1480 m 5
 963 0 l 5
 173 0 l 5
 173 1480 l 5
 963 1480 l 5
913 1431 m 5
 222 1431 l 5
 222 765 l 5
 913 765 l 5
 913 1431 l 5
913 716 m 5
 222 716 l 5
 222 49 l 5
 913 49 l 5
 913 716 l 5
420 1332 m 5
 716 1332 l 5
 716 1135 l 5
 420 1135 l 5
 420 1332 l 5
469 1283 m 5
 469 1184 l 5
 666 1184 l 5
 666 1283 l 5
 469 1283 l 5
518 1012 m 5
 617 1012 l 5
 617 962 l 5
 518 962 l 5
 518 1012 l 5
420 617 m 5
 716 617 l 5
 716 419 l 5
 420 419 l 5
 420 617 l 5
469 568 m 5
 469 469 l 5
 666 469 l 5
 666 568 l 5
 469 568 l 5
518 296 m 5
 617 296 l 5
 617 247 l 5
 518 247 l 5
 518 296 l 5
EndSplineSet
EndChar
StartChar: hourglass
Encoding: 54 61494 23
Width: 1232
Flags: HW
Back
173 149 m 6
 173 225 l 6
 173 289.666 181.166 340.834 197.5 378.5 c 132
 213.834 416.166 247.666 462.334 299 517 c 6
 431 656 l 6
 473 700.666 494 729.666 494 743 c 4
 494 757.666 468.334 791 417 843 c 6
 285 979 l 6
 240.334 1024.33 210.5 1066.33 195.5 1105 c 132
 180.5 1143.67 173 1197 173 1265 c 6
 173 1347 l 6
 173 1403.67 210 1446.17 284 1474.5 c 132
 358 1502.83 469 1517 617 1517 c 4
 913 1517 1061 1460.33 1061 1347 c 6
 1061 1265 l 6
 1061 1197 1053.5 1143.67 1038.5 1105 c 132
 1023.5 1066.33 993.666 1024.33 949 979 c 6
 817 843 l 6
 766.334 791 741 757.666 741 743 c 4
 741 729.666 761.666 700.666 803 656 c 5
 935 517 l 6
 986.334 462.334 1020.17 416.166 1036.5 378.5 c 132
 1052.83 340.834 1061 289.666 1061 225 c 6
 1061 149 l 6
 1061 87.666 1023.33 41.334 948 10 c 132
 872.666 -21.334 762.334 -37 617 -37 c 4
 471.666 -37 361.334 -21.334 286 10 c 132
 210.666 41.334 173 87.666 173 149 c 6
617 1283 m 4
 709 1283 794 1293.33 872 1314 c 132
 950 1334.67 988.334 1357 987 1381 c 4
 985.666 1405.67 949.834 1426.33 879.5 1443 c 132
 809.166 1459.67 721.666 1468 617 1468 c 4
 511.666 1468 423.666 1459.5 353 1442.5 c 132
 282.334 1425.5 247 1404.33 247 1379 c 4
 247 1355.67 286.166 1333.83 364.5 1313.5 c 132
 442.834 1293.17 527 1283 617 1283 c 4
222 1321 m 5
 222 1225 l 6
 222 1179 228.666 1143.5 242 1118.5 c 132
 255.334 1093.5 289.666 1051.33 345 992 c 6
 458 872 l 5
 514.666 810 543 766.334 543 741 c 4
 543 715 517 674 465 618 c 6
 335 479 l 6
 284.334 425 252.834 384.666 240.5 358 c 132
 228.166 331.334 222 291 222 237 c 6
 222 165 l 6
 222 121.666 237.666 91.666 269 75 c 4
 345.666 33 461.666 12 617 12 c 4
 773 12 889 33 965 75 c 4
 996.334 91.666 1012 121.666 1012 165 c 6
 1012 237 l 6
 1012 291 1005.83 331.334 993.5 358 c 132
 981.166 384.666 949.666 425 899 479 c 6
 769 618 l 6
 717 674 691 716.334 691 745 c 4
 691 767.666 719.666 810 777 872 c 6
 889 992 l 6
 944.334 1051.33 978.666 1093.5 992 1118.5 c 132
 1005.33 1143.5 1012 1179 1012 1225 c 6
 1012 1321 l 5
 920.666 1263 789 1234 617 1234 c 4
 531 1234 455.166 1241.33 389.5 1256 c 132
 323.834 1270.67 268 1292.33 222 1321 c 5
328 1123 m 5
 426.666 1060.33 523 1029 617 1029 c 4
 711 1029 807.666 1060.33 907 1123 c 5
 890.334 1096.33 853.666 1052.33 797 991 c 6
 714 900 l 6
 676.666 859.334 654 831.166 646 815.5 c 132
 638 799.834 631.334 770 626 726 c 4
 624.666 712.666 621.666 692.666 617 666 c 5
 612.334 692.666 609.334 712.666 608 726 c 4
 602.666 770 596 799.834 588 815.5 c 132
 580 831.166 557.334 859.334 520 900 c 6
 437 991 l 6
 380.334 1052.33 344 1096.33 328 1123 c 5
272 146 m 5
 282.666 186 322.666 224 392 260 c 6
 480 305 l 6
 535.334 333.666 568.5 353 579.5 363 c 132
 590.5 373 603 395.334 617 430 c 5
 631.666 395.334 644.334 373 655 363 c 132
 665.666 353 698.666 333.666 754 305 c 6
 842 260 l 6
 911.334 224 951.334 186 962 146 c 5
 877.334 103.334 762.334 82 617 82 c 4
 471.666 82 356.666 103.334 272 146 c 5
EndSplineSet
EndChar
StartChar: keyboard
Encoding: 55 61495 24
Width: 2194
Flags: HW
Back
518 962 m 1
 1777 962 l 2
 1896.33 962 1967.33 950.666 1990 928 c 128
 2012.66 905.334 2024 834.666 2024 716 c 2
 2024 247 l 2
 2024 130.334 2011.84 60 1987.5 36 c 128
 1963.17 12 1893 0 1777 0 c 2
 420 0 l 2
 308 0 238.834 13.166 212.5 39.5 c 128
 186.166 65.834 173 135 173 247 c 2
 173 716 l 2
 173 826.666 183.334 895.666 204 923 c 128
 224.666 950.334 277.334 964 362 964 c 1
 420 962 l 1
 420 981 l 2
 420 1082.33 450.834 1167.5 512.5 1236.5 c 128
 574.166 1305.5 650.666 1340 742 1340 c 0
 785.334 1340 833.334 1332.67 886 1318 c 2
 930 1305 l 2
 988 1288.33 1038 1280 1080 1280 c 0
 1201.33 1280 1284 1333.33 1328 1440 c 0
 1348.67 1491.33 1369.67 1517 1391 1517 c 0
 1421.67 1517 1437 1502.67 1437 1474 c 0
 1437 1423.33 1409.67 1367.33 1355 1306 c 0
 1281.67 1222.67 1191.33 1181 1084 1181 c 0
 1047.33 1181 989.666 1190 911 1208 c 2
 858 1220 l 2
 800 1234 758.666 1241 734 1241 c 0
 674.666 1241 623.834 1215.67 581.5 1165 c 128
 539.166 1114.33 518 1054 518 984 c 2
 518 962 l 1
1777 913 m 2
 420 913 l 2
 322.666 913 265.334 904.334 248 887 c 128
 230.666 869.666 222 812.666 222 716 c 2
 222 248 l 2
 222 150.666 230.666 93.334 248 76 c 128
 265.334 58.666 322.666 50 420 50 c 2
 1777 50 l 2
 1874.33 50 1931.5 58.666 1948.5 76 c 128
 1965.5 93.334 1974 150.666 1974 248 c 2
 1974 716 l 2
 1974 812.666 1965.33 869.666 1948 887 c 128
 1930.67 904.334 1873.67 913 1777 913 c 2
420 765 m 1
 543 765 l 1
 543 643 l 1
 666 643 l 1
 666 765 l 1
 790 765 l 1
 790 643 l 1
 913 643 l 1
 913 765 l 1
 1037 765 l 1
 1037 643 l 1
 1160 643 l 1
 1160 765 l 1
 1283 765 l 1
 1283 643 l 1
 1407 643 l 1
 1407 765 l 1
 1530 765 l 1
 1530 643 l 1
 1653 643 l 1
 1653 765 l 1
 1777 765 l 1
 1777 642 l 1
 1655 642 l 1
 1655 518 l 1
 1777 518 l 1
 1777 395 l 1
 1653 395 l 1
 1653 517 l 1
 1530 517 l 1
 1530 395 l 1
 1407 395 l 1
 1407 517 l 1
 1283 517 l 1
 1283 395 l 1
 1160 395 l 1
 1160 517 l 1
 1037 517 l 1
 1037 395 l 1
 913 395 l 1
 913 517 l 1
 790 517 l 1
 790 395 l 1
 666 395 l 1
 666 517 l 1
 543 517 l 1
 543 395 l 1
 420 395 l 1
 420 518 l 1
 541 518 l 1
 541 642 l 1
 420 642 l 1
 420 765 l 1
668 519 m 1
 789 519 l 1
 789 640 l 1
 668 640 l 1
 668 519 l 1
914 519 m 1
 1036 519 l 1
 1036 640 l 1
 914 640 l 1
 914 519 l 1
1161 519 m 1
 1282 519 l 1
 1282 640 l 1
 1161 640 l 1
 1161 519 l 1
1408 519 m 1
 1529 519 l 1
 1529 640 l 1
 1408 640 l 1
 1408 519 l 1
666 197 m 1
 666 321 l 1
 1530 321 l 1
 1530 197 l 1
 666 197 l 1
EndSplineSet
EndChar
StartChar: mouse2button
Encoding: 56 61496 25
Width: 1938
Flags: HW
Back
1429 1213 m 5
 1169 1213 l 6
 1121 1213 1090.33 1206.67 1077 1194 c 132
 1063.67 1181.33 1057 1152.67 1057 1108 c 6
 1057 950 l 5
 1429 950 l 5
 1429 1213 l 5
1479 1213 m 5
 1479 950 l 5
 1720 950 l 5
 1720 1108 l 6
 1720 1154.67 1713.67 1183.83 1701 1195.5 c 132
 1688.33 1207.17 1657.33 1213 1608 1213 c 6
 1479 1213 l 5
1057 901 m 5
 1057 344 l 6
 1057 252.666 1089.33 174.5 1154 109.5 c 132
 1218.67 44.5 1296.67 12 1388 12 c 4
 1480 12 1558.33 44.334 1623 109 c 132
 1687.67 173.666 1720 252 1720 344 c 6
 1720 901 l 5
 1057 901 l 5
1405 1263 m 5
 1405 1353.67 1387.83 1418.67 1353.5 1458 c 132
 1319.17 1497.33 1262.67 1517 1184 1517 c 4
 1027.33 1517 907.666 1404.67 825 1180 c 5
 809 1135 l 5
 711.666 871.666 569.666 740 383 740 c 4
 308.334 740 238.166 768.834 172.5 826.5 c 132
 106.834 884.166 74 945.666 74 1011 c 4
 74 1044.33 89.666 1061 121 1061 c 4
 141.666 1061 162.666 1034.67 184 982 c 4
 224 886.666 290.666 839 384 839 c 4
 455.334 839 513.5 861.834 558.5 907.5 c 132
 603.5 953.166 654.334 1040.67 711 1170 c 5
 748 1252 l 6
 856.666 1494.67 1003.33 1616 1188 1616 c 4
 1398 1616 1503 1498.33 1503 1263 c 5
 1605 1263 l 6
 1675 1263 1719.83 1253.5 1739.5 1234.5 c 132
 1759.17 1215.5 1769 1172.33 1769 1105 c 6
 1769 344 l 6
 1769 238.666 1731.83 148.834 1657.5 74.5 c 132
 1583.17 0.166016 1493.33 -37 1388 -37 c 4
 1283.33 -37 1193.83 0.166016 1119.5 74.5 c 132
 1045.17 148.834 1008 238.666 1008 344 c 6
 1008 1105 l 6
 1008 1169.67 1018.5 1212.17 1039.5 1232.5 c 132
 1060.5 1252.83 1104.67 1263 1172 1263 c 6
 1405 1263 l 5
EndSplineSet
EndChar
StartChar: ballpoint
Encoding: 57 61497 26
Width: 2206
Flags: HW
Back
950 363 m 5
 914.666 320.334 876 288.166 834 266.5 c 132
 792 244.834 746.666 234 698 234 c 4
 620 234 556.166 261.166 506.5 315.5 c 132
 456.834 369.834 432 439.666 432 525 c 4
 432 584.334 436.666 642.334 446 699 c 6
 460 783 l 5
 474 875 481 936.666 481 968 c 4
 481 1012 465.834 1048.83 435.5 1078.5 c 132
 405.166 1108.17 367.666 1123 323 1123 c 4
 276.334 1123 222 1099.67 160 1053 c 4
 144.666 1041.67 130.334 1036 117 1036 c 4
 88.334 1036 74 1049.33 74 1076 c 4
 74 1109.33 101.666 1142 157 1174 c 132
 212.334 1206 268.334 1222 325 1222 c 4
 398.334 1222 459.166 1197.67 507.5 1149 c 132
 555.834 1100.33 580 1038.67 580 964 c 4
 580 920.666 575.334 869.334 566 810 c 6
 550 710 l 5
 536.666 630 530 569.666 530 529 c 4
 530 471.666 545.666 424.666 577 388 c 132
 608.334 351.334 648 333 696 333 c 4
 749.334 333 797.166 350.5 839.5 385.5 c 132
 881.834 420.5 918.666 473 950 543 c 5
 962 649.666 981.5 732.166 1008.5 790.5 c 132
 1035.5 848.834 1079.33 903.666 1140 955 c 4
 1242 1042.33 1359.67 1086 1493 1086 c 4
 1642.33 1086 1770.17 1033 1876.5 927 c 132
 1982.83 821 2036 693 2036 543 c 6
 2036 197 l 6
 2036 101 2027 44.166 2009 26.5 c 132
 1991 8.83398 1934 0 1838 0 c 6
 1147 0 l 6
 1052.33 0 995.834 9.16602 977.5 27.5 c 132
 959.166 45.834 950 102.334 950 197 c 6
 950 363 l 5
999 543 m 5
 999 197 l 6
 999 127 1006.17 84.834 1020.5 70.5 c 132
 1034.83 56.166 1077 49 1147 49 c 6
 1838 49 l 6
 1914 49 1957.67 54.834 1969 66.5 c 132
 1980.33 78.166 1986 121.666 1986 197 c 6
 1986 543 l 5
 1889 543 l 5
 1884.33 646.334 1844 739.666 1768 823 c 5
 1837 894 l 5
 1729 988.666 1613.33 1036 1490 1036 c 4
 1399.33 1036 1305.67 1005.67 1209 945 c 5
 1267 863 l 5
 1164.33 780.334 1109.33 673.666 1102 543 c 5
 999 543 l 5
1053 592 m 5
 1069.67 701.334 1118 794.666 1198 872 c 5
 1169 912 l 5
 1077 826.666 1020.33 720 999 592 c 5
 1053 592 l 5
1837 821 m 5
 1889.67 753.666 1922 677.334 1934 592 c 5
 1986 592 l 5
 1974.67 683.334 1937 772.334 1873 859 c 5
 1837 821 l 5
1197 543 m 4
 1197 624.334 1225.83 694 1283.5 752 c 132
 1341.17 810 1411 839 1493 839 c 4
 1574.33 839 1644 810.166 1702 752.5 c 132
 1760 694.834 1789 625 1789 543 c 4
 1789 461 1760 391.166 1702 333.5 c 132
 1644 275.834 1574.33 247 1493 247 c 4
 1411 247 1341.17 275.834 1283.5 333.5 c 132
 1225.83 391.166 1197 461 1197 543 c 4
1246 543 m 4
 1246 475 1270 416.834 1318 368.5 c 132
 1366 320.166 1424.33 296 1493 296 c 4
 1561 296 1619.17 320.166 1667.5 368.5 c 132
 1715.83 416.834 1740 475 1740 543 c 4
 1740 611 1715.83 669.166 1667.5 717.5 c 132
 1619.17 765.834 1561 790 1493 790 c 4
 1425 790 1366.83 765.834 1318.5 717.5 c 132
 1270.17 669.166 1246 611 1246 543 c 4
1320 543 m 4
 1320 590.334 1336.83 631 1370.5 665 c 132
 1404.17 699 1445 716 1493 716 c 4
 1540.33 716 1580.83 699 1614.5 665 c 132
 1648.17 631 1665 590.334 1665 543 c 4
 1665 495 1648.17 454.166 1614.5 420.5 c 132
 1580.83 386.834 1540.33 370 1493 370 c 4
 1445 370 1404.17 386.834 1370.5 420.5 c 132
 1336.83 454.166 1320 495 1320 543 c 4
EndSplineSet
EndChar
StartChar: pc
Encoding: 58 61498 27
Width: 1922
Flags: HW
Back
1629 1480 m 5
 1629 518 l 5
 296 518 l 5
 296 1480 l 5
 1629 1480 l 5
1629 469 m 5
 1700 321 l 6
 1734.67 249.666 1752 180.666 1752 114 c 6
 1752 0 l 5
 173 0 l 5
 173 114 l 6
 173 180 190.334 249 225 321 c 6
 296 469 l 5
 1629 469 l 5
1579 1431 m 5
 346 1431 l 5
 346 568 l 5
 1579 568 l 5
 1579 1431 l 5
1596 419 m 5
 325 419 l 5
 262 284 l 6
 235.334 226.666 222 180.334 222 145 c 6
 222 49 l 5
 1703 49 l 5
 1703 86 l 6
 1703 152.666 1687.67 219.334 1657 286 c 6
 1596 419 l 5
444 1229 m 6
 444 769 l 6
 444 723 449.834 694.334 461.5 683 c 132
 473.166 671.666 502.334 666 549 666 c 6
 1373 666 l 6
 1421 666 1451 671.5 1463 682.5 c 132
 1475 693.5 1481 721.334 1481 766 c 6
 1481 1231 l 6
 1481 1275.67 1474.83 1303.67 1462.5 1315 c 132
 1450.17 1326.33 1420.33 1332 1373 1332 c 6
 549 1332 l 6
 502.334 1332 473.166 1326.5 461.5 1315.5 c 132
 449.834 1304.5 444 1275.67 444 1229 c 6
401 358 m 5
 524 358 l 5
 524 309 l 5
 649 309 l 5
 649 358 l 5
 770 358 l 5
 770 309 l 5
 896 309 l 5
 896 358 l 5
 1017 358 l 5
 1017 309 l 5
 1142 309 l 5
 1142 358 l 5
 1264 358 l 5
 1264 309 l 5
 1389 309 l 5
 1389 358 l 5
 1512 358 l 5
 1512 309 l 5
 1390 309 l 5
 1390 258 l 5
 1512 258 l 5
 1512 210 l 5
 1389 210 l 5
 1389 258 l 5
 1264 258 l 5
 1264 210 l 5
 1142 210 l 5
 1142 258 l 5
 1017 258 l 5
 1017 210 l 5
 896 210 l 5
 896 258 l 5
 770 258 l 5
 770 210 l 5
 649 210 l 5
 649 258 l 5
 524 258 l 5
 524 210 l 5
 401 210 l 5
 401 258 l 5
 523 258 l 5
 523 309 l 5
 401 309 l 5
 401 358 l 5
649 260 m 5
 770 260 l 5
 770 307 l 5
 649 307 l 5
 649 260 l 5
896 260 m 5
 1017 260 l 5
 1017 307 l 5
 896 307 l 5
 896 260 l 5
1142 260 m 5
 1264 260 l 5
 1264 307 l 5
 1142 307 l 5
 1142 260 l 5
395 768 m 6
 395 1230 l 6
 395 1298 403.334 1340.33 420 1357 c 132
 436.666 1373.67 479.666 1382 549 1382 c 6
 1376 1382 l 6
 1445.33 1382 1488.33 1373.67 1505 1357 c 132
 1521.67 1340.33 1530 1298 1530 1230 c 6
 1530 768 l 6
 1530 700.666 1521.5 658.666 1504.5 642 c 132
 1487.5 625.334 1444.67 617 1376 617 c 6
 549 617 l 6
 480.334 617 437.5 625.334 420.5 642 c 132
 403.5 658.666 395 700.666 395 768 c 6
EndSplineSet
EndChar
StartChar: harddisk
Encoding: 59 61499 28
Width: 1824
Flags: HW
Back
173 148 m 6
 173 543 l 6
 173 613.666 180 656 194 670 c 132
 208 684 250.334 691 321 691 c 6
 1505 691 l 6
 1575.67 691 1618 684 1632 670 c 132
 1646 656 1653 613.666 1653 543 c 6
 1653 148 l 6
 1653 77.334 1646 35 1632 21 c 132
 1618 7 1575.67 0 1505 0 c 6
 321 0 l 6
 250.334 0 208 7 194 21 c 132
 180 35 173 77.334 173 148 c 6
321 49 m 6
 1505 49 l 6
 1548.33 49 1575.67 54.666 1587 66 c 132
 1598.33 77.334 1604 104.666 1604 148 c 6
 1604 543 l 6
 1604 586.334 1598.5 613.666 1587.5 625 c 132
 1576.5 636.334 1549 642 1505 642 c 6
 321 642 l 6
 277.666 642 250.334 636.334 239 625 c 132
 227.666 613.666 222 586.334 222 543 c 6
 222 148 l 6
 222 104.666 227.666 77.334 239 66 c 132
 250.334 54.666 277.666 49 321 49 c 6
395 247 m 5
 395 296 l 5
 1431 296 l 5
 1431 247 l 5
 395 247 l 5
395 395 m 5
 395 444 l 5
 1431 444 l 5
 1431 395 l 5
 395 395 l 5
444 123 m 5
 444 173 l 5
 543 173 l 5
 543 123 l 5
 444 123 l 5
EndSplineSet
EndChar
StartChar: floppy3
Encoding: 60 61500 29
Width: 1824
Flags: HW
Back
173 197 m 5
 173 1382 l 6
 173 1409.33 182.666 1432.5 202 1451.5 c 132
 221.334 1470.5 244.666 1480 272 1480 c 6
 1555 1480 l 6
 1582.33 1480 1605.5 1470.5 1624.5 1451.5 c 132
 1643.5 1432.5 1653 1409.33 1653 1382 c 6
 1653 99 l 6
 1653 71.666 1643.5 48.334 1624.5 29 c 132
 1605.5 9.66602 1582.33 0 1555 0 c 6
 370 0 l 5
 173 197 l 5
864 493 m 5
 617 493 l 5
 617 49 l 5
 864 49 l 5
 864 493 l 5
1259 49 m 5
 1555 49 l 6
 1571.67 49 1584 53.166 1592 61.5 c 132
 1600 69.834 1604 82 1604 98 c 6
 1604 1382 l 6
 1604 1414.67 1587.67 1431 1555 1431 c 6
 1407 1431 l 5
 1407 839 l 6
 1407 811.666 1397.33 788.334 1378 769 c 132
 1358.67 749.666 1335.33 740 1308 740 c 6
 518 740 l 6
 490.666 740 467.5 749.666 448.5 769 c 132
 429.5 788.334 420 811.666 420 839 c 6
 420 1431 l 5
 272 1431 l 6
 238.666 1431 222 1414.67 222 1382 c 6
 222 217 l 5
 390 49 l 5
 568 49 l 5
 568 493 l 6
 568 526.334 584.334 543 617 543 c 6
 1209 543 l 6
 1242.33 543 1259 526.334 1259 493 c 6
 1259 49 l 5
1357 1431 m 5
 469 1431 l 5
 469 839 l 6
 469 823 473.166 810.834 481.5 802.5 c 132
 489.834 794.166 502 790 518 790 c 6
 1308 789 l 6
 1340.67 789 1357 805.666 1357 839 c 6
 1357 1431 l 5
EndSplineSet
EndChar
StartChar: floppy5
Encoding: 61 61501 30
Width: 1824
Flags: HW
Back
1259 1382 m 5
 272 1382 l 5
 272 1036 l 5
 1259 1036 l 5
 1259 1382 l 5
1653 1480 m 5
 1653 1184 l 5
 1555 1184 l 5
 1555 1036 l 5
 1653 1036 l 5
 1653 0 l 5
 173 0 l 5
 173 1480 l 5
 1653 1480 l 5
1113 740 m 4
 1113 793.334 1093.17 839.666 1053.5 879 c 132
 1013.83 918.334 967 938 913 938 c 4
 859 938 812.666 918.666 774 880 c 132
 735.334 841.334 716 794.666 716 740 c 4
 716 686 735.334 639.666 774 601 c 132
 812.666 562.334 859 543 913 543 c 4
 967 543 1013.83 562.5 1053.5 601.5 c 132
 1093.17 640.5 1113 686.666 1113 740 c 4
987 173 m 5
 987 370 l 6
 987 419.334 962.334 444 913 444 c 4
 863.666 444 839 419.334 839 370 c 6
 839 173 l 6
 839 123.666 863.666 99 913 99 c 4
 958.334 99 983 123.666 987 173 c 5
EndSplineSet
EndChar
StartChar: tapereel
Encoding: 62 61502 31
Width: 1824
Flags: HW
Back
814 987 m 5
 814 1283 l 5
 1012 1283 l 5
 1012 987 l 5
 814 987 l 5
913 592 m 4
 872.334 592 837.5 606.5 808.5 635.5 c 132
 779.5 664.5 765 699.334 765 740 c 4
 765 780.666 779.5 815.5 808.5 844.5 c 132
 837.5 873.5 872.334 888 913 888 c 4
 953.666 888 988.5 873.5 1017.5 844.5 c 132
 1046.5 815.5 1061 780.666 1061 740 c 4
 1061 699.334 1046.5 664.5 1017.5 635.5 c 132
 988.5 606.5 953.666 592 913 592 c 4
913 0 m 4
 708.334 0 533.834 72.166 389.5 216.5 c 132
 245.166 360.834 173 535.334 173 740 c 4
 173 944.666 245.334 1119.17 390 1263.5 c 132
 534.666 1407.83 709 1480 913 1480 c 4
 1117.67 1480 1292.17 1407.83 1436.5 1263.5 c 132
 1580.83 1119.17 1653 944.666 1653 740 c 4
 1653 535.334 1580.83 360.834 1436.5 216.5 c 132
 1292.17 72.166 1117.67 0 913 0 c 4
913 49 m 4
 1103.67 49 1266.5 116.5 1401.5 251.5 c 132
 1536.5 386.5 1604 549.334 1604 740 c 4
 1604 930.666 1536.5 1093.5 1401.5 1228.5 c 132
 1266.5 1363.5 1103.67 1431 913 1431 c 4
 722.334 1431 559.5 1363.5 424.5 1228.5 c 132
 289.5 1093.5 222 930.666 222 740 c 4
 222 549.334 289.5 386.5 424.5 251.5 c 132
 559.5 116.5 722.334 49 913 49 c 4
492 383 m 5
 394 554 l 5
 650 702 l 5
 749 531 l 5
 492 383 l 5
1334 383 m 5
 1078 531 l 5
 1176 702 l 5
 1433 554 l 5
 1334 383 l 5
EndSplineSet
EndChar
StartChar: handwrite
Encoding: 63 61503 32
Width: 1860
Flags: HW
Back
1462 0 m 5
 1305 60 l 5
 1264.33 39.334 1209.67 19.334 1141 0 c 5
 1074.33 10.666 999.334 28 916 52 c 5
 886.666 17.334 854.334 0 819 0 c 4
 789.666 0 763 10 739 30 c 5
 713 10 687.334 0 662 0 c 4
 636 0 612.666 8 592 24 c 132
 571.334 40 553 63.666 537 95 c 5
 482.334 103 443.334 124 420 158 c 5
 294 80 l 5
 74 0 l 5
 243 165 l 5
 409 267 l 5
 424.334 297.666 453.666 318.666 497 330 c 5
 468.334 331.334 436.334 339 401 353 c 5
 507 669 l 5
 700 884 l 5
 1146 822 l 5
 1200 760 l 5
 1735 1096 l 5
 1771 1083.33 1789 1060.67 1789 1028 c 4
 1789 1023.33 1788.67 1017.33 1788 1010 c 5
 1263 683 l 5
 1308 620 l 6
 1375.33 526.666 1419.5 470.166 1440.5 450.5 c 132
 1461.5 430.834 1497.33 412.334 1548 395 c 5
 1550 363.666 1551 340.334 1551 325 c 4
 1551 198.334 1521.33 90 1462 0 c 5
1440 64 m 5
 1479.33 151.334 1499 239 1499 327 c 6
 1499 361 l 5
 1430.33 389 1365.33 448.666 1304 540 c 4
 1288 564 1277.33 579.666 1272 587 c 6
 1219 656 l 5
 996 515 l 5
 994 433 l 5
 995 348 l 5
 892.334 334 792 308.666 694 272 c 5
 657.334 279.334 625.666 283 599 283 c 4
 503.666 283 456 259.334 456 212 c 4
 456 163.334 499 139 585 139 c 4
 615.666 139 655.334 144.666 704 156 c 5
 914 102 1060.33 69.666 1143 59 c 5
 1174 69 1174 69 1189 74 c 4
 1243.67 91.334 1282.33 104.334 1305 113 c 5
 1440 64 l 5
1157 735 m 5
 1123 776 l 5
 719 829 l 5
 552 644 l 5
 468 384 l 5
 480 382 489.666 381 497 381 c 4
 555.666 381 604 439.334 642 556 c 5
 675 580 l 6
 716.334 610 757 644.334 797 683 c 5
 839.666 655.666 888 628 942 600 c 5
 1157 735 l 5
895 569 m 5
 883.666 575 875 579.334 869 582 c 4
 845 593.334 824.334 605 807 617 c 5
 775.666 583.666 734.666 552 684 522 c 5
 671.334 480 652 440.666 626 404 c 5
 895 569 l 5
947 486 m 5
 689 324 l 5
 801.666 359.334 887 382 945 392 c 5
 946 460 l 5
 947 486 l 5
730 100 m 5
 705 107 l 5
 655 97 618 92 594 92 c 5
 605.334 78.666 616.5 68.666 627.5 62 c 132
 638.5 55.334 649.334 52 660 52 c 4
 689.334 52 712.666 68 730 100 c 5
860 66 m 5
 765 91 l 5
 769.666 64.334 786.334 51 815 51 c 4
 832.334 51 847.334 56 860 66 c 5
EndSplineSet
EndChar
StartChar: handwriteleft
Encoding: 64 61504 33
Width: 1860
Flags: HW
Back
401 0 m 5
 558 60 l 5
 598.666 39.334 653.334 19.334 722 0 c 5
 788.666 10.666 863.666 28 947 52 c 5
 976.334 17.334 1008.67 0 1044 0 c 4
 1073.33 0 1100 10 1124 30 c 5
 1150 10 1175.67 0 1201 0 c 4
 1227 0 1250.33 8 1271 24 c 132
 1291.67 40 1310 63.666 1326 95 c 5
 1380.67 103 1419.67 124 1443 158 c 5
 1569 80 l 5
 1789 0 l 5
 1620 165 l 5
 1454 267 l 5
 1438.67 297.666 1409.33 318.666 1366 330 c 5
 1394.67 331.334 1426.67 339 1462 353 c 5
 1356 669 l 5
 1163 884 l 5
 717 822 l 5
 663 760 l 5
 128 1096 l 5
 92 1083.33 74 1060.67 74 1028 c 4
 74 1023.33 74.334 1017.33 75 1010 c 5
 600 683 l 5
 555 620 l 6
 487.666 526.666 443.5 470.166 422.5 450.5 c 132
 401.5 430.834 365.666 412.334 315 395 c 5
 313 363.666 312 340.334 312 325 c 4
 312 198.334 341.666 90 401 0 c 5
423 64 m 5
 383.666 151.334 364 239 364 327 c 6
 364 361 l 5
 432.666 389 497.666 448.666 559 540 c 4
 575 564 585.666 579.666 591 587 c 6
 644 656 l 5
 867 515 l 5
 869 433 l 5
 868 348 l 5
 970.666 334 1071 308.666 1169 272 c 5
 1205.67 279.334 1237.33 283 1264 283 c 4
 1359.33 283 1407 259.334 1407 212 c 4
 1407 163.334 1364 139 1278 139 c 4
 1247.33 139 1207.67 144.666 1159 156 c 5
 949 102 802.666 69.666 720 59 c 5
 689 69 689 69 674 74 c 4
 619.334 91.334 580.666 104.334 558 113 c 5
 423 64 l 5
706 735 m 5
 740 776 l 5
 1144 829 l 5
 1311 644 l 5
 1395 384 l 5
 1383 382 1373.33 381 1366 381 c 4
 1307.33 381 1259 439.334 1221 556 c 5
 1188 580 l 6
 1146.67 610 1106 644.334 1066 683 c 5
 1023.33 655.666 975 628 921 600 c 5
 706 735 l 5
968 569 m 5
 979.334 575 988 579.334 994 582 c 4
 1018 593.334 1038.67 605 1056 617 c 5
 1087.33 583.666 1128.33 552 1179 522 c 5
 1191.67 480 1211 440.666 1237 404 c 5
 968 569 l 5
916 486 m 5
 1174 324 l 5
 1061.33 359.334 976 382 918 392 c 5
 917 460 l 5
 916 486 l 5
1133 100 m 5
 1158 107 l 5
 1208 97 1245 92 1269 92 c 5
 1257.67 78.666 1246.5 68.666 1235.5 62 c 132
 1224.5 55.334 1213.67 52 1203 52 c 4
 1173.67 52 1150.33 68 1133 100 c 5
1003 66 m 5
 1098 91 l 5
 1093.33 64.334 1076.67 51 1048 51 c 4
 1030.67 51 1015.67 56 1003 66 c 5
EndSplineSet
EndChar
StartChar: handv
Encoding: 65 61505 34
Width: 1202
Flags: HW
Back
792 171 m 5
 792 26 l 5
 706 -8 628.666 -25 560 -25 c 4
 473.334 -25 395 -8 325 26 c 5
 325 138 l 5
 290 176 290 176 246 227 c 5
 206.666 322.334 187 422.334 187 527 c 6
 187 575 l 5
 177.666 603 173 625.666 173 643 c 4
 173 673.666 179.5 696.5 192.5 711.5 c 132
 205.5 726.5 224.666 734 250 734 c 4
 259.334 734 274.666 731 296 725 c 5
 288 753 284 774.666 284 790 c 4
 284 826.666 292.834 854 310.5 872 c 132
 328.166 890 354.334 899 389 899 c 4
 419.666 899 448.666 881 476 845 c 5
 475.334 861.666 475 875 475 885 c 4
 475 893.666 475.334 904.666 476 918 c 5
 363 1339 l 5
 340.334 1422.33 329 1475.67 329 1499 c 4
 329 1534.33 338.334 1560.67 357 1578 c 132
 375.666 1595.33 403.334 1604 440 1604 c 4
 497.334 1604 540 1545.67 568 1429 c 5
 679 974 l 5
 792 1319 l 6
 835.334 1451 884 1517 938 1517 c 4
 964 1517 986.166 1508 1004.5 1490 c 132
 1022.83 1472 1032 1450 1032 1424 c 4
 1032 1396.67 1020.67 1340.33 998 1255 c 5
 898 874 l 5
 903.334 827.334 906 761.334 906 676 c 5
 907 633 l 5
 927.666 575.666 940 524.334 944 479 c 5
 911.334 383.666 860.666 281 792 171 c 5
637 944 m 5
 519 1425 l 5
 497.666 1513.67 470 1558 436 1558 c 4
 416.666 1558 402.166 1553 392.5 1543 c 132
 382.834 1533 378 1518 378 1498 c 4
 378 1486.67 380.666 1471 386 1451 c 4
 389 1439 389 1439 394 1418 c 4
 398.666 1398.67 402.334 1384.33 405 1375 c 5
 529 909 l 5
 753 877 l 5
 795 829.666 829 780.334 855 729 c 5
 855 887 l 5
 952 1271 l 5
 972 1349 982 1400.33 982 1425 c 4
 982 1439.67 978.334 1450.5 971 1457.5 c 132
 963.666 1464.5 952.334 1468 937 1468 c 4
 918.334 1468 903.834 1459.67 893.5 1443 c 132
 883.166 1426.33 866.666 1384 844 1316 c 5
 715 936 l 5
 637 944 l 5
747 191 m 5
 795.666 260.334 840 346.334 880 449 c 4
 883.334 457.666 888.334 470 895 486 c 5
 890.334 502.666 887 515 885 523 c 4
 856.334 634.334 804.334 737.666 729 833 c 5
 526 860 l 5
 526 766.666 585 717 703 711 c 5
 701.666 689 701 671 701 657 c 4
 701 614.334 705.666 567.334 715 516 c 5
 667 516 l 5
 657 556.666 652 598.334 652 641 c 6
 652 662 l 5
 605.334 671.334 566.334 687.666 535 711 c 5
 574 615 l 5
 586.666 582.334 593 556 593 536 c 4
 593 499.334 584.666 471.834 568 453.5 c 132
 551.334 435.166 526 426 492 426 c 4
 474.666 426 454.334 433.334 431 448 c 5
 427 417.334 417.666 394.334 403 379 c 132
 388.334 363.666 368.666 356 344 356 c 4
 313.334 356 286.666 374.666 264 412 c 6
 242 448 l 5
 250.666 383.334 262 327 276 279 c 4
 279 270 279 270 284 254 c 5
 376 149 l 5
 376 60 l 5
 443.334 37.334 506.666 26 566 26 c 4
 624.666 26 685 37.334 747 60 c 5
 747 191 l 5
500 661 m 5
 459 763 l 6
 435.666 821.666 411.666 851 387 851 c 4
 369.666 851 356.5 845.834 347.5 835.5 c 132
 338.5 825.166 334 809.666 334 789 c 4
 334 761.666 342 729 358 691 c 6
 397 596 l 5
 430.334 516.666 462.666 477 494 477 c 4
 510.666 477 523.166 481.5 531.5 490.5 c 132
 539.834 499.5 544 512.666 544 530 c 4
 544 550.666 529.334 594.334 500 661 c 5
359 562 m 5
 333 622 l 6
 314.334 666 292.334 688 267 688 c 4
 252.334 688 241.166 684.334 233.5 677 c 132
 225.834 669.666 222 658.334 222 643 c 4
 222 630.334 229.666 605.666 245 569 c 6
 283 479 l 6
 303 431.666 325.334 408 350 408 c 4
 364 408 374.5 412.334 381.5 421 c 132
 388.5 429.666 392 442.334 392 459 c 4
 392 480.334 381 514.666 359 562 c 5
EndSplineSet
EndChar
StartChar: handok
Encoding: 66 61506 35
Width: 1622
Flags: HW
Back
1195 30 m 5
 1033.67 52.666 896 112.666 782 210 c 5
 557 234 l 5
 269 355 l 5
 317.666 457.666 386.666 509 476 509 c 4
 495.334 509 516.334 505.834 539 499.5 c 132
 561.666 493.166 585.666 483.334 611 470 c 5
 661.666 485.334 703.666 497 737 505 c 5
 745 547.666 749 580.666 749 604 c 5
 693 645.334 647.666 685.666 613 725 c 5
 572.334 701.666 526.666 679.666 476 659 c 5
 464 526.334 393 460 263 460 c 5
 263 756 l 5
 495 972 l 5
 305 1133 l 5
 217 1206.33 173 1271.67 173 1329 c 4
 173 1369.67 193 1411.33 233 1454 c 5
 561 1215 l 5
 529 1286 l 6
 501 1348 487 1403.33 487 1452 c 4
 487 1518.67 525.666 1569.33 603 1604 c 5
 824 1212 l 5
 833 1283 l 5
 848.334 1415 908 1481 1012 1481 c 4
 1018.67 1481 1030.33 1480.33 1047 1479 c 5
 1041 1433 1038 1378 1038 1314 c 4
 1038 1158.67 1050.33 987 1075 799 c 5
 1551 172 l 5
 1479.67 40.666 1394.33 -40.666 1295 -72 c 5
 1195 30 l 5
1011 884 m 5
 994.334 1012.67 986 1154.67 986 1310 c 4
 986 1341.33 987.666 1382.33 991 1433 c 5
 949 1421.67 919.666 1399.67 903 1367 c 132
 886.334 1334.33 878 1281.67 878 1209 c 4
 878 1188.33 880 1154.67 884 1108 c 5
 1011 884 l 5
908 960 m 5
 584 1534 l 5
 552 1512.67 536 1484.67 536 1450 c 4
 536 1406.67 555.334 1343.33 594 1260 c 6
 643 1155 l 5
 908 960 l 5
885 919 m 5
 243 1383 l 5
 231.666 1363.67 226 1345.67 226 1329 c 4
 226 1281 273.666 1218 369 1140 c 6
 559 985 l 5
 885 919 l 5
1212 83 m 5
 1307 -22 l 5
 1386.33 28 1447.33 92.666 1490 172 c 5
 975 845 l 5
 536 943 l 5
 311 736 l 5
 312 513 l 5
 388 530.334 426 579 426 659 c 4
 426 669.666 425.666 681.666 425 695 c 5
 499 719 563.666 750.334 619 789 c 5
 668.334 735.666 729 680.334 801 623 c 5
 801 575.666 791.666 521.666 773 461 c 5
 743.666 455.666 716 449.334 690 442 c 4
 650.666 430 620.666 421.666 600 417 c 5
 580 431 559.834 441.5 539.5 448.5 c 132
 519.166 455.5 498.666 459 478 459 c 4
 424.666 459 380 432 344 378 c 5
 572 282 l 5
 797 261 l 5
 917 154.334 1055.33 95 1212 83 c 5
EndSplineSet
EndChar
StartChar: thumbup
Encoding: 67 61507 36
Width: 1380
Flags: HW
Back
1160 415 m 5
 1011 415 l 5
 942.334 336.334 868 278.666 788 242 c 5
 762.666 240 744 239 732 239 c 4
 698 239 659.334 245 616 257 c 5
 580 239 l 5
 537 239 l 6
 439 239 390 274 390 344 c 4
 390 348 390.666 354 392 362 c 5
 320 368 284 402.334 284 465 c 4
 284 471.666 284.666 481 286 493 c 5
 259.334 500.334 239.166 512.334 225.5 529 c 132
 211.834 545.666 205 566.666 205 592 c 4
 205 612.666 212.334 634.666 227 658 c 5
 191 696.666 173 739.666 173 787 c 4
 173 841.666 202.666 885.666 262 919 c 132
 321.334 952.334 400 969 498 969 c 6
 523 969 l 5
 515 1029 496.666 1087 468 1143 c 5
 452 1171 l 5
 417.334 1237 400 1288 400 1324 c 4
 400 1423.33 452.334 1485.33 557 1510 c 6
 586 1517 l 5
 636 1295 l 5
 821 1098 l 5
 833.666 1083.33 855.666 1055 887 1013 c 6
 915 976 l 6
 945 935.334 966.166 910.5 978.5 901.5 c 132
 990.834 892.5 1010.67 888 1038 888 c 6
 1155 888 l 5
 1191 811.334 1209 732.666 1209 652 c 4
 1209 573.334 1192.67 494.334 1160 415 c 5
1127 467 m 5
 1147.67 527.666 1158 585.666 1158 641 c 4
 1158 706.334 1146.67 770.666 1124 834 c 5
 1040 834 987.334 839 966 849 c 132
 944.666 859 912.666 894 870 954 c 4
 844 989 844 989 793 1053 c 5
 592 1267 l 5
 552 1452 l 5
 485.334 1429.33 452 1386.67 452 1324 c 4
 452 1291.33 463.334 1256 486 1218 c 6
 499 1196 l 6
 551 1109.33 577 1026.67 577 948 c 5
 578 920 l 5
 542 920 l 6
 436 920 356.334 909.5 303 888.5 c 132
 249.666 867.5 223 835.666 223 793 c 4
 223 754.334 236.834 721.666 264.5 695 c 132
 292.166 668.334 326 655 366 655 c 6
 427 654 l 5
 608 736 l 5
 580.666 777.334 544 798 498 798 c 4
 486 798 470.666 795.334 452 790 c 132
 433.334 784.666 411.334 776.666 386 766 c 5
 339 764 l 5
 292 814 l 5
 373 815 l 5
 396.334 825 417.666 832.334 437 837 c 132
 456.334 841.666 474 844 490 844 c 4
 575.334 844 637.666 800.666 677 714 c 5
 643 698 l 5
 685 677.334 717.334 641.334 740 590 c 5
 701 573 l 5
 731.666 553.666 760 520.666 786 474 c 5
 724 445 l 5
 758 420.334 785.334 385.334 806 340 c 5
 683 285 l 5
 703 281 720 279 734 279 c 6
 773 280 l 5
 861.666 331.334 933.666 393.666 989 467 c 5
 1127 467 l 5
671 612 m 5
 647.666 643.334 619.666 663.334 587 672 c 5
 438 605 l 5
 385 605 l 6
 335 605 297 612 271 626 c 5
 262.334 614 258 602.666 258 592 c 4
 258 571.334 268.166 555.834 288.5 545.5 c 132
 308.834 535.166 339.334 530 380 530 c 6
 486 530 l 5
 671 612 l 5
713 495 m 5
 709.666 499 707 502.334 705 505 c 4
 689 523.666 670 538.334 648 549 c 5
 495 481 l 5
 333 482 l 5
 330 469 l 5
 330 429.666 369 410 447 410 c 6
 522 410 l 5
 713 495 l 5
734 360 m 5
 727 369 727 369 723 374 c 4
 710.334 392 694.334 408.334 675 423 c 5
 532 359 l 5
 440 359 l 5
 440 353 l 6
 440 308.334 472.334 286 537 286 c 6
 570 286 l 5
 734 360 l 5
EndSplineSet
EndChar
StartChar: thumbdown
Encoding: 68 61508 37
Width: 1380
Flags: HW
Back
222 1065 m 5
 371 1065 l 5
 439.666 1143.67 514 1201.33 594 1238 c 5
 619.334 1240 638 1241 650 1241 c 4
 684 1241 722.666 1235 766 1223 c 5
 802 1241 l 5
 845 1241 l 6
 943 1241 992 1206 992 1136 c 4
 992 1132 991.334 1126 990 1118 c 5
 1062 1112 1098 1077.67 1098 1015 c 4
 1098 1008.33 1097.33 999 1096 987 c 5
 1122.67 979.666 1142.83 967.666 1156.5 951 c 132
 1170.17 934.334 1177 913.334 1177 888 c 4
 1177 867.334 1169.67 845.334 1155 822 c 5
 1191 783.334 1209 740.334 1209 693 c 4
 1209 638.334 1179.33 594.334 1120 561 c 132
 1060.67 527.666 982 511 884 511 c 6
 859 511 l 5
 867 451 885.334 393 914 337 c 5
 930 309 l 5
 964.666 243 982 192 982 156 c 4
 982 56.666 929.666 -5.33398 825 -30 c 6
 796 -37 l 5
 746 185 l 5
 561 382 l 5
 548.334 396.666 526.334 425 495 467 c 6
 467 504 l 6
 437 544.666 415.834 569.5 403.5 578.5 c 132
 391.166 587.5 371.334 592 344 592 c 6
 227 592 l 5
 191 668.666 173 747.334 173 828 c 4
 173 906.666 189.334 985.666 222 1065 c 5
255 1013 m 5
 234.334 952.334 224 894.334 224 839 c 4
 224 773.666 235.334 709.334 258 646 c 5
 342 646 394.666 641 416 631 c 132
 437.334 621 469.334 586 512 526 c 4
 538 491 538 491 589 427 c 5
 790 213 l 5
 830 28 l 5
 896.666 50.666 930 93.334 930 156 c 4
 930 188.666 918.666 224 896 262 c 6
 883 284 l 6
 831 370.666 805 453.334 805 532 c 5
 804 560 l 5
 840 560 l 6
 946 560 1025.67 570.5 1079 591.5 c 132
 1132.33 612.5 1159 644.334 1159 687 c 4
 1159 725.666 1145.17 758.334 1117.5 785 c 132
 1089.83 811.666 1056 825 1016 825 c 6
 955 826 l 5
 774 744 l 5
 801.334 702.666 838 682 884 682 c 4
 896 682 911.334 684.666 930 690 c 132
 948.666 695.334 970.666 703.334 996 714 c 5
 1043 716 l 5
 1090 666 l 5
 1009 665 l 5
 985.666 655 964.334 647.666 945 643 c 132
 925.666 638.334 908 636 892 636 c 4
 806.666 636 744.334 679.334 705 766 c 5
 739 782 l 5
 697 802.666 664.666 838.666 642 890 c 5
 681 907 l 5
 650.334 926.334 622 959.334 596 1006 c 5
 658 1035 l 5
 624 1059.67 596.666 1094.67 576 1140 c 5
 699 1195 l 5
 679 1199 662 1201 648 1201 c 6
 609 1200 l 5
 520.334 1148.67 448.334 1086.33 393 1013 c 5
 255 1013 l 5
711 868 m 5
 734.334 836.666 762.334 816.666 795 808 c 5
 944 875 l 5
 997 875 l 6
 1047 875 1085 868 1111 854 c 5
 1119.67 866 1124 877.334 1124 888 c 4
 1124 908.666 1113.83 924.166 1093.5 934.5 c 132
 1073.17 944.834 1042.67 950 1002 950 c 6
 896 950 l 5
 711 868 l 5
669 985 m 5
 672.334 981 675 977.666 677 975 c 4
 693 956.334 712 941.666 734 931 c 5
 887 999 l 5
 1049 998 l 5
 1052 1011 l 5
 1052 1050.33 1013 1070 935 1070 c 6
 860 1070 l 5
 669 985 l 5
648 1120 m 5
 655 1111 655 1111 659 1106 c 4
 671.666 1088 687.666 1071.67 707 1057 c 5
 850 1121 l 5
 942 1121 l 5
 942 1127 l 6
 942 1171.67 909.666 1194 845 1194 c 6
 812 1194 l 5
 648 1120 l 5
EndSplineSet
EndChar
StartChar: handptleft
Encoding: 69 61509 38
Width: 1926
Flags: HW
Back
1708 599 m 5
 1565 599 l 5
 1488.33 515.666 1413.67 457.334 1341 424 c 5
 1313.67 420.666 1293.67 419 1281 419 c 4
 1244.33 419 1205 425.666 1163 439 c 5
 1126 423 l 5
 1091 421 l 5
 991 421 941 457 941 529 c 4
 941 532.334 941.666 537.666 943 545 c 5
 905.666 550.334 877.666 562.166 859 580.5 c 132
 840.334 598.834 831 624 831 656 c 4
 831 670 834.666 686.334 842 705 c 5
 812 713 789.5 725.666 774.5 743 c 132
 759.5 760.334 752 782 752 808 c 4
 752 827.334 756.166 844.166 764.5 858.5 c 132
 772.834 872.834 785.334 885 802 895 c 5
 766 903 l 5
 406 907 l 6
 328.666 907 270.5 916 231.5 934 c 132
 192.5 952 173 978.666 173 1014 c 4
 173 1055.33 191.666 1084.33 229 1101 c 132
 266.334 1117.67 332 1126 426 1126 c 5
 835 1135 l 5
 876 1173 l 5
 1151 1198 l 5
 1277.67 1161.33 1390.33 1118.33 1489 1069 c 5
 1703 1069 l 5
 1738.33 993.666 1756 913 1756 827 c 4
 1756 751 1740 675 1708 599 c 5
783 1086 m 5
 417 1077 l 5
 287 1077 222 1055.67 222 1013 c 4
 222 994.334 242.166 980.166 282.5 970.5 c 132
 322.834 960.834 383.334 956 464 956 c 6
 691 955 l 5
 684.334 961 676.334 969.334 667 980 c 5
 783 1086 l 5
1674 651 m 5
 1694.67 713 1705 773.666 1705 833 c 4
 1705 895.666 1693.33 958 1670 1020 c 5
 1488 1020 l 5
 1318.67 1088 1205.33 1130.33 1148 1147 c 5
 895 1125 l 5
 738 981 l 5
 767.334 955 800.666 942 838 942 c 4
 895.334 942 952.334 971.666 1009 1031 c 5
 1069.67 996.334 1132.67 979 1198 979 c 6
 1215 980 l 5
 1213 930 l 5
 1190 929 l 6
 1130 929 1073 943.334 1019 972 c 5
 979.666 941.334 943.334 919.666 910 907 c 5
 1000 906 l 5
 1018 916 1035.67 923.334 1053 928 c 132
 1070.33 932.666 1087.33 935 1104 935 c 4
 1180.67 935 1241.67 890.666 1287 802 c 5
 1217 772 l 5
 1261 758 1301.33 719.666 1338 657 c 5
 1276 629 l 5
 1313.33 598.334 1340.33 563.334 1357 524 c 5
 1232 471 l 5
 1266 466.334 1288 464 1298 464 c 4
 1304.67 464 1316.33 465.334 1333 468 c 5
 1410.33 513.334 1479 574.334 1539 651 c 5
 1674 651 l 5
1218 822 m 5
 1192.67 865.334 1154.67 887 1104 887 c 4
 1089.33 887 1074.5 884.334 1059.5 879 c 132
 1044.5 873.666 1029.33 865.666 1014 855 c 5
 885 855 l 6
 857.666 855 837.166 851.166 823.5 843.5 c 132
 809.834 835.834 803 824.334 803 809 c 4
 803 787.666 813 771.5 833 760.5 c 132
 853 749.5 882.666 744 922 744 c 6
 1028 745 l 5
 1218 822 l 5
1265 678 m 5
 1241.67 713.334 1202.67 734.666 1148 742 c 5
 1044 696 l 5
 898 697 l 5
 888 681 883 667 883 655 c 4
 883 634.334 891.166 618.666 907.5 608 c 132
 923.834 597.334 948.334 592 981 592 c 6
 1071 594 l 5
 1265 678 l 5
1287 548 m 5
 1272.33 567.334 1250.67 586 1222 604 c 5
 1088 545 l 5
 991 545 l 5
 991 495 1022 470 1084 470 c 6
 1123 471 l 5
 1287 548 l 5
EndSplineSet
EndChar
StartChar: handptright
Encoding: 70 61510 39
Width: 1926
Flags: HW
Back
221 599 m 5
 364 599 l 5
 440.666 515.666 515.334 457.334 588 424 c 5
 615.334 420.666 635.334 419 648 419 c 4
 684.666 419 724 425.666 766 439 c 5
 803 423 l 5
 838 421 l 5
 938 421 988 457 988 529 c 4
 988 532.334 987.334 537.666 986 545 c 5
 1023.33 550.334 1051.33 562.166 1070 580.5 c 132
 1088.67 598.834 1098 624 1098 656 c 4
 1098 670 1094.33 686.334 1087 705 c 5
 1117 713 1139.5 725.666 1154.5 743 c 132
 1169.5 760.334 1177 782 1177 808 c 4
 1177 827.334 1172.83 844.166 1164.5 858.5 c 132
 1156.17 872.834 1143.67 885 1127 895 c 5
 1163 903 l 5
 1523 907 l 6
 1600.33 907 1658.5 916 1697.5 934 c 132
 1736.5 952 1756 978.666 1756 1014 c 4
 1756 1055.33 1737.33 1084.33 1700 1101 c 132
 1662.67 1117.67 1597 1126 1503 1126 c 5
 1094 1135 l 5
 1053 1173 l 5
 778 1198 l 5
 651.334 1161.33 538.666 1118.33 440 1069 c 5
 226 1069 l 5
 190.666 993.666 173 913 173 827 c 4
 173 751 189 675 221 599 c 5
1146 1086 m 5
 1512 1077 l 5
 1642 1077 1707 1055.67 1707 1013 c 4
 1707 994.334 1686.83 980.166 1646.5 970.5 c 132
 1606.17 960.834 1545.67 956 1465 956 c 6
 1238 955 l 5
 1244.67 961 1252.67 969.334 1262 980 c 5
 1146 1086 l 5
255 651 m 5
 234.334 713 224 773.666 224 833 c 4
 224 895.666 235.666 958 259 1020 c 5
 441 1020 l 5
 610.334 1088 723.666 1130.33 781 1147 c 5
 1034 1125 l 5
 1191 981 l 5
 1161.67 955 1128.33 942 1091 942 c 4
 1033.67 942 976.666 971.666 920 1031 c 5
 859.334 996.334 796.334 979 731 979 c 6
 714 980 l 5
 716 930 l 5
 739 929 l 6
 799 929 856 943.334 910 972 c 5
 949.334 941.334 985.666 919.666 1019 907 c 5
 929 906 l 5
 911 916 893.334 923.334 876 928 c 132
 858.666 932.666 841.666 935 825 935 c 4
 748.334 935 687.334 890.666 642 802 c 5
 712 772 l 5
 668 758 627.666 719.666 591 657 c 5
 653 629 l 5
 615.666 598.334 588.666 563.334 572 524 c 5
 697 471 l 5
 663 466.334 641 464 631 464 c 4
 624.334 464 612.666 465.334 596 468 c 5
 518.666 513.334 450 574.334 390 651 c 5
 255 651 l 5
711 822 m 5
 736.334 865.334 774.334 887 825 887 c 4
 839.666 887 854.5 884.334 869.5 879 c 132
 884.5 873.666 899.666 865.666 915 855 c 5
 1044 855 l 6
 1071.33 855 1091.83 851.166 1105.5 843.5 c 132
 1119.17 835.834 1126 824.334 1126 809 c 4
 1126 787.666 1116 771.5 1096 760.5 c 132
 1076 749.5 1046.33 744 1007 744 c 6
 901 745 l 5
 711 822 l 5
664 678 m 5
 687.334 713.334 726.334 734.666 781 742 c 5
 885 696 l 5
 1031 697 l 5
 1041 681 1046 667 1046 655 c 4
 1046 634.334 1037.83 618.666 1021.5 608 c 132
 1005.17 597.334 980.666 592 948 592 c 6
 858 594 l 5
 664 678 l 5
642 548 m 5
 656.666 567.334 678.334 586 707 604 c 5
 841 545 l 5
 938 545 l 5
 938 495 907 470 845 470 c 6
 806 471 l 5
 642 548 l 5
EndSplineSet
EndChar
StartChar: handptup
Encoding: 71 61511 40
Width: 1122
Flags: HW
Ref: 69 61509 S 0 -1 1 0 -246 1718
Back
353 11 m 5
 353 154 l 5
 269.666 230.666 211.334 305.334 178 378 c 5
 174.666 405.334 173 425.334 173 438 c 4
 173 474.666 179.666 514 193 556 c 5
 177 593 l 5
 175 628 l 5
 175 728 211 778 283 778 c 4
 286.334 778 291.666 777.334 299 776 c 5
 304.334 813.334 316.166 841.334 334.5 860 c 132
 352.834 878.666 378 888 410 888 c 4
 424 888 440.334 884.334 459 877 c 5
 467 907 479.666 929.5 497 944.5 c 132
 514.334 959.5 536 967 562 967 c 4
 581.334 967 598.166 962.834 612.5 954.5 c 132
 626.834 946.166 639 933.666 649 917 c 5
 657 953 l 5
 661 1313 l 6
 661 1390.33 670 1448.5 688 1487.5 c 132
 706 1526.5 732.666 1546 768 1546 c 4
 809.334 1546 838.334 1527.33 855 1490 c 132
 871.666 1452.67 880 1387 880 1293 c 5
 889 884 l 5
 927 843 l 5
 952 568 l 5
 915.334 441.334 872.334 328.666 823 230 c 5
 823 16 l 5
 747.666 -19.334 667 -37 581 -37 c 4
 505 -37 429 -21 353 11 c 5
840 936 m 5
 831 1302 l 5
 831 1432 809.666 1497 767 1497 c 4
 748.334 1497 734.166 1476.83 724.5 1436.5 c 132
 714.834 1396.17 710 1335.67 710 1255 c 6
 709 1028 l 5
 715 1034.67 723.334 1042.67 734 1052 c 5
 840 936 l 5
405 45 m 5
 467 24.334 527.666 14 587 14 c 4
 649.666 14 712 25.666 774 49 c 5
 774 231 l 5
 842 400.334 884.334 513.666 901 571 c 5
 879 824 l 5
 735 981 l 5
 709 951.666 696 918.334 696 881 c 4
 696 823.666 725.666 766.666 785 710 c 5
 750.334 649.334 733 586.334 733 521 c 6
 734 504 l 5
 684 506 l 5
 683 529 l 6
 683 589 697.334 646 726 700 c 5
 695.334 739.334 673.666 775.666 661 809 c 5
 660 719 l 5
 670 701 677.334 683.334 682 666 c 132
 686.666 648.666 689 631.666 689 615 c 4
 689 538.334 644.666 477.334 556 432 c 5
 526 502 l 5
 512 458 473.666 417.666 411 381 c 5
 383 443 l 5
 352.334 405.666 317.334 378.666 278 362 c 5
 225 487 l 5
 220.334 453 218 431 218 421 c 4
 218 414.334 219.334 402.666 222 386 c 5
 267.334 308.666 328.334 240 405 180 c 5
 405 45 l 5
576 501 m 5
 619.334 526.334 641 564.334 641 615 c 4
 641 629.666 638.334 644.5 633 659.5 c 132
 627.666 674.5 619.666 689.666 609 705 c 5
 609 834 l 6
 609 861.334 605.166 881.834 597.5 895.5 c 132
 589.834 909.166 578.334 916 563 916 c 4
 541.666 916 525.5 906 514.5 886 c 132
 503.5 866 498 836.334 498 797 c 6
 499 691 l 5
 576 501 l 5
432 454 m 5
 467.334 477.334 488.666 516.334 496 571 c 5
 450 675 l 5
 451 821 l 5
 435 831 421 836 409 836 c 4
 388.334 836 372.666 827.834 362 811.5 c 132
 351.334 795.166 346 770.666 346 738 c 6
 348 648 l 5
 432 454 l 5
302 432 m 5
 321.334 446.666 340 468.334 358 497 c 5
 299 631 l 5
 299 728 l 5
 249 728 224 697 224 635 c 6
 225 596 l 5
 302 432 l 5
EndSplineSet
EndChar
StartChar: handptdwn
Encoding: 72 61512 41
Width: 1122
Flags: HW
Back
772 1498 m 5
 772 1355 l 5
 855.334 1278.33 913.666 1203.67 947 1131 c 5
 950.334 1103.67 952 1083.67 952 1071 c 4
 952 1034.33 945.334 995 932 953 c 5
 948 916 l 5
 950 881 l 5
 950 781 914 731 842 731 c 4
 838.666 731 833.334 731.666 826 733 c 5
 820.666 695.666 808.834 667.666 790.5 649 c 132
 772.166 630.334 747 621 715 621 c 4
 701 621 684.666 624.666 666 632 c 5
 658 602 645.334 579.5 628 564.5 c 132
 610.666 549.5 589 542 563 542 c 4
 543.666 542 526.834 546.166 512.5 554.5 c 132
 498.166 562.834 486 575.334 476 592 c 5
 468 556 l 5
 464 196 l 6
 464 118.666 455 60.5 437 21.5 c 132
 419 -17.5 392.334 -37 357 -37 c 4
 315.666 -37 286.666 -18.334 270 19 c 132
 253.334 56.334 245 122 245 216 c 5
 236 625 l 5
 198 666 l 5
 173 941 l 5
 209.666 1067.67 252.666 1180.33 302 1279 c 5
 302 1493 l 5
 377.334 1528.33 458 1546 544 1546 c 4
 620 1546 696 1530 772 1498 c 5
285 573 m 5
 294 207 l 5
 294 77 315.334 12 358 12 c 4
 376.666 12 390.834 32.166 400.5 72.5 c 132
 410.166 112.834 415 173.334 415 254 c 6
 416 481 l 5
 410 474.334 401.666 466.334 391 457 c 5
 285 573 l 5
720 1464 m 5
 658 1484.67 597.334 1495 538 1495 c 4
 475.334 1495 413 1483.33 351 1460 c 5
 351 1278 l 5
 283 1108.67 240.666 995.334 224 938 c 5
 246 685 l 5
 390 528 l 5
 416 557.334 429 590.666 429 628 c 4
 429 685.334 399.334 742.334 340 799 c 5
 374.666 859.666 392 922.666 392 988 c 6
 391 1005 l 5
 441 1003 l 5
 442 980 l 6
 442 920 427.666 863 399 809 c 5
 429.666 769.666 451.334 733.334 464 700 c 5
 465 790 l 5
 455 808 447.666 825.666 443 843 c 132
 438.334 860.334 436 877.334 436 894 c 4
 436 970.666 480.334 1031.67 569 1077 c 5
 599 1007 l 5
 613 1051 651.334 1091.33 714 1128 c 5
 742 1066 l 5
 772.666 1103.33 807.666 1130.33 847 1147 c 5
 900 1022 l 5
 904.666 1056 907 1078 907 1088 c 4
 907 1094.67 905.666 1106.33 903 1123 c 5
 857.666 1200.33 796.666 1269 720 1329 c 5
 720 1464 l 5
549 1008 m 5
 505.666 982.666 484 944.666 484 894 c 4
 484 879.334 486.666 864.5 492 849.5 c 132
 497.334 834.5 505.334 819.334 516 804 c 5
 516 675 l 6
 516 647.666 519.834 627.166 527.5 613.5 c 132
 535.166 599.834 546.666 593 562 593 c 4
 583.334 593 599.5 603 610.5 623 c 132
 621.5 643 627 672.666 627 712 c 6
 626 818 l 5
 549 1008 l 5
693 1055 m 5
 657.666 1031.67 636.334 992.666 629 938 c 5
 675 834 l 5
 674 688 l 5
 690 678 704 673 716 673 c 4
 736.666 673 752.334 681.166 763 697.5 c 132
 773.666 713.834 779 738.334 779 771 c 6
 777 861 l 5
 693 1055 l 5
823 1077 m 5
 803.666 1062.33 785 1040.67 767 1012 c 5
 826 878 l 5
 826 781 l 5
 876 781 901 812 901 874 c 6
 900 913 l 5
 823 1077 l 5
EndSplineSet
EndChar
StartChar: handhalt
Encoding: 73 61513 42
Width: 1824
Flags: HW
Back
1058 170 m 5
 1058 27 l 5
 973.334 -7.66602 893 -25 817 -25 c 4
 738.334 -25 662.334 -7.66602 589 27 c 5
 589 137 l 5
 502 237 l 5
 451.334 331.666 416 453.666 396 603 c 5
 407 723 l 5
 216 1055 l 6
 187.334 1105 173 1145 173 1175 c 4
 173 1201.67 181.834 1224.17 199.5 1242.5 c 132
 217.166 1260.83 238.666 1270 264 1270 c 4
 301.334 1270 338.666 1239.33 376 1178 c 6
 549 893 l 5
 442 1301 l 6
 428.666 1351.67 422 1386.67 422 1406 c 4
 422 1443.33 430.166 1471.17 446.5 1489.5 c 132
 462.834 1507.83 487.334 1517 520 1517 c 4
 576 1517 616.334 1474.33 641 1389 c 6
 761 970 l 5
 761 1448 l 6
 761 1500 770.334 1539 789 1565 c 132
 807.666 1591 835.666 1604 873 1604 c 4
 947 1604 984 1545.33 984 1428 c 5
 973 950 l 5
 1098 1322 l 6
 1134.67 1431.33 1179.67 1486 1233 1486 c 4
 1263.67 1486 1286.67 1478.33 1302 1463 c 132
 1317.33 1447.67 1325 1424.33 1325 1393 c 4
 1325 1361 1319.67 1323.33 1309 1280 c 5
 1185 798 l 5
 1191.67 775.334 1197.33 740.334 1202 693 c 5
 1223.33 705 1253 717.666 1291 731 c 5
 1318.33 777 1348.67 811.5 1382 834.5 c 132
 1415.33 857.5 1452 869 1492 869 c 4
 1530.67 869 1577.67 845.334 1633 798 c 6
 1653 782 l 5
 1437 577 l 5
 1253 331 l 5
 1180.33 263 1115.33 209.334 1058 170 c 5
1010 194 m 5
 1100 264 1172.67 326.334 1228 381 c 5
 1396 606 l 5
 1581 779 l 5
 1549 805.666 1518.67 819 1490 819 c 4
 1458 819 1428.33 808.5 1401 787.5 c 132
 1373.67 766.5 1348.67 734.666 1326 692 c 5
 1208.67 655.334 1110 588.666 1030 492 c 5
 992 522 l 5
 1032 582 1086.67 630.666 1156 668 c 5
 1150 715.334 1141.33 758.666 1130 798 c 5
 1256 1269 l 5
 1269.33 1317 1276 1352 1276 1374 c 4
 1276 1394 1272.33 1408.83 1265 1418.5 c 132
 1257.67 1428.17 1246.67 1433 1232 1433 c 4
 1204 1433 1178.33 1398.67 1155 1330 c 6
 1010 900 l 5
 924 900 l 5
 936 1391 l 5
 937 1423 l 5
 937 1510.33 916 1554 874 1554 c 4
 853.334 1554 837.666 1546.5 827 1531.5 c 132
 816.334 1516.5 811 1493.67 811 1463 c 5
 812 1400 l 5
 812 900 l 5
 733 886 l 5
 608 1345 l 5
 586 1427 557.334 1468 522 1468 c 4
 504.666 1468 491.666 1462.83 483 1452.5 c 132
 474.334 1442.17 470 1426.33 470 1405 c 4
 470 1391 476 1362.67 488 1320 c 5
 622 833 l 5
 549 798 l 5
 332 1151 l 5
 304.666 1196.33 281 1219 261 1219 c 4
 247.666 1219 237.666 1215.33 231 1208 c 132
 224.334 1200.67 221 1189.33 221 1174 c 4
 221 1154.67 233.334 1123.67 258 1081 c 6
 458 738 l 5
 446 603 l 5
 466.666 465.666 501 350.334 549 257 c 5
 641 147 l 5
 641 60 l 5
 699.666 37.334 761.666 26 827 26 c 4
 881 26 942 37.334 1010 60 c 5
 1010 194 l 5
EndSplineSet
EndChar
StartChar: smileface
Encoding: 74 9786 43
Width: 1828
VWidth: 1000
Flags: HW
Fore
862 -38 m 0
 628 -38 436 36 290 184 c 1
 142 330 68 520 68 756 c 128
 68 990 142 1180 288 1328 c 128
 436 1474 628 1548 862 1548 c 128
 1096 1548 1286 1474 1434 1328 c 128
 1582 1180 1654 990 1654 756 c 128
 1654 520 1582 330 1434 182 c 128
 1286 34 1096 -38 862 -38 c 0
862 62 m 0
 1066 62 1232 126 1362 256 c 128
 1490 384 1554 550 1554 756 c 128
 1554 960 1490 1126 1362 1256 c 128
 1232 1384 1066 1448 862 1448 c 0
 660 1448 494 1384 362 1254 c 128
 232 1122 168 956 168 756 c 128
 168 554 232 388 362 258 c 128
 494 126 660 62 862 62 c 0
394 708 m 1
 456 708 l 1
 502 490 636 380 858 380 c 0
 1084 380 1218 490 1264 708 c 1
 1330 708 l 1
 1312 572 1264 464 1186 382 c 0
 1104 298 994 256 858 256 c 0
 724 256 616 298 532 382 c 0
 454 464 406 574 394 708 c 1
604 884 m 0
 572 884 542 898 516 924 c 128
 492 948 480 978 480 1012 c 128
 480 1044 492 1074 516 1100 c 128
 542 1124 572 1136 604 1136 c 128
 638 1136 668 1124 692 1100 c 128
 718 1074 732 1044 732 1012 c 0
 732 976 718 946 694 922 c 128
 670 898 640 884 604 884 c 0
1114 884 m 0
 1080 884 1050 898 1024 924 c 128
 998 948 986 978 986 1012 c 0
 986 1046 998 1076 1022 1100 c 128
 1048 1124 1078 1136 1114 1136 c 128
 1148 1136 1178 1124 1202 1100 c 1
 1226 1076 1240 1046 1240 1012 c 0
 1240 978 1226 948 1202 924 c 128
 1176 898 1146 884 1114 884 c 0
EndSplineSet
Back
863 -37 m 0
 648.334 -37 465.166 38.834 313.5 190.5 c 128
 161.834 342.166 86 525.334 86 740 c 0
 86 954.666 161.834 1137.83 313.5 1289.5 c 128
 465.166 1441.17 648.334 1517 863 1517 c 0
 1077.67 1517 1260.83 1441.17 1412.5 1289.5 c 128
 1564.17 1137.83 1640 954.666 1640 740 c 0
 1640 525.334 1564.17 342.166 1412.5 190.5 c 128
 1260.83 38.834 1077.67 -37 863 -37 c 0
863 62 m 0
 1050.33 62 1210.17 128.166 1342.5 260.5 c 128
 1474.83 392.834 1541 552.666 1541 740 c 0
 1541 927.334 1474.83 1087.33 1342.5 1220 c 128
 1210.17 1352.67 1050.33 1419 863 1419 c 0
 675.666 1419 515.834 1352.67 383.5 1220 c 128
 251.166 1087.33 185 927.334 185 740 c 0
 185 552.666 251.166 392.834 383.5 260.5 c 128
 515.834 128.166 675.666 62 863 62 c 0
407 697 m 1
 468 697 l 1
 516.666 483 648.334 376 863 376 c 0
 1077.67 376 1209.33 483 1258 697 c 1
 1320 697 l 1
 1304.67 558.334 1256.5 449.666 1175.5 371 c 128
 1094.5 292.334 990.334 253 863 253 c 0
 735.666 253 631.666 292.334 551 371 c 128
 470.334 449.666 422.334 558.334 407 697 c 1
616 864 m 0
 582 864 553 876 529 900 c 128
 505 924 493 953 493 987 c 0
 493 1021 505 1050 529 1074 c 128
 553 1098 582 1110 616 1110 c 0
 650.666 1110 680 1098 704 1074 c 128
 728 1050 740 1021 740 987 c 0
 740 953 727.834 924 703.5 900 c 128
 679.166 876 650 864 616 864 c 0
1110 864 m 0
 1076 864 1046.83 876 1022.5 900 c 128
 998.166 924 986 953 986 987 c 0
 986 1021 998.166 1050 1022.5 1074 c 128
 1046.83 1098 1076 1110 1110 1110 c 0
 1144 1110 1173 1098 1197 1074 c 128
 1221 1050 1233 1021 1233 987 c 0
 1233 953 1221 924 1197 900 c 128
 1173 876 1144 864 1110 864 c 0
EndSplineSet
EndChar
StartChar: neutralface
Encoding: 75 61515 44
Width: 2048
Flags: H
Back
863 -37 m 0
 648.334 -37 465.166 38.834 313.5 190.5 c 128
 161.834 342.166 86 525.334 86 740 c 0
 86 954.666 161.834 1137.83 313.5 1289.5 c 128
 465.166 1441.17 648.334 1517 863 1517 c 0
 1077.67 1517 1260.83 1441.17 1412.5 1289.5 c 128
 1564.17 1137.83 1640 954.666 1640 740 c 0
 1640 525.334 1564.17 342.166 1412.5 190.5 c 128
 1260.83 38.834 1077.67 -37 863 -37 c 0
863 62 m 0
 1050.33 62 1210.17 128.166 1342.5 260.5 c 128
 1474.83 392.834 1541 552.666 1541 740 c 0
 1541 927.334 1474.83 1087.33 1342.5 1220 c 128
 1210.17 1352.67 1050.33 1419 863 1419 c 0
 675.666 1419 515.834 1352.67 383.5 1220 c 128
 251.166 1087.33 185 927.334 185 740 c 0
 185 552.666 251.166 392.834 383.5 260.5 c 128
 515.834 128.166 675.666 62 863 62 c 0
419 475 m 1
 419 574 l 1
 1307 574 l 1
 1307 475 l 1
 419 475 l 1
616 864 m 0
 582 864 553 876 529 900 c 128
 505 924 493 953 493 987 c 0
 493 1021 505 1050 529 1074 c 128
 553 1098 582 1110 616 1110 c 0
 650.666 1110 680 1098 704 1074 c 128
 728 1050 740 1021 740 987 c 0
 740 953 727.834 924 703.5 900 c 128
 679.166 876 650 864 616 864 c 0
1110 864 m 0
 1076 864 1046.83 876 1022.5 900 c 128
 998.166 924 986 953 986 987 c 0
 986 1021 998.166 1050 1022.5 1074 c 128
 1046.83 1098 1076 1110 1110 1110 c 0
 1144 1110 1173 1098 1197 1074 c 128
 1221 1050 1233 1021 1233 987 c 0
 1233 953 1221 924 1197 900 c 128
 1173 876 1144 864 1110 864 c 0
EndSplineSet
EndChar
StartChar: frownface
Encoding: 76 61516 45
Width: 1748
VWidth: 1000
Flags: HW
Fore
870 -38 m 0
 642 -38 456 34 314 178 c 1
 168 322 94 508 94 736 c 128
 94 964 166 1150 312 1294 c 128
 456 1438 642 1510 870 1510 c 128
 1098 1510 1284 1438 1430 1294 c 128
 1572 1150 1644 964 1644 736 c 128
 1644 508 1572 320 1430 176 c 128
 1284 32 1098 -38 870 -38 c 0
870 60 m 0
 1070 60 1232 122 1358 248 c 128
 1484 374 1546 536 1546 736 c 128
 1546 934 1484 1098 1358 1222 c 128
 1232 1348 1070 1412 870 1412 c 0
 674 1412 512 1348 386 1220 c 128
 258 1094 194 932 194 736 c 128
 194 538 258 376 386 250 c 128
 512 122 674 60 870 60 c 0
414 248 m 1
 428 382 474 488 550 570 c 128
 630 650 736 690 868 690 c 128
 1000 690 1108 648 1188 566 c 0
 1264 488 1310 382 1328 248 c 1
 1264 248 l 1
 1218 460 1086 568 868 568 c 0
 652 568 520 460 476 248 c 1
 414 248 l 1
620 862 m 0
 588 862 560 874 534 900 c 128
 510 924 498 952 498 986 c 128
 498 1018 510 1046 534 1072 c 128
 560 1096 588 1108 620 1108 c 128
 654 1108 682 1096 706 1072 c 128
 732 1046 744 1018 744 986 c 0
 744 950 732 922 706 898 c 128
 684 874 654 862 620 862 c 0
1116 862 m 0
 1084 862 1054 874 1028 900 c 128
 1004 924 992 952 992 986 c 0
 992 1020 1004 1048 1028 1074 c 128
 1052 1096 1082 1108 1116 1108 c 128
 1150 1108 1178 1096 1202 1072 c 1
 1226 1048 1240 1020 1240 986 c 0
 1240 952 1226 924 1202 900 c 128
 1178 874 1148 862 1116 862 c 0
EndSplineSet
Back
863 -37 m 0
 648.334 -37 465.166 38.834 313.5 190.5 c 128
 161.834 342.166 86 525.334 86 740 c 0
 86 954.666 161.834 1137.83 313.5 1289.5 c 128
 465.166 1441.17 648.334 1517 863 1517 c 0
 1077.67 1517 1260.83 1441.17 1412.5 1289.5 c 128
 1564.17 1137.83 1640 954.666 1640 740 c 0
 1640 525.334 1564.17 342.166 1412.5 190.5 c 128
 1260.83 38.834 1077.67 -37 863 -37 c 0
863 62 m 0
 1050.33 62 1210.17 128.166 1342.5 260.5 c 128
 1474.83 392.834 1541 552.666 1541 740 c 0
 1541 927.334 1474.83 1087.33 1342.5 1220 c 128
 1210.17 1352.67 1050.33 1419 863 1419 c 0
 675.666 1419 515.834 1352.67 383.5 1220 c 128
 251.166 1087.33 185 927.334 185 740 c 0
 185 552.666 251.166 392.834 383.5 260.5 c 128
 515.834 128.166 675.666 62 863 62 c 0
468 339 m 1
 407 339 l 1
 421.666 477.666 469.5 586.334 550.5 665 c 128
 631.5 743.666 735.666 783 863 783 c 0
 990.334 783 1094.5 743.666 1175.5 665 c 128
 1256.5 586.334 1304.67 477.666 1320 339 c 1
 1258 339 l 1
 1210 553 1078.33 660 863 660 c 0
 648.334 660 516.666 553 468 339 c 1
616 864 m 0
 582 864 553 876 529 900 c 128
 505 924 493 953 493 987 c 0
 493 1021 505 1050 529 1074 c 128
 553 1098 582 1110 616 1110 c 0
 650.666 1110 680 1098 704 1074 c 128
 728 1050 740 1021 740 987 c 0
 740 953 727.834 924 703.5 900 c 128
 679.166 876 650 864 616 864 c 0
1110 864 m 0
 1076 864 1046.83 876 1022.5 900 c 128
 998.166 924 986 953 986 987 c 0
 986 1021 998.166 1050 1022.5 1074 c 128
 1046.83 1098 1076 1110 1110 1110 c 0
 1144 1110 1173 1098 1197 1074 c 128
 1221 1050 1233 1021 1233 987 c 0
 1233 953 1221 924 1197 900 c 128
 1173 876 1144 864 1110 864 c 0
EndSplineSet
EndChar
StartChar: bomb
Encoding: 77 61517 46
Width: 2048
Flags: H
Back
876 1128 m 1
 876 992 l 1
 1114.67 894.666 1234 728.334 1234 493 c 0
 1234 346.334 1182.17 221.334 1078.5 118 c 128
 974.834 14.666 849.666 -37 703 -37 c 0
 557 -37 432.166 14.666 328.5 118 c 128
 224.834 221.334 173 345.666 173 491 c 0
 173 720.334 292.334 887.334 531 992 c 1
 531 1128 l 1
 564.334 1145.33 605.666 1158 655 1166 c 1
 655 1187 l 2
 655 1255.67 677.334 1313.5 722 1360.5 c 128
 766.666 1407.5 821.334 1431 886 1431 c 0
 973.334 1431 1078.67 1378 1202 1272 c 2
 1255 1226 l 2
 1383 1116 1487.33 1061 1568 1061 c 0
 1595.33 1061 1629.33 1071.67 1670 1093 c 0
 1676 1096.33 1684 1098 1694 1098 c 0
 1724.67 1098 1740 1085.67 1740 1061 c 0
 1740 1035 1721.83 1012 1685.5 992 c 128
 1649.17 972 1607.67 962 1561 962 c 0
 1461.67 962 1338.33 1024 1191 1148 c 2
 1134 1196 l 2
 1026 1286.67 942.666 1332 884 1332 c 0
 797.334 1332 754 1276.67 754 1166 c 1
 797.334 1156.67 838 1144 876 1128 c 1
1350 1484 m 1
 1390 1517 l 1
 1636 1193 l 1
 1350 1484 l 1
1696 1517 m 1
 1747 1517 l 1
 1723 1224 l 1
 1696 1517 l 1
2051 1517 m 1
 2092 1486 l 1
 1812 1192 l 1
 2051 1517 l 1
2143 1186 m 1
 2151 1139 l 1
 1857 1112 l 1
 2143 1186 l 1
2201 838 m 1
 2177 797 l 1
 1840 1022 l 1
 2201 838 l 1
1891 696 m 1
 1843 679 l 1
 1769 963 l 1
 1891 696 l 1
1553 576 m 1
 1506 593 l 1
 1673 965 l 1
 1553 576 l 1
EndSplineSet
EndChar
StartChar: skullcrossbones
Encoding: 78 61518 47
Width: 1328
Flags: HW
Fore
390 496 m 25
 686 362 l 25
 956 496 l 25
 1034 576 l 24
 1082 576 1118 550 1140 498 c 24
 1166 434 1160 392 1122 368 c 24
 1068 336 1026 350 996 412 c 25
 776 312 l 25
 984 176 l 25
 1156 126 l 24
 1168 108 1144 72 1084 20 c 24
 1036 -20 1000 -34 978 -24 c 24
 924 0 908 38 928 90 c 25
 676 260 l 25
 432 92 l 25
 366 -38 l 24
 348 -48 318 -26 276 26 c 24
 226 88 206 126 216 144 c 24
 256 208 308 220 372 180 c 25
 588 312 l 25
 328 414 l 25
 198 386 l 24
 226 492 l 24
 244 570 254 608 256 608 c 24
 390 496 l 25
486 770 m 25
 602 684 l 25
 754 684 l 25
 858 776 l 25
 890 756 l 25
 730 580 l 25
 618 576 l 25
 462 736 l 25
 486 770 l 25
334 1174 m 16
 302 1402 416 1516 676 1516 c 0
 918 1512 1034 1400 1024 1180 c 0
 1022 1114 1000 1048 962 984 c 9
 938 872 l 25
 780 754 l 25
 576 750 l 25
 418 872 l 17
 372 998 344 1098 334 1174 c 16
684 964 m 25
 606 844 l 25
 676 870 l 25
 740 850 l 25
 684 964 l 25
912 1050 m 24
 910 1114 880 1148 822 1150 c 24
 766 1152 740 1120 742 1054 c 24
 742 990 770 956 826 954 c 24
 884 954 912 986 912 1050 c 24
620 1050 m 24
 620 1114 590 1148 530 1150 c 24
 476 1152 450 1120 450 1054 c 24
 452 990 480 956 534 954 c 24
 594 954 622 986 620 1050 c 24
EndSplineSet
Back
800 805 m 1
 780 754 l 1
 754.666 745.334 720.334 741 677 741 c 0
 655.666 741 636.334 742.166 619 744.5 c 128
 601.666 746.834 586.666 750 574 754 c 1
 554 805 l 1
 414 872 l 1
 401 956 l 1
 399 972 384.666 1003.33 358 1050 c 0
 337.334 1084.67 327 1140.33 327 1217 c 0
 327 1306.33 359.334 1378.67 424 1434 c 128
 488.666 1489.33 573 1517 677 1517 c 0
 781 1517 865.334 1489.33 930 1434 c 128
 994.666 1378.67 1027 1306.33 1027 1217 c 0
 1027 1140.33 1005.67 1065.33 963 992 c 0
 959 984 955.666 972 953 956 c 1
 940 872 l 1
 800 805 l 1
866 782 m 1
 841 683 l 1
 780 630 l 1
 769.334 609.334 755.166 593.834 737.5 583.5 c 128
 719.834 573.166 699 568 675 568 c 0
 627 568 592 588.666 570 630 c 1
 509 683 l 1
 484 782 l 1
 520 791 l 1
 526 776 526 776 529 768 c 0
 544.334 732.666 561.166 709.334 579.5 698 c 128
 597.834 686.666 628.334 681 671 681 c 0
 719 681 752.166 686.334 770.5 697 c 128
 788.834 707.666 805.666 731.334 821 768 c 0
 824 776 824 776 830 791 c 1
 866 782 l 1
681 369 m 1
 724.334 393 800.334 428 909 474 c 0
 914.334 476.666 928.334 482.666 951 492 c 1
 989.666 531.334 1021.67 560.834 1047 580.5 c 128
 1072.33 600.166 1090.67 610 1102 610 c 0
 1116 610 1126.33 605.666 1133 597 c 128
 1139.67 588.334 1143 575 1143 557 c 0
 1143 541.666 1140.67 520 1136 492 c 1
 1164.67 456 1179 429.334 1179 412 c 0
 1179 397.334 1175 386.166 1167 378.5 c 128
 1159 370.834 1147 367 1131 367 c 0
 1123 367 1110.83 371.166 1094.5 379.5 c 128
 1078.17 387.834 1057.33 400 1032 416 c 1
 970.666 404.666 882.666 370.334 768 313 c 1
 790 300 790 300 800 294 c 0
 840 271.334 889.334 241 948 203 c 0
 955.334 198.334 972 188.334 998 173 c 1
 1119.33 159 1180 128.334 1180 81 c 0
 1180 50.334 1147.33 29.666 1082 19 c 1
 1051.33 -18.334 1026 -37 1006 -37 c 0
 982 -37 958.666 -5.66602 936 57 c 0
 934 63.666 930.334 73.334 925 86 c 1
 831.666 162.666 747.666 220.666 673 260 c 1
 581.666 208.666 497 147.334 419 76 c 1
 408.334 0.666016 385.666 -37 351 -37 c 0
 329 -37 303.666 -15.666 275 27 c 1
 207 27 173 45.666 173 83 c 0
 173 110.334 185.666 130.166 211 142.5 c 128
 236.334 154.834 289.666 167 371 179 c 1
 431.666 223.666 503.666 268.334 587 313 c 1
 475 369 383.666 403.334 313 416 c 1
 296.334 401.334 281 390.334 267 383 c 128
 253 375.666 240 372 228 372 c 0
 210.666 372 197.5 375.666 188.5 383 c 128
 179.5 390.334 175 401 175 415 c 0
 175 427.666 189.666 453.334 219 492 c 1
 212.334 519.334 209 540 209 554 c 0
 209 574 213 588.834 221 598.5 c 128
 229 608.166 240.666 613 256 613 c 0
 271.334 613 291.334 603 316 583 c 128
 340.666 563 370.334 532.666 405 492 c 1
 481.666 464.666 573.666 423.666 681 369 c 1
448 1054 m 0
 448 990 475.666 958 531 958 c 0
 587 958 615 992.334 615 1061 c 0
 615 1117.67 588 1146 534 1146 c 0
 505.334 1146 483.834 1138.33 469.5 1123 c 128
 455.166 1107.67 448 1084.67 448 1054 c 0
744 1054 m 0
 744 990 772 958 828 958 c 0
 884 958 912 992.334 912 1061 c 0
 912 1089.67 905.166 1111 891.5 1125 c 128
 877.834 1139 857.334 1146 830 1146 c 0
 772.666 1146 744 1115.33 744 1054 c 0
678 973 m 1
 666 953 653.666 935.334 641 920 c 0
 625 902 617 888 617 878 c 0
 617 867.334 620.166 859.334 626.5 854 c 128
 632.834 848.666 642 846 654 846 c 0
 661.334 846 669.334 848.666 678 854 c 1
 686.666 848.666 694.666 846 702 846 c 0
 726.666 846 739 857 739 879 c 0
 739 888.334 731 902 715 920 c 0
 701.666 936 689.334 953.666 678 973 c 1
EndSplineSet
EndChar
StartChar: flag
Encoding: 79 61519 48
Width: 2048
Flags: H
Fore
830 580 m 25
 826 374 l 25
 938 428 988 472 974 506 c 0
 962 542 912 566 830 580 c 25
204 -204 m 25
 204 1570 l 25
 302 1570 l 25
 300 1320 l 25
 436 1430 562 1482 676 1474 c 0
 886 1464 1000 1392 1016 1260 c 0
 1016 1006 l 25
 1070 972 1158 970 1276 996 c 0
 1422 1028 1518 1068 1564 1114 c 0
 1566 236 l 16
 1470 142 1340 98 1176 100 c 24
 962 104 828 148 774 236 c 0
 780 580 l 16
 662 596 558 580 464 534 c 8
 384 494 330 456 300 420 c 8
 300 -204 l 25
 204 -204 l 25
EndSplineSet
Back
198 -210 m 1
 198 1459 l 1
 181.334 1473.67 173 1491 173 1511 c 0
 173 1556.33 197.334 1579 246 1579 c 0
 296 1579 321 1556.33 321 1511 c 0
 321 1493 312.666 1475.67 296 1459 c 1
 296 1316 l 1
 422.666 1425.33 558.334 1480 703 1480 c 0
 909 1480 1012 1391.33 1012 1214 c 2
 1012 998 l 1
 1221.33 962.666 1406.33 1003 1567 1119 c 1
 1567 235 l 1
 1451.67 144.334 1317.33 99 1164 99 c 0
 1059.33 99 968.834 114.334 892.5 145 c 128
 816.166 175.666 778 212 778 254 c 2
 778 586 l 1
 744.666 590 720.666 592 706 592 c 0
 552.666 592 416 534.334 296 419 c 1
 296 -210 l 1
 198 -210 l 1
296 489 m 1
 417.334 591 555 642 709 642 c 0
 799.666 642 884.334 624.334 963 589 c 1
 963 1207 l 2
 963 1356.33 876.334 1431 703 1431 c 0
 564.334 1431 428.666 1371.33 296 1252 c 1
 296 489 l 1
1518 1024 m 1
 1396.67 966 1277.67 937 1161 937 c 0
 1105 937 1055.33 941 1012 949 c 1
 1012 486 l 2
 1012 433.334 983.334 393.666 926 367 c 2
 899 355 l 2
 842.334 329 814 302.666 814 276 c 0
 814 242.666 850.5 213 923.5 187 c 128
 996.5 161 1078.67 148 1170 148 c 0
 1298 148 1414 184.334 1518 257 c 1
 1518 1024 l 1
827 374 m 1
 925.666 422 975 462.334 975 495 c 0
 975 537.666 925.666 565.666 827 579 c 1
 827 374 l 1
EndSplineSet
EndChar
StartChar: pennant
Encoding: 80 61520 49
Width: 2048
Flags: H
Fore
800 840 m 9
 766 638 l 25
 854 670 902 712 906 766 c 8
 908 806 874 832 800 840 c 9
364 0 m 25
 170 1474 l 25
 194 1666 l 25
 280 1464 l 25
 294 1340 l 25
 354 1394 l 16
 762 1540 990 1482 1040 1220 c 0
 1048 1180 1034 1108 1000 1006 c 25
 1076 938 1198 884 1366 840 c 0
 1622 772 1860 802 2084 930 c 17
 1828 608 1572 428 1314 386 c 0
 938 322 732 348 694 464 c 0
 740 826 l 25
 710 844 646 840 550 812 c 8
 482 790 424 748 374 690 c 9
 464 0 l 25
 364 0 l 25
EndSplineSet
Back
458 0 m 1
 358 0 l 1
 173 1468 l 1
 195 1666 l 1
 274 1468 l 1
 290 1346 l 1
 415.334 1435.33 550 1480 694 1480 c 0
 792.666 1480 874.666 1456.67 940 1410 c 128
 1005.33 1363.33 1038 1304.67 1038 1234 c 0
 1038 1208.67 1034.33 1177 1027 1139 c 2
 1002 1010 l 1
 1177.33 873.334 1395 805 1655 805 c 0
 1817.67 805 1960.33 846.334 2083 929 c 1
 1944.33 739 1783.67 594.834 1601 496.5 c 128
 1418.33 398.166 1219.67 349 1005 349 c 0
 909.666 349 832.334 362.334 773 389 c 0
 713 415.666 686 449 692 489 c 1
 742 849 l 1
 612 849 488.666 796.666 372 692 c 1
 458 0 l 1
358 801 m 1
 482.666 899.666 610.666 949 742 949 c 0
 820 949 882.666 930 930 892 c 1
 967 1074 l 2
 975.666 1117.33 980 1152.33 980 1179 c 0
 980 1237 952 1284.67 896 1322 c 128
 840 1359.33 768.334 1378 681 1378 c 0
 577 1378 450.666 1334 302 1246 c 1
 358 801 l 1
764 635 m 1
 777.334 642.334 787.666 647.666 795 651 c 0
 869 688.334 906 724.334 906 759 c 0
 906 800.334 867.666 828.666 791 844 c 1
 764 635 l 1
983 904 m 1
 941 708 l 2
 934.334 677.334 893.666 643.666 819 607 c 0
 805 600 805 600 777 585 c 1
 767 573.666 762 562.334 762 551 c 0
 762 517.666 780.834 492.666 818.5 476 c 128
 856.166 459.334 912.334 451 987 451 c 0
 1281.67 451 1533.67 536.666 1743 708 c 1
 1693 704.666 1657.33 703 1636 703 c 0
 1372.67 703 1155 770 983 904 c 1
EndSplineSet
EndChar
StartChar: airplane
Encoding: 81 61521 50
Width: 1802
VWidth: 1000
Flags: HW
Fore
772 1394 m 1
 814 1348 860 1276 916 1178 c 0
 976 1074 1022 1002 1054 960 c 0
 1106 896 1180 856 1274 842 c 1
 1506 830 l 1
 1586 822 1640 792 1668 740 c 1
 1644 690 1594 660 1518 648 c 0
 1494 644 1432 642 1332 642 c 0
 1238 642 1174 630 1138 608 c 0
 1100 584 1036 502 952 364 c 0
 852 200 792 106 772 82 c 1
 742 70 712 64 680 66 c 2
 606 68 l 1
 580 90 l 1
 594 136 646 218 734 338 c 0
 808 438 846 528 846 602 c 1
 832 624 l 1
 760 648 622 666 422 678 c 1
 392 664 l 1
 376 622 352 564 322 494 c 1
 288 480 l 1
 200 488 l 1
 166 514 l 1
 180 556 196 610 212 682 c 1
 192 692 160 710 118 738 c 1
 128 746 144 756 166 766 c 1
 144 756 144 756 166 766 c 1
 144 756 144 756 166 766 c 1
 144 756 144 756 168 766 c 128
 190 776 204 784 212 792 c 1
 212 814 204 844 190 882 c 128
 176 920 168 946 166 962 c 1
 200 988 l 1
 288 996 l 1
 324 978 l 1
 338 936 362 880 394 808 c 1
 424 796 l 1
 490 796 564 802 646 814 c 0
 758 828 824 848 846 872 c 1
 846 948 808 1036 732 1136 c 0
 646 1254 594 1338 580 1388 c 1
 588 1402 l 1
 604 1408 626 1412 652 1412 c 0
 698 1412 738 1406 772 1394 c 1
EndSplineSet
Back
272 740 m 1
 173 962 l 1
 284 962 l 1
 389 802 l 1
 963 820 l 1
 691 1480 l 1
 839 1480 l 1
 1259 833 l 1
 1356 834 l 2
 1413.33 834 1465.33 826.666 1512 812 c 2
 1576 791 l 2
 1623.33 775 1647 758.334 1647 741 c 0
 1647 722.334 1623.33 705 1576 689 c 2
 1512 668 l 2
 1465.33 653.334 1412.33 646 1353 646 c 2
 1259 648 l 1
 839 0 l 1
 691 0 l 1
 963 660 l 1
 389 678 l 1
 284 518 l 1
 173 518 l 1
 272 740 l 1
EndSplineSet
EndChar
StartChar: sunshine
Encoding: 82 61522 51
Width: 1752
VWidth: 1000
Flags: HW
Fore
894 1010 m 0
 710 1010 618 918 618 734 c 0
 618 548 710 454 894 454 c 0
 1080 454 1174 548 1174 734 c 0
 1174 918 1080 1010 894 1010 c 0
168 730 m 1
 536 824 l 1
 290 1098 l 1
 626 1026 l 1
 550 1374 l 1
 798 1098 l 1
 890 1454 l 1
 998 1098 l 1
 1272 1360 l 1
 1166 1008 l 1
 1536 1098 l 1
 1258 836 l 1
 1628 730 l 1
 1258 624 l 1
 1536 376 l 1
 1182 452 l 1
 1288 100 l 1
 998 376 l 1
 890 12 l 1
 798 376 l 1
 536 100 l 1
 626 452 l 1
 274 362 l 1
 536 624 l 1
 168 730 l 1
EndSplineSet
Back
902 257 m 1
 649 45 l 1
 591 370 l 1
 261 370 l 1
 426 656 l 1
 173 869 l 1
 483 982 l 1
 427 1307 l 1
 737 1194 l 1
 902 1480 l 1
 1068 1194 l 1
 1378 1307 l 1
 1321 982 l 1
 1631 869 l 1
 1378 656 l 1
 1543 370 l 1
 1213 370 l 1
 1155 45 l 1
 902 257 l 1
902 308 m 0
 1021.33 308 1123.17 350.166 1207.5 434.5 c 128
 1291.83 518.834 1334 620.666 1334 740 c 0
 1334 859.334 1291.83 961.166 1207.5 1045.5 c 128
 1123.17 1129.83 1021.33 1172 902 1172 c 0
 782.666 1172 680.834 1129.83 596.5 1045.5 c 128
 512.166 961.166 470 859.334 470 740 c 0
 470 620.666 512.334 518.834 597 434.5 c 128
 681.666 350.166 783.334 308 902 308 c 0
EndSplineSet
EndChar
StartChar: droplet
Encoding: 83 61523 52
Width: 1336
Flags: HW
Fore
182 488 m 0
 182 162 344 0 670 0 c 0
 996 0 1160 174 1160 524 c 0
 1160 622 1080 762 920 944 c 0
 770 1114 684 1294 666 1480 c 1
 646 1288 566 1116 430 964 c 0
 264 784 182 626 182 496 c 0
 182 492 182 492 182 488 c 0
EndSplineSet
Back
666 1480 m 1
 698 1344 734.334 1235.67 775 1155 c 128
 815.666 1074.33 877.666 987 961 893 c 2
 997 853 l 2
 1105.67 731.666 1160 610.334 1160 489 c 0
 1160 355 1111.5 240 1014.5 144 c 128
 917.5 48 801.334 0 666 0 c 0
 531.334 0 415.5 48 318.5 144 c 128
 221.5 240 173 355 173 489 c 0
 173 610.334 227.334 731.666 336 853 c 2
 372 893 l 2
 455.334 987 517.334 1074.33 558 1155 c 128
 598.666 1235.67 634.666 1344 666 1480 c 1
EndSplineSet
EndChar
StartChar: snowflake
Encoding: 84 61524 53
Width: 1674
VWidth: 1000
Flags: HW
Fore
904 854 m 1
 1126 984 l 1
 1164 1256 l 1
 1228 1248 l 1
 1200 1026 l 1
 1434 1160 l 1
 1474 1088 l 1
 1242 954 l 1
 1452 866 l 1
 1426 806 l 1
 1168 912 l 1
 944 782 l 1
 944 750 l 1
 1168 620 l 1
 1426 730 l 1
 1452 666 l 1
 1242 580 l 1
 1474 446 l 1
 1434 374 l 1
 1200 508 l 1
 1228 284 l 1
 1164 276 l 1
 1126 550 l 1
 904 680 l 1
 876 662 l 1
 876 406 l 1
 1096 238 l 1
 1054 182 l 1
 876 320 l 1
 876 52 l 1
 794 52 l 1
 794 320 l 1
 614 182 l 1
 574 238 l 1
 794 406 l 1
 794 662 l 1
 766 680 l 1
 542 550 l 1
 508 276 l 1
 440 284 l 1
 468 508 l 1
 238 374 l 1
 196 444 l 1
 428 580 l 1
 222 666 l 1
 248 728 l 1
 502 620 l 1
 724 750 l 1
 724 782 l 1
 502 912 l 1
 248 804 l 1
 222 866 l 1
 428 954 l 1
 196 1088 l 1
 238 1160 l 1
 468 1026 l 1
 440 1248 l 1
 508 1256 l 1
 542 984 l 1
 766 854 l 1
 794 870 l 1
 794 1126 l 1
 574 1294 l 1
 614 1348 l 1
 794 1212 l 1
 794 1478 l 1
 874 1478 l 1
 874 1212 l 1
 1054 1348 l 1
 1096 1294 l 1
 874 1126 l 1
 874 870 l 1
 904 854 l 1
EndSplineSet
Back
796 0 m 1
 796 233 l 1
 593 117 l 1
 556 181 l 1
 796 319 l 1
 796 676 l 1
 487 497 l 1
 487 221 l 1
 412 221 l 1
 412 455 l 1
 210 338 l 1
 173 402 l 1
 375 519 l 1
 173 635 l 1
 210 700 l 1
 449 562 l 1
 759 740 l 1
 449 918 l 1
 210 781 l 1
 173 845 l 1
 375 961 l 1
 173 1078 l 1
 210 1142 l 1
 412 1026 l 1
 412 1259 l 1
 487 1259 l 1
 487 983 l 1
 796 804 l 1
 796 1162 l 1
 557 1299 l 1
 594 1364 l 1
 796 1247 l 1
 796 1480 l 1
 870 1480 l 1
 870 1247 l 1
 1072 1364 l 1
 1109 1299 l 1
 870 1162 l 1
 870 804 l 1
 1179 983 l 1
 1179 1259 l 1
 1253 1259 l 1
 1253 1026 l 1
 1455 1142 l 1
 1493 1078 l 1
 1291 961 l 1
 1493 845 l 1
 1456 781 l 1
 1216 918 l 1
 907 740 l 1
 1216 562 l 1
 1455 700 l 1
 1493 635 l 1
 1291 519 l 1
 1493 402 l 1
 1456 338 l 1
 1253 455 l 1
 1253 221 l 1
 1179 221 l 1
 1179 497 l 1
 870 676 l 1
 870 319 l 1
 1110 181 l 1
 1073 117 l 1
 870 233 l 1
 870 0 l 1
 796 0 l 1
EndSplineSet
EndChar
StartChar: crossoutline
Encoding: 85 61525 54
Width: 1502
VWidth: 1000
Flags: HW
Fore
906 1416 m 1
 624 1416 l 1
 624 1048 l 1
 262 1048 l 1
 262 778 l 1
 624 778 l 1
 624 50 l 1
 906 50 l 1
 906 778 l 1
 1262 778 l 1
 1262 1048 l 1
 906 1050 l 1
 906 1416 l 1
1326 730 m 1
 954 730 l 1
 954 0 l 1
 574 0 l 1
 574 730 l 1
 194 730 l 1
 194 1100 l 1
 574 1100 l 1
 574 1476 l 1
 954 1476 l 1
 954 1100 l 1
 1326 1100 l 1
 1326 730 l 1
EndSplineSet
Back
568 1086 m 1
 568 1480 l 1
 963 1480 l 1
 963 1086 l 1
 1358 1086 l 1
 1358 691 l 1
 963 691 l 1
 963 0 l 1
 568 0 l 1
 568 691 l 1
 173 691 l 1
 173 1086 l 1
 568 1086 l 1
667 987 m 1
 272 987 l 1
 272 790 l 1
 667 790 l 1
 667 99 l 1
 864 99 l 1
 864 790 l 1
 1259 790 l 1
 1259 987 l 1
 864 987 l 1
 864 1382 l 1
 667 1382 l 1
 667 987 l 1
EndSplineSet
EndChar
StartChar: crossshadow
Encoding: 86 61526 55
Width: 1458
VWidth: 1000
Flags: HW
Fore
860 1420 m 5
 580 1420 l 5
 580 1050 l 5
 218 1050 l 5
 218 782 l 5
 580 782 l 5
 580 54 l 5
 860 54 l 5
 860 782 l 5
 1216 782 l 5
 1216 1050 l 5
 860 1052 l 5
 860 1420 l 5
1280 734 m 5
 910 734 l 5
 910 4 l 5
 528 4 l 5
 528 734 l 5
 150 734 l 5
 150 1102 l 5
 528 1102 l 5
 528 1480 l 5
 910 1480 l 5
 910 1102 l 5
 1280 1102 l 5
 1280 734 l 5
794 104 m 5
 630 104 l 5
 630 834 l 5
 262 834 l 5
 262 998 l 5
 630 998 l 5
 630 1366 l 5
 794 1366 l 5
 794 998 l 5
 1164 998 l 5
 1164 834 l 5
 794 834 l 5
 794 104 l 5
EndSplineSet
Back
518 1135 m 1
 518 1480 l 1
 913 1480 l 1
 1012 1382 l 1
 1012 1135 l 1
 1259 1135 l 1
 1357 1036 l 1
 1357 641 l 1
 1012 641 l 1
 1012 0 l 1
 617 0 l 1
 518 99 l 1
 518 740 l 1
 173 740 l 1
 173 1135 l 1
 518 1135 l 1
617 1036 m 1
 272 1036 l 1
 272 839 l 1
 617 839 l 1
 617 197 l 1
 815 197 l 1
 815 839 l 1
 1160 839 l 1
 1160 1036 l 1
 815 1036 l 1
 815 1382 l 1
 617 1382 l 1
 617 1036 l 1
EndSplineSet
EndChar
StartChar: crossceltic
Encoding: 87 61527 56
Width: 1478
VWidth: 1000
Flags: HW
Fore
740 1166 m 0
 568 1166 484 1080 484 912 c 0
 484 740 568 656 740 656 c 0
 908 656 994 740 994 912 c 0
 994 1080 908 1166 740 1166 c 0
746 1314 m 0
 1012 1314 1144 1180 1144 910 c 0
 1144 640 1012 506 746 506 c 0
 478 506 344 640 344 910 c 0
 344 1180 478 1314 746 1314 c 0
638 2 m 1
 638 824 l 1
 168 824 l 1
 168 1006 l 1
 638 1006 l 1
 638 1480 l 1
 828 1480 l 1
 828 1006 l 1
 1300 1006 l 1
 1300 824 l 1
 828 824 l 1
 828 2 l 1
 638 2 l 1
652 990 m 1
 652 842 l 1
 818 842 l 1
 818 990 l 1
 652 990 l 1
EndSplineSet
Back
815 651 m 1
 909 681.666 971.334 744.334 1002 839 c 1
 914 839 l 1
 832 875 l 1
 819.334 851.666 801.666 834 779 822 c 1
 815 740 l 1
 815 651 l 1
328 839 m 1
 173 839 l 1
 173 987 l 1
 328 987 l 1
 372 1168.33 485 1281.33 667 1326 c 1
 667 1480 l 1
 815 1480 l 1
 815 1325 l 1
 996.334 1279.67 1109.33 1167 1154 987 c 1
 1308 987 l 1
 1308 839 l 1
 1154 839 l 1
 1109.33 657.666 996.334 544.666 815 500 c 1
 815 0 l 1
 667 0 l 1
 667 500 l 1
 485 544.666 372 657.666 328 839 c 1
568 839 m 1
 480 839 l 1
 508.666 745 571 682.334 667 651 c 1
 667 740 l 1
 703 822 l 1
 679.666 834 661.666 851.666 649 875 c 1
 568 839 l 1
649 951 m 1
 661.666 973.666 679.666 991.334 703 1004 c 1
 667 1086 l 1
 667 1174 l 1
 571.666 1143.33 509.334 1081 480 987 c 1
 568 987 l 1
 649 951 l 1
779 1004 m 1
 801.666 991.334 819.334 973.666 832 951 c 1
 914 987 l 1
 1002 987 l 1
 978 1059.67 925.666 1118.33 845 1163 c 1
 815 1173 l 1
 815 1086 l 1
 779 1004 l 1
EndSplineSet
EndChar
StartChar: crossmaltese
Encoding: 88 61528 57
Width: 1436
VWidth: 1000
Flags: HW
Fore
850 1234 m 1
 570 1234 l 1
 570 868 l 1
 206 868 l 1
 206 600 l 1
 570 600 l 1
 570 232 l 1
 850 232 l 1
 850 600 l 1
 1206 600 l 1
 1206 868 l 1
 850 870 l 1
 850 1234 l 1
1270 550 m 1
 900 550 l 1
 900 182 l 1
 518 182 l 1
 518 550 l 1
 140 550 l 1
 140 920 l 1
 518 920 l 1
 518 1296 l 1
 900 1296 l 1
 900 920 l 1
 1270 920 l 1
 1270 550 l 1
784 282 m 1
 620 282 l 1
 620 652 l 1
 252 652 l 1
 252 816 l 1
 620 816 l 1
 620 1182 l 1
 784 1182 l 1
 784 816 l 1
 1154 816 l 1
 1154 652 l 1
 784 652 l 1
 784 282 l 1
EndSplineSet
Back
1090 1277 m 1
 1090 1242 l 1
 884 1162 769.666 1007 747 777 c 1
 977 799.666 1132 914 1212 1120 c 1
 1247 1120 l 1
 1247 360 l 1
 1212 360 l 1
 1130 565.334 975 679.666 747 703 c 1
 769.666 473.666 884 319 1090 239 c 1
 1090 203 l 1
 330 203 l 1
 330 239 l 1
 536 317.666 650.334 472.334 673 703 c 1
 443 679 288.334 564.666 209 360 c 1
 173 360 l 1
 173 1120 l 1
 209 1120 l 1
 289 914 443.666 799.666 673 777 c 1
 650.334 1007.67 536 1162.67 330 1242 c 1
 330 1277 l 1
 1090 1277 l 1
EndSplineSet
EndChar
StartChar: starofdavid
Encoding: 89 61529 58
Width: 1646
VWidth: 1000
Flags: HW
Fore
816 1496 m 1
 1034 1120 l 1
 1466 1120 l 1
 1250 744 l 1
 1466 366 l 1
 1034 366 l 1
 816 -6 l 1
 602 366 l 1
 166 366 l 1
 382 744 l 1
 166 1120 l 1
 602 1120 l 1
 816 1496 l 1
816 1396 m 1
 660 1120 l 1
 972 1120 l 1
 816 1396 l 1
254 1070 m 1
 412 792 l 1
 572 1070 l 1
 254 1070 l 1
628 1070 m 1
 440 744 l 1
 628 416 l 1
 1006 416 l 1
 1192 744 l 1
 1006 1070 l 1
 628 1070 l 1
1060 1070 m 1
 1220 790 l 1
 1382 1070 l 1
 1060 1070 l 1
412 694 m 1
 254 416 l 1
 574 416 l 1
 412 694 l 1
1220 692 m 1
 1060 416 l 1
 1380 416 l 1
 1220 692 l 1
660 366 m 1
 816 90 l 1
 976 366 l 1
 660 366 l 1
EndSplineSet
Back
714 1110 m 1
 914 1110 l 1
 814 1283 l 1
 714 1110 l 1
1184 641 m 1
 1085 469 l 1
 1284 469 l 1
 1184 641 l 1
543 469 m 1
 444 641 l 1
 344 469 l 1
 543 469 l 1
173 370 m 1
 387 740 l 1
 173 1110 l 1
 600 1110 l 1
 814 1480 l 1
 1028 1110 l 1
 1455 1110 l 1
 1241 740 l 1
 1455 370 l 1
 1028 370 l 1
 814 0 l 1
 600 370 l 1
 173 370 l 1
1085 1012 m 1
 1184 839 l 1
 1284 1012 l 1
 1085 1012 l 1
914 370 m 1
 714 370 l 1
 814 197 l 1
 914 370 l 1
657 469 m 1
 970 469 l 1
 1127 740 l 1
 971 1012 l 1
 657 1012 l 1
 501 740 l 1
 657 469 l 1
444 839 m 1
 543 1012 l 1
 344 1012 l 1
 444 839 l 1
EndSplineSet
EndChar
StartChar: crescentstar
Encoding: 90 61530 59
Width: 2048
Flags: H
Back
1360 150 m 1
 1293.33 106.666 1249.33 80 1228 70 c 0
 1128.67 23.334 1023.67 0 913 0 c 0
 708.334 0 533.834 72.166 389.5 216.5 c 128
 245.166 360.834 173 535.334 173 740 c 0
 173 946 245.5 1120.83 390.5 1264.5 c 128
 535.5 1408.17 711.666 1480 919 1480 c 0
 1071.67 1480 1218.67 1430.33 1360 1331 c 1
 1112 1381 l 1
 934 1381 782.334 1318.5 657 1193.5 c 128
 531.666 1068.5 469 917.334 469 740 c 0
 469 564 531.334 413.166 656 287.5 c 128
 780.666 161.834 930.334 99 1105 99 c 1
 1360 150 l 1
1078 825 m 1
 1293 825 l 1
 1360 1029 l 1
 1426 825 l 1
 1641 825 l 1
 1467 699 l 1
 1533 494 l 1
 1360 620 l 1
 1186 494 l 1
 1252 699 l 1
 1078 825 l 1
EndSplineSet
EndChar
StartChar: yinyang
Encoding: 91 9775 60
Width: 2048
Flags: H
Back
913 752 m 1
 914 728 l 1
 918.666 632.666 953.834 553.334 1019.5 490 c 128
 1085.17 426.666 1165 395 1259 395 c 0
 1356.33 395 1438.17 429.166 1504.5 497.5 c 128
 1570.83 565.834 1604 650.334 1604 751 c 0
 1604 936.334 1535.83 1096 1399.5 1230 c 128
 1263.17 1364 1101 1431 913 1431 c 0
 720.334 1431 559.834 1366.83 431.5 1238.5 c 128
 303.166 1110.17 233.334 944 222 740 c 1
 236.666 853.334 273.334 939.334 332 998 c 128
 390.666 1056.67 469.334 1086 568 1086 c 0
 662 1086 741.666 1054.17 807 990.5 c 128
 872.334 926.834 907.666 847.334 913 752 c 1
1357 740 m 0
 1357 712.666 1347.33 689.334 1328 670 c 128
 1308.67 650.666 1285.67 641 1259 641 c 0
 1231.67 641 1208.33 650.666 1189 670 c 128
 1169.67 689.334 1160 712.666 1160 740 c 0
 1160 767.334 1169.67 790.666 1189 810 c 128
 1208.33 829.334 1231.67 839 1259 839 c 0
 1286.33 839 1309.5 829.334 1328.5 810 c 128
 1347.5 790.666 1357 767.334 1357 740 c 0
666 740 m 0
 666 767.334 656.5 790.666 637.5 810 c 128
 618.5 829.334 595.334 839 568 839 c 0
 540.666 839 517.334 829.334 498 810 c 128
 478.666 790.666 469 767.334 469 740 c 0
 469 712.666 478.666 689.334 498 670 c 128
 517.334 650.666 540.666 641 568 641 c 0
 594.666 641 617.666 650.834 637 670.5 c 128
 656.334 690.166 666 713.334 666 740 c 0
1653 740 m 0
 1653 535.334 1580.83 360.834 1436.5 216.5 c 128
 1292.17 72.166 1117.67 0 913 0 c 0
 708.334 0 533.834 72.166 389.5 216.5 c 128
 245.166 360.834 173 535.334 173 740 c 0
 173 944.666 245.166 1119.17 389.5 1263.5 c 128
 533.834 1407.83 708.334 1480 913 1480 c 0
 1117.67 1480 1292.17 1407.83 1436.5 1263.5 c 128
 1580.83 1119.17 1653 944.666 1653 740 c 0
EndSplineSet
EndChar
StartChar: om
Encoding: 92 61532 61
Width: 2048
Flags: H
Back
173 688 m 1
 229 704 l 1
 257 523.334 316.5 377.334 407.5 266 c 128
 498.5 154.666 603.666 99 723 99 c 0
 785.666 99 838.5 121.5 881.5 166.5 c 128
 924.5 211.5 946 266.666 946 332 c 0
 946 451.334 898 559.666 802 657 c 1
 752 587.666 692.666 537.334 624 506 c 1
 554 672 l 1
 708.666 717.334 786 791.334 786 894 c 0
 786 933.334 774.334 962.834 751 982.5 c 128
 727.666 1002.17 692.334 1012 645 1012 c 0
 575 1012 501.334 991 424 949 c 1
 356 1114 l 1
 420 1144.67 486.334 1160 555 1160 c 0
 645.666 1160 719.166 1130.5 775.5 1071.5 c 128
 831.834 1012.5 860 935.666 860 841 c 0
 860 800.334 852 764.334 836 733 c 1
 867 704 l 1
 955.666 788.666 1040.33 831 1121 831 c 0
 1127.67 831 1138 830.334 1152 829 c 1
 1183.33 991.666 1266 1073 1400 1073 c 0
 1487.33 1073 1552.83 1037.33 1596.5 966 c 128
 1640.17 894.666 1662 787.666 1662 645 c 0
 1662 500.334 1634.67 385.5 1580 300.5 c 128
 1525.33 215.5 1451.67 173 1359 173 c 0
 1294.33 173 1248.33 193.666 1221 235 c 128
 1193.67 276.334 1180 345.666 1180 443 c 2
 1180 517 l 2
 1180 608.334 1155.67 654 1107 654 c 0
 1065.67 654 1014.33 632.666 953 590 c 1
 1039 474.666 1082 363.666 1082 257 c 0
 1082 169 1053.17 97.834 995.5 43.5 c 128
 937.834 -10.834 862 -38 768 -38 c 0
 615.334 -38 482.5 31 369.5 169 c 128
 256.5 307 191 480 173 688 c 1
1202 811 m 1
 1237.33 793 1255 749.666 1255 681 c 1
 1254 564 l 1
 1254 501 l 2
 1254 381 1291.67 321 1367 321 c 0
 1430.33 321 1483 350.5 1525 409.5 c 128
 1567 468.5 1588 542.666 1588 632 c 0
 1588 718.666 1568.83 789.166 1530.5 843.5 c 128
 1492.17 897.834 1442.67 925 1382 925 c 0
 1298.67 925 1238.67 887 1202 811 c 1
669 1318 m 1
 719 1355 l 1
 781 1274.33 855.334 1234 942 1234 c 0
 1023.33 1234 1093.67 1274.33 1153 1355 c 1
 1291 1240 l 1
 1201.67 1145.33 1111.33 1098 1020 1098 c 0
 881.334 1098 764.334 1171.33 669 1318 c 1
963 1517 m 1
 1068 1411 l 1
 963 1309 l 1
 859 1418 l 1
 963 1517 l 1
EndSplineSet
EndChar
StartChar: wheel
Encoding: 93 61533 62
Width: 1836
VWidth: 1000
Flags: HW
Fore
1604 724 m 0
 1604 528 1538 364 1410 236 c 128
 1280 108 1118 44 920 44 c 0
 720 44 558 106 430 234 c 128
 302 362 238 526 238 724 c 0
 238 924 302 1088 430 1216 c 128
 558 1344 720 1406 920 1406 c 0
 1118 1406 1280 1342 1410 1214 c 128
 1538 1086 1604 922 1604 724 c 0
1056 1106 m 1
 922 1384 l 1
 782 1106 l 1
 820 1124 864 1132 920 1132 c 0
 972 1132 1018 1124 1056 1106 c 1
1388 1192 m 1
 1092 1098 l 1
 1188 1044 1254 978 1288 900 c 1
 1388 1192 l 1
746 1098 m 1
 450 1194 l 1
 550 900 l 1
 586 980 652 1046 746 1098 c 1
1580 722 m 1
 1302 862 l 1
 1318 820 1326 774 1326 724 c 0
 1326 676 1318 630 1302 588 c 1
 1580 722 l 1
536 588 m 1
 518 624 510 670 510 724 c 0
 510 780 518 826 536 862 c 1
 260 728 l 1
 536 588 l 1
746 352 m 1
 656 398 590 466 546 556 c 1
 448 258 l 1
 746 352 l 1
1384 254 m 1
 1288 550 l 1
 1246 460 1180 396 1092 358 c 1
 1384 254 l 1
1056 340 m 1
 1004 324 960 318 920 318 c 0
 880 318 834 324 782 340 c 1
 918 66 l 1
 1056 340 l 1
728 738 m 0
 728 688 746 648 784 614 c 128
 822 582 864 568 916 568 c 0
 964 568 1008 584 1046 616 c 128
 1084 650 1102 690 1102 738 c 0
 1102 786 1084 828 1046 860 c 128
 1010 892 966 908 916 908 c 0
 864 908 822 892 784 860 c 128
 746 828 728 786 728 738 c 0
EndSplineSet
Back
885 143 m 1
 741.666 149.666 617 201.334 511 298 c 1
 514.334 284 516 273.334 516 266 c 0
 516 218.666 491.334 195 442 195 c 0
 392.666 195 368 219.666 368 269 c 0
 368 318.334 391.666 343 439 343 c 0
 446.334 343 456.666 341.334 470 338 c 1
 374 444 322.666 568.666 316 712 c 1
 298 681.334 275 666 247 666 c 0
 197.666 666 173 690.666 173 740 c 0
 173 789.334 197.666 814 247 814 c 0
 275.666 814 298.666 799 316 769 c 1
 316 904.334 367.666 1028.67 471 1142 c 1
 457 1138.67 446 1137 438 1137 c 0
 391.334 1137 368 1161.67 368 1211 c 0
 368 1260.33 392.666 1285 442 1285 c 0
 491.334 1285 516 1261.33 516 1214 c 0
 516 1206.67 514.334 1196.33 511 1183 c 1
 619 1279 743.666 1330.33 885 1337 c 1
 854.334 1353.67 839 1376.67 839 1406 c 0
 839 1455.33 863.666 1480 913 1480 c 0
 961.666 1480 986 1455.33 986 1406 c 0
 986 1376.67 971 1353.67 941 1337 c 1
 1082.33 1330.33 1207 1279 1315 1183 c 1
 1311.67 1196.33 1310 1206.67 1310 1214 c 0
 1310 1261.33 1334.67 1285 1384 1285 c 0
 1433.33 1285 1458 1260.33 1458 1211 c 0
 1458 1161.67 1434.33 1137 1387 1137 c 0
 1379.67 1137 1369 1138.67 1355 1142 c 1
 1458.33 1028.67 1510 904.334 1510 769 c 1
 1527.33 799 1550.33 814 1579 814 c 0
 1628.33 814 1653 789.334 1653 740 c 0
 1653 690.666 1628.33 666 1579 666 c 0
 1551 666 1528 681.334 1510 712 c 1
 1503.33 568.666 1451.67 444 1355 338 c 1
 1368.33 341.334 1378.67 343 1386 343 c 0
 1434 343 1458 318.334 1458 269 c 0
 1458 219.666 1433.33 195 1384 195 c 0
 1334.67 195 1310 218.666 1310 266 c 0
 1310 273.334 1311.67 284 1315 298 c 1
 1209 201.334 1084.33 149.666 941 143 c 1
 971 125.666 986 102.666 986 74 c 0
 986 24.666 961.666 0 913 0 c 0
 863.666 0 839 24.666 839 74 c 0
 839 102.666 854.334 125.666 885 143 c 1
739 817 m 1
 712.334 831.666 697.334 854.334 694 885 c 1
 650 891 625.334 915.666 620 959 c 1
 588.666 963.666 565.666 979 551 1005 c 1
 511 945 484 879.666 470 809 c 1
 483.334 812.334 494 814 502 814 c 0
 516 814 532 807 550 793 c 1
 568.666 807 586.334 814 603 814 c 0
 619.666 814 637 807 655 793 c 1
 673.666 807 689.666 814 703 814 c 0
 711 814 722 812.334 736 809 c 1
 739 817 l 1
735 672 m 1
 721.666 668 710.666 666 702 666 c 0
 689.334 666 673.666 673.334 655 688 c 1
 637 673.334 619.666 666 603 666 c 0
 585.666 666 568 673.334 550 688 c 1
 531.334 673.334 515.334 666 502 666 c 0
 494 666 483.334 668 470 672 c 1
 484 600.666 511 535 551 475 c 1
 566.334 501.666 589 517 619 521 c 1
 624.334 565 649 589.666 693 595 c 1
 697 625.666 712.334 648.334 739 663 c 1
 735 672 l 1
836 566 m 1
 820.666 539.334 797.666 524 767 520 c 1
 762.334 476 737.666 451.666 693 447 c 1
 689.666 415.666 674.666 392.666 648 378 c 1
 708 338 773.334 311 844 297 c 1
 840 310.334 838 321 838 329 c 0
 838 342.334 845.334 358.334 860 377 c 1
 846 395.666 839 413 839 429 c 0
 839 445.666 846 463.666 860 483 c 1
 846 501 839 516.666 839 530 c 0
 839 538 840.666 549 844 563 c 1
 836 566 l 1
845 917 m 1
 841 931 839 942 839 950 c 0
 839 963.334 846.334 979.334 861 998 c 1
 846.334 1016 839 1033.33 839 1050 c 0
 839 1066.67 846.334 1084.33 861 1103 c 1
 846.334 1121 839 1137 839 1151 c 0
 839 1159 840.666 1170 844 1184 c 1
 773.334 1169.33 708 1142 648 1102 c 1
 674.666 1087.33 690 1064.33 694 1033 c 1
 738.666 1028.33 763.334 1003.67 768 959 c 1
 798.666 955.666 821.334 940.666 836 914 c 1
 845 917 l 1
913 641 m 0
 940.334 641 963.5 650.666 982.5 670 c 128
 1001.5 689.334 1011 712.666 1011 740 c 0
 1011 767.334 1001.5 790.666 982.5 810 c 128
 963.5 829.334 940.334 839 913 839 c 0
 885.666 839 862.334 829.334 843 810 c 128
 823.666 790.666 814 767.334 814 740 c 0
 814 712.666 823.666 689.334 843 670 c 128
 862.334 650.666 885.666 641 913 641 c 0
1086 817 m 1
 1090 809 l 1
 1104 812.334 1115 814 1123 814 c 0
 1136.33 814 1152.33 807 1171 793 c 1
 1189 807 1206.33 814 1223 814 c 0
 1239.67 814 1257.33 807 1276 793 c 1
 1294 807 1309.67 814 1323 814 c 0
 1331.67 814 1342.67 812.334 1356 809 c 1
 1342 879.666 1314.67 945 1274 1005 c 1
 1260 979 1237.33 963.666 1206 959 c 1
 1200.67 915.666 1176 891 1132 885 c 1
 1128.67 854.334 1113.33 831.666 1086 817 c 1
1090 672 m 1
 1087 663 l 1
 1113.67 648.334 1129 625.666 1133 595 c 1
 1177 589.666 1201.67 565 1207 521 c 1
 1237 517 1259.67 501.666 1275 475 c 1
 1315 535 1342 600.666 1356 672 c 1
 1342.67 668 1331.67 666 1323 666 c 0
 1310.33 666 1294.67 673.334 1276 688 c 1
 1257.33 673.334 1240.33 666 1225 666 c 0
 1207 666 1189 673.334 1171 688 c 1
 1152.33 673.334 1136.33 666 1123 666 c 0
 1115 666 1104 668 1090 672 c 1
990 566 m 1
 981 563 l 1
 985 549 987 538 987 530 c 0
 987 516.666 979.666 501 965 483 c 1
 979.666 463.666 987 446 987 430 c 0
 987 413.334 979.666 395.666 965 377 c 1
 979.666 358.334 987 342.334 987 329 c 0
 987 321 985 310.334 981 297 c 1
 1052.33 311 1118 338 1178 378 c 1
 1151.33 392.666 1136.33 415.666 1133 447 c 1
 1088.33 451.666 1063.33 476 1058 520 c 1
 1027.33 524 1004.67 539.334 990 566 c 1
981 917 m 1
 989 914 l 1
 1004.33 940.666 1027.33 955.666 1058 959 c 1
 1062.67 1003.67 1087.33 1028.33 1132 1033 c 1
 1136 1064.33 1151.33 1087.33 1178 1102 c 1
 1118 1142 1052.33 1169.33 981 1184 c 1
 985 1170 987 1158.67 987 1150 c 0
 987 1136.67 979.666 1121 965 1103 c 1
 979.666 1084.33 987 1066.67 987 1050 c 0
 987 1033.33 979.666 1016 965 998 c 1
 979.666 980 987 964 987 950 c 0
 987 942 985 931 981 917 c 1
EndSplineSet
EndChar
StartChar: aries
Encoding: 94 61534 63
Width: 2048
Flags: H
Back
1111 -395 m 1
 1111 -296 l 2
 1111 -106.666 1092 104 1054 336 c 128
 1016 568 969.666 757.334 915 904 c 0
 795.666 1222.67 667 1382 529 1382 c 0
 467.666 1382 417.666 1355.17 379 1301.5 c 128
 340.334 1247.83 321 1178 321 1092 c 0
 321 978.666 357.666 861.334 431 740 c 1
 281 740 l 1
 209 870.666 173 993 173 1107 c 0
 173 1224.33 207 1322.17 275 1400.5 c 128
 343 1478.83 428.334 1518 531 1518 c 0
 696.334 1518 837 1406.67 953 1184 c 128
 1069 961.334 1142 662.666 1172 288 c 1
 1197 288 l 1
 1222.33 655.334 1294.17 952.166 1412.5 1178.5 c 128
 1530.83 1404.83 1673 1518 1839 1518 c 0
 1941.67 1518 2026.84 1479.33 2094.5 1402 c 128
 2162.16 1324.67 2196 1227.33 2196 1110 c 0
 2196 995.334 2160.34 872 2089 740 c 1
 1938 740 l 1
 2011.34 870.666 2048 990.666 2048 1100 c 0
 2048 1188 2029 1259 1991 1313 c 128
 1953 1367 1902.67 1394 1840 1394 c 0
 1706.67 1394 1582.33 1245.67 1467 949 c 0
 1408.33 797.666 1359 601.666 1319 361 c 128
 1279 120.334 1259 -100.666 1259 -302 c 2
 1259 -395 l 1
 1111 -395 l 1
EndSplineSet
EndChar
StartChar: taurus
Encoding: 95 61535 64
Width: 2048
Flags: H
Back
799 776 m 1
 733.666 802 680.666 835 640 875 c 128
 599.334 915 554.334 979.334 505 1068 c 2
 446 1174 l 2
 373.334 1304 291.334 1369 200 1369 c 2
 173 1369 l 1
 173 1480 l 1
 246 1480 l 2
 376 1480 493.666 1388.67 599 1206 c 2
 680 1065 l 2
 734 971.666 790.334 906.5 849 869.5 c 128
 907.666 832.5 984.666 814 1080 814 c 0
 1174.67 814 1251.5 832.5 1310.5 869.5 c 128
 1369.5 906.5 1426 971.666 1480 1065 c 2
 1561 1206 l 2
 1666.33 1388.67 1783.67 1480 1913 1480 c 2
 1986 1480 l 1
 1986 1369 l 1
 1960 1369 l 2
 1868 1369 1785.67 1304 1713 1174 c 2
 1654 1068 l 2
 1604.67 979.334 1559.67 915 1519 875 c 128
 1478.33 835 1425.33 802 1360 776 c 1
 1473.33 713.334 1560.83 632.834 1622.5 534.5 c 128
 1684.17 436.166 1715 328.334 1715 211 c 0
 1715 41.666 1651.83 -105.666 1525.5 -231 c 128
 1399.17 -356.334 1250.67 -419 1080 -419 c 0
 909.334 -419 760.666 -356.334 634 -231 c 128
 507.334 -105.666 444 41.666 444 211 c 0
 444 328.334 474.834 436.166 536.5 534.5 c 128
 598.166 632.834 685.666 713.334 799 776 c 1
1080 -271 m 0
 1214 -271 1328.67 -224.166 1424 -130.5 c 128
 1519.33 -36.834 1567 76 1567 208 c 0
 1567 342 1519.67 456 1425 550 c 128
 1330.33 644 1215.33 691 1080 691 c 0
 944.666 691 829.5 644 734.5 550 c 128
 639.5 456 592 342 592 208 c 0
 592 76 639.666 -36.834 735 -130.5 c 128
 830.334 -224.166 945.334 -271 1080 -271 c 0
EndSplineSet
EndChar
StartChar: gemini
Encoding: 96 61536 65
Width: 2048
Flags: H
Back
173 -99 m 1
 173 24 l 1
 310.334 60.666 437.666 86 555 100 c 1
 555 1375 l 1
 428.334 1387 301 1411.33 173 1448 c 1
 173 1572 l 1
 394.334 1510.67 665.666 1480 987 1480 c 0
 1309 1480 1580.67 1510.67 1802 1572 c 1
 1802 1448 l 1
 1674 1411.33 1546.33 1387 1419 1375 c 1
 1419 100 l 1
 1536.33 86 1664 60.666 1802 24 c 1
 1802 -99 l 1
 1550 -33 1278.33 0 987 0 c 0
 695.666 0 424.334 -33 173 -99 c 1
703 109 m 1
 787.666 118.334 882.334 123 987 123 c 0
 1091.67 123 1186.33 118.334 1271 109 c 1
 1271 1365 l 1
 1195 1359.67 1100.33 1357 987 1357 c 0
 873.666 1357 779 1359.67 703 1365 c 1
 703 109 l 1
EndSplineSet
EndChar
StartChar: cancer
Encoding: 97 61537 66
Width: 2048
Flags: H
Back
173 199 m 1
 173 360 l 1
 483 218.666 782.666 148 1072 148 c 0
 1261.33 148 1415.33 172.666 1534 222 c 1
 1458.67 260.666 1402.17 309.166 1364.5 367.5 c 128
 1326.83 425.834 1308 494.334 1308 573 c 0
 1308 676.334 1345.17 765 1419.5 839 c 128
 1493.83 913 1583 950 1687 950 c 0
 1789.67 950 1877.67 913.334 1951 840 c 128
 2024.34 766.666 2061 678.334 2061 575 c 0
 2061 410.334 1960.5 273.334 1759.5 164 c 128
 1558.5 54.666 1306.33 0 1003 0 c 0
 741 0 464.334 66.334 173 199 c 1
1407 572 m 0
 1407 496.666 1434.5 431.834 1489.5 377.5 c 128
 1544.5 323.166 1610.33 296 1687 296 c 0
 1763.67 296 1828.67 322.5 1882 375.5 c 128
 1935.33 428.5 1962 493.334 1962 570 c 0
 1962 648 1935.17 714.334 1881.5 769 c 128
 1827.83 823.666 1762.67 851 1686 851 c 0
 1608.67 851 1542.83 823.834 1488.5 769.5 c 128
 1434.17 715.166 1407 649.334 1407 572 c 0
2061 1281 m 1
 2061 1120 l 1
 1751 1262 1451.33 1333 1162 1333 c 0
 972.666 1333 818.334 1308 699 1258 c 1
 775 1220 831.834 1171.67 869.5 1113 c 128
 907.166 1054.33 926 985.666 926 907 c 0
 926 803.666 888.834 715 814.5 641 c 128
 740.166 567 651 530 547 530 c 0
 443.666 530 355.5 566.666 282.5 640 c 128
 209.5 713.334 173 801.666 173 905 c 0
 173 1070.33 273.5 1207.67 474.5 1317 c 128
 675.5 1426.33 927.666 1481 1231 1481 c 0
 1493.67 1481 1770.33 1414.33 2061 1281 c 1
827 908 m 0
 827 984 799.334 1049 744 1103 c 128
 688.666 1157 622.666 1184 546 1184 c 0
 469.334 1184 404.5 1157.5 351.5 1104.5 c 128
 298.5 1051.5 272 986.666 272 910 c 0
 272 832 298.834 765.666 352.5 711 c 128
 406.166 656.334 471.334 629 548 629 c 0
 625.334 629 691.166 656.334 745.5 711 c 128
 799.834 765.666 827 831.334 827 908 c 0
EndSplineSet
EndChar
StartChar: leo
Encoding: 98 61538 67
Width: 2048
Flags: H
Back
1755 -260 m 1
 1639.67 -366 1529 -419 1423 -419 c 0
 1331 -419 1253.83 -388.5 1191.5 -327.5 c 128
 1129.17 -266.5 1098 -191.334 1098 -102 c 0
 1098 17.334 1160.67 210 1286 476 c 2
 1382 680 l 2
 1456 838 1493 966 1493 1064 c 0
 1493 1189.33 1456.5 1290 1383.5 1366 c 128
 1310.5 1442 1214 1480 1094 1480 c 0
 981.334 1480 890.166 1446.17 820.5 1378.5 c 128
 750.834 1310.83 716 1222 716 1112 c 0
 716 1010.67 748.666 892 814 756 c 2
 853 675 l 2
 917.666 541 950 442.334 950 379 c 0
 950 277 911.5 188.334 834.5 113 c 128
 757.5 37.666 666.666 0 562 0 c 0
 454 0 362.166 38 286.5 114 c 128
 210.834 190 173 282.334 173 391 c 0
 173 495.666 210.334 586.166 285 662.5 c 128
 359.666 738.834 448.666 777 552 777 c 0
 589.334 777 630.666 770 676 756 c 1
 604 894 568 1016 568 1122 c 0
 568 1260 617.834 1374.83 717.5 1466.5 c 128
 817.166 1558.17 942.334 1604 1093 1604 c 0
 1258.33 1604 1391 1555.5 1491 1458.5 c 128
 1591 1361.5 1641 1232.67 1641 1072 c 0
 1641 992 1632.67 923 1616 865 c 128
 1599.33 807 1560 711.334 1498 578 c 2
 1429 428 l 2
 1306.33 162.666 1245 -9 1245 -87 c 0
 1245 -144.334 1262.17 -191.5 1296.5 -228.5 c 128
 1330.83 -265.5 1374.67 -284 1428 -284 c 0
 1498 -284 1578 -244.334 1668 -165 c 1
 1755 -260 l 1
284 390 m 0
 284 311.334 310.166 245.166 362.5 191.5 c 128
 414.834 137.834 479.334 111 556 111 c 0
 630.666 111 694.5 138 747.5 192 c 128
 800.5 246 827 311.334 827 388 c 0
 827 466 800.666 531.834 748 585.5 c 128
 695.334 639.166 630.666 666 554 666 c 0
 479.334 666 415.666 639 363 585 c 128
 310.334 531 284 466 284 390 c 0
EndSplineSet
EndChar
StartChar: virgo
Encoding: 99 61539 68
Width: 2048
Flags: H
Back
443 928 m 1
 443 0 l 1
 295 0 l 1
 295 1075 l 2
 295 1223.67 254.334 1358.67 173 1480 c 1
 329 1480 l 1
 384.334 1404 422.334 1306.33 443 1187 c 1
 493 1310.33 551 1408 617 1480 c 1
 762 1507 l 1
 828.666 1421.67 870.666 1308.33 888 1167 c 1
 922 1273.67 982.334 1378 1069 1480 c 1
 1212 1507 l 1
 1292 1395.67 1332 1272.67 1332 1138 c 2
 1332 856 l 1
 1372 969.334 1414.33 1058 1459 1122 c 1
 1581 1167 l 1
 1686.33 1003.67 1739 832 1739 652 c 0
 1739 509.334 1707.5 375.334 1644.5 250 c 128
 1581.5 124.666 1487 8 1361 -100 c 1
 1373 -186.666 1424 -285 1514 -395 c 1
 1340 -395 l 1
 1298 -341.666 1260.67 -271 1228 -183 c 1
 1135.33 -235.666 1022 -272.666 888 -294 c 1
 888 -167 l 1
 1014.67 -141 1118.33 -104 1199 -56 c 1
 1189 8 1184 72.334 1184 137 c 2
 1184 1037 l 2
 1184 1183.67 1162.67 1294.33 1120 1369 c 1
 1015.33 1256.33 938 1097.67 888 893 c 1
 888 0 l 1
 739 0 l 1
 739 987 l 2
 739 1170.33 717.334 1297.67 674 1369 c 1
 572 1250.33 495 1103.33 443 928 c 1
1332 39 m 1
 1418.67 127 1483.5 221.5 1526.5 322.5 c 128
 1569.5 423.5 1591 530.666 1591 644 c 0
 1591 762.666 1565 877.666 1513 989 c 1
 1439.67 898.334 1379.33 777.334 1332 626 c 1
 1332 39 l 1
EndSplineSet
EndChar
StartChar: libra
Encoding: 100 61540 69
Width: 2048
Flags: H
Back
173 148 m 1
 173 296 l 1
 1764 296 l 1
 1764 148 l 1
 173 148 l 1
802 730 m 1
 802 592 l 1
 173 592 l 1
 173 740 l 1
 614 740 l 1
 534 822 494 914 494 1016 c 0
 494 1142.67 540.834 1251.67 634.5 1343 c 128
 728.166 1434.33 839.666 1480 969 1480 c 0
 1098.33 1480 1209.83 1434.33 1303.5 1343 c 128
 1397.17 1251.67 1444 1142.67 1444 1016 c 0
 1444 914 1404 822 1324 740 c 1
 1764 740 l 1
 1764 592 l 1
 1135 592 l 1
 1135 730 l 1
 1242.33 799.334 1296 892.334 1296 1009 c 0
 1296 1097 1263.67 1172.83 1199 1236.5 c 128
 1134.33 1300.17 1057.67 1332 969 1332 c 0
 879.666 1332 802.834 1300.17 738.5 1236.5 c 128
 674.166 1172.83 642 1097 642 1009 c 0
 642 892.334 695.334 799.334 802 730 c 1
EndSplineSet
EndChar
StartChar: scorpio
Encoding: 101 61541 70
Width: 2048
Flags: H
Back
298 0 m 1
 298 1056 l 2
 298 1232 256.334 1373.33 173 1480 c 1
 332 1480 l 1
 388 1394.67 426 1297.67 446 1189 c 1
 492.666 1305 550.666 1402 620 1480 c 1
 763 1509 l 1
 829.666 1431 872 1319 890 1173 c 1
 926.666 1277.67 986.334 1380 1069 1480 c 1
 1215 1509 l 1
 1294.33 1401 1334 1273.33 1334 1126 c 2
 1334 205 l 2
 1334 108.334 1337.33 42.834 1344 8.5 c 128
 1350.67 -25.834 1365.67 -55.666 1389 -81 c 0
 1431.67 -125.666 1502.33 -148 1601 -148 c 2
 1692 -148 l 1
 1692 0 l 1
 1926 -211 l 1
 1692 -415 l 1
 1692 -271 l 1
 1556 -271 l 2
 1426.67 -271 1332.67 -237 1274 -169 c 128
 1215.33 -101 1186 7.66602 1186 157 c 2
 1186 1049 l 2
 1186 1199 1164.33 1306.67 1121 1372 c 1
 1010.33 1244.67 933.334 1085.33 890 894 c 1
 890 0 l 1
 742 0 l 1
 742 996 l 2
 742 1175.33 720.334 1300.67 677 1372 c 1
 571 1252.67 494 1104.33 446 927 c 1
 446 0 l 1
 298 0 l 1
EndSplineSet
EndChar
StartChar: saggitarius
Encoding: 102 61542 71
Width: 2048
Flags: H
Back
1627 1415 m 1
 1729 686 l 1
 1583 663 l 1
 1508 1194 l 1
 841 526 l 1
 1155 212 l 1
 1050 108 l 1
 736 422 l 1
 275 -37 l 1
 173 65 l 1
 634 524 l 1
 320 838 l 1
 424 943 l 1
 738 629 l 1
 1406 1296 l 1
 875 1371 l 1
 898 1517 l 1
 1627 1415 l 1
EndSplineSet
EndChar
StartChar: capricorn
Encoding: 103 61543 72
Width: 2048
Flags: H
Back
536 438 m 1
 536 490 l 2
 536 586 519.166 721.666 485.5 897 c 128
 451.834 1072.33 420.666 1187.33 392 1242 c 0
 351.334 1319.33 287.666 1358 201 1358 c 2
 173 1358 l 1
 173 1480 l 1
 284 1480 l 2
 387.334 1480 459 1439.33 499 1358 c 0
 546.334 1260.67 589.334 1098.33 628 871 c 1
 684 1121.67 777.334 1324.67 908 1480 c 1
 1103 1518 l 1
 1151.67 1409.33 1191.67 1246.33 1223 1029 c 1
 1250 848 l 1
 1258.67 784.666 1264.67 739.666 1268 713 c 0
 1280 605 1295 523.334 1313 468 c 1
 1408.33 650 1540 741 1708 741 c 0
 1809.33 741 1895.5 706.166 1966.5 636.5 c 128
 2037.5 566.834 2073 482.334 2073 383 c 0
 2073 276.334 2037 185.834 1965 111.5 c 128
 1893 37.166 1805.33 0 1702 0 c 0
 1561.33 0 1438.33 54.666 1333 164 c 1
 1257.67 -33.334 1191.33 -159.334 1134 -214 c 128
 1076.67 -268.666 982 -296 850 -296 c 2
 716 -296 l 1
 716 -173 l 1
 779 -173 l 2
 905.666 -173 992.834 -147.334 1040.5 -96 c 128
 1088.17 -44.666 1149 89.666 1223 307 c 1
 1189.67 365.666 1167.83 414.5 1157.5 453.5 c 128
 1147.17 492.5 1133.67 578.334 1117 711 c 1
 1080 994 l 1
 1055.33 1180.67 1026.67 1309 994 1379 c 1
 909.334 1279.67 836.334 1144.83 775 974.5 c 128
 713.666 804.166 683 652 683 518 c 2
 683 438 l 1
 536 438 l 1
1366 289 m 1
 1473.33 170.334 1581.67 111 1691 111 c 0
 1765 111 1826.67 136.666 1876 188 c 128
 1925.33 239.334 1950 303.666 1950 381 c 0
 1950 449.666 1926.5 508.166 1879.5 556.5 c 128
 1832.5 604.834 1775.33 629 1708 629 c 0
 1562.67 629 1448.67 515.666 1366 289 c 1
EndSplineSet
EndChar
StartChar: aquarius
Encoding: 104 61544 73
Width: 2048
Flags: H
Back
173 225 m 1
 728 592 l 1
 850 308 l 1
 1280 592 l 1
 1400 308 l 1
 1830 592 l 1
 2008 174 l 1
 1893 123 l 1
 1774 407 l 1
 1342 123 l 1
 1222 407 l 1
 794 123 l 1
 673 407 l 1
 241 123 l 1
 173 225 l 1
174 990 m 1
 729 1357 l 1
 851 1073 l 1
 1281 1357 l 1
 1401 1073 l 1
 1831 1357 l 1
 2009 939 l 1
 1894 888 l 1
 1775 1172 l 1
 1342 888 l 1
 1222 1172 l 1
 794 888 l 1
 674 1172 l 1
 242 888 l 1
 174 990 l 1
EndSplineSet
EndChar
StartChar: pisces
Encoding: 105 61545 74
Width: 2048
Flags: H
Back
646 716 m 1
 646 594 617.834 465.166 561.5 329.5 c 128
 505.166 193.834 429.334 71.666 334 -37 c 1
 173 -37 l 1
 390.334 192.334 499 443.334 499 716 c 1
 184 716 l 1
 184 827 l 1
 499 827 l 1
 485.666 1063.67 377 1293.67 173 1517 c 1
 326 1517 l 1
 512.666 1317 619.334 1087 646 827 c 1
 952 827 l 1
 978.666 1087 1085.33 1317 1272 1517 c 1
 1425 1517 l 1
 1221 1293.67 1112.33 1063.67 1099 827 c 1
 1414 827 l 1
 1414 716 l 1
 1099 716 l 1
 1099 443.334 1207.67 192.334 1425 -37 c 1
 1264 -37 l 1
 1168.67 71.666 1092.83 193.834 1036.5 329.5 c 128
 980.166 465.166 952 594 952 716 c 1
 646 716 l 1
EndSplineSet
EndChar
StartChar: ampersanditlc
Encoding: 106 61546 75
Width: 2048
Flags: H
Back
1284 -210 m 1
 1406 404 l 1
 1291.33 268 1165.33 162.334 1028 87 c 128
 890.666 11.666 756 -26 624 -26 c 0
 492 -26 384.834 12 302.5 88 c 128
 220.166 164 179 263 179 385 c 0
 179 565.666 249.166 731.5 389.5 882.5 c 128
 529.834 1033.5 683.666 1109 851 1109 c 0
 923 1109 977 1089.5 1013 1050.5 c 128
 1049 1011.5 1067 953 1067 875 c 1
 1108.33 919 1149.83 952 1191.5 974 c 128
 1233.17 996 1275.33 1007 1318 1007 c 0
 1375.33 1007 1462.33 984.666 1579 940 c 2
 1673 905 l 2
 1809 853 1908.33 827 1971 827 c 0
 2010.34 827 2039.66 837.166 2059 857.5 c 128
 2078.34 877.834 2088 908.334 2088 949 c 0
 2088 990.334 2067.34 1024 2026 1050 c 1
 2160 1174 l 1
 2186 1128 2199 1081.33 2199 1034 c 0
 2199 950 2162 873 2088 803 c 128
 2014 733 1932.33 698 1843 698 c 0
 1791.67 698 1732.67 705.666 1666 721 c 1
 1498 -123 l 1
 1284 -210 l 1
387 486 m 1
 538.334 497.334 657.166 536.666 743.5 604 c 128
 829.834 671.334 873 757.666 873 863 c 0
 873 916.334 862.166 956.334 840.5 983 c 128
 818.834 1009.67 786 1023 742 1023 c 0
 654 1023 576.5 972.5 509.5 871.5 c 128
 442.5 770.5 401.666 642 387 486 c 1
1482 788 m 1
 1454 802 l 2
 1371.33 840 1303.67 859 1251 859 c 0
 1222.33 859 1190.33 850.834 1155 834.5 c 128
 1119.67 818.166 1080.67 793.666 1038 761 c 1
 934.666 555 716 442.666 382 424 c 1
 381.334 410.666 381 401 381 395 c 0
 381 309.666 415.834 239.666 485.5 185 c 128
 555.166 130.334 644.666 103 754 103 c 0
 922 103 1074.83 164 1212.5 286 c 128
 1350.17 408 1437 559.334 1473 740 c 1
 1482 788 l 1
EndSplineSet
EndChar
StartChar: ampersandit
Encoding: 107 61547 76
Width: 1646
VWidth: 1000
Flags: HW
Fore
1070 868 m 1
 1488 868 l 1
 1488 832 l 1
 1438 826 1396 814 1360 794 c 0
 1340 786 1288 710 1200 570 c 0
 1098 406 1042 318 1032 306 c 1
 1138 180 1238 118 1332 118 c 0
 1426 118 1488 168 1518 266 c 1
 1554 240 l 1
 1508 56 1404 -34 1246 -34 c 0
 1130 -34 1014 30 892 160 c 1
 742 30 598 -34 456 -34 c 0
 358 -34 276 -10 208 38 c 0
 136 94 98 168 98 264 c 0
 98 448 236 610 514 754 c 1
 460 876 432 974 432 1052 c 0
 432 1154 464 1234 528 1294 c 128
 594 1354 678 1384 780 1384 c 0
 856 1384 920 1362 972 1318 c 128
 1024 1276 1050 1216 1050 1140 c 0
 1050 1006 940 886 720 778 c 1
 816 616 904 478 986 364 c 1
 1102 506 1162 622 1162 716 c 0
 1162 794 1130 832 1070 832 c 1
 1070 868 l 1
686 844 m 1
 852 922 934 1024 934 1144 c 0
 934 1192 918 1230 888 1262 c 128
 860 1294 824 1310 778 1310 c 0
 726 1310 684 1292 652 1258 c 128
 618 1224 602 1180 602 1128 c 0
 602 1066 630 970 686 844 c 1
842 218 m 1
 702 410 602 566 546 686 c 1
 386 598 306 486 306 354 c 0
 306 276 328 212 374 162 c 128
 422 112 484 86 562 86 c 0
 642 86 736 130 842 218 c 1
EndSplineSet
Back
1030 79 m 1
 884 1.66602 729.666 -37 567 -37 c 0
 441.666 -37 338.5 -0.166016 257.5 73.5 c 128
 176.5 147.166 136 241.334 136 356 c 0
 136 465.334 173.166 560.5 247.5 641.5 c 128
 321.834 722.5 442 799 608 871 c 1
 576 953 560 1029.33 560 1100 c 0
 560 1208 603.834 1304.5 691.5 1389.5 c 128
 779.166 1474.5 878.666 1517 990 1517 c 0
 1065.33 1517 1127 1494.5 1175 1449.5 c 128
 1223 1404.5 1247 1346.33 1247 1275 c 0
 1247 1092.33 1102 954 812 860 c 1
 832 801.334 869.666 713 925 595 c 1
 1000.33 726.334 1084 816.334 1176 865 c 128
 1268 913.666 1400.67 938 1574 938 c 2
 1891 938 l 2
 2087.66 938 2215.66 949.334 2275 972 c 0
 2334.34 994 2364 1042.33 2364 1117 c 0
 2364 1183.67 2329 1231.33 2259 1260 c 1
 2403 1401 l 1
 2466.34 1349 2498 1283.67 2498 1205 c 0
 2498 1092.33 2432 995 2300 913 c 128
 2168 831 2012 790 1832 790 c 2
 1756 790 l 1
 1652 546.666 1465.67 342 1197 176 c 1
 1309.67 50 1435 -47.666 1573 -117 c 128
 1711 -186.334 1849 -221 1987 -221 c 0
 2111 -221 2211 -185.334 2287 -114 c 128
 2363 -42.666 2401 51 2401 167 c 0
 2401 275 2348 351.334 2242 396 c 1
 2403 547 l 1
 2503.66 499.666 2554 411.334 2554 282 c 0
 2554 113.334 2484.84 -29.334 2346.5 -146 c 128
 2208.16 -262.666 2039 -321 1839 -321 c 0
 1695 -321 1552.5 -286 1411.5 -216 c 128
 1270.5 -146 1143.33 -47.666 1030 79 c 1
790 917 m 1
 984.666 999.666 1082 1119.33 1082 1276 c 0
 1082 1333.33 1069.83 1376.33 1045.5 1405 c 128
 1021.17 1433.67 984.666 1448 936 1448 c 0
 878.666 1448 830.666 1424.33 792 1377 c 128
 753.334 1329.67 734 1271 734 1201 c 0
 734 1130.33 752.666 1035.67 790 917 c 1
977 143 m 1
 841 311.666 723.666 535 625 813 c 1
 438.334 726.334 345 595.666 345 421 c 0
 345 321 377.5 238.666 442.5 174 c 128
 507.5 109.334 590 77 690 77 c 0
 772.666 77 868.334 99 977 143 c 1
1605 790 m 1
 1488 790 l 2
 1238.67 790 1061 705.334 955 536 c 1
 1017.67 420.666 1084 316.666 1154 224 c 1
 1374 345.334 1524.33 534 1605 790 c 1
EndSplineSet
EndChar
StartChar: circle6
Encoding: 108 61548 77
Width: 2048
Flags: HW
Fore
172 740 m 0
 172 904 230 1044 346 1160 c 128
 462 1274 602 1332 766 1332 c 0
 928 1332 1068 1274 1184 1160 c 128
 1300 1044 1358 904 1358 740 c 0
 1358 576 1300 438 1184 322 c 128
 1068 206 928 148 766 148 c 0
 602 148 462 206 346 322 c 128
 230 438 172 576 172 740 c 0
EndSplineSet
Back
173 740 m 4
 173 903.334 230.834 1042.83 346.5 1158.5 c 132
 462.166 1274.17 601.666 1332 765 1332 c 4
 928.334 1332 1068 1274.17 1184 1158.5 c 132
 1300 1042.83 1358 903.334 1358 740 c 4
 1358 576.666 1300 437.166 1184 321.5 c 132
 1068 205.834 928.334 148 765 148 c 4
 601.666 148 462.166 205.834 346.5 321.5 c 132
 230.834 437.166 173 576.666 173 740 c 4
EndSplineSet
EndChar
StartChar: circleshadowdwn
Encoding: 109 61549 78
Width: 1950
VWidth: 1000
Flags: HW
Fore
872 1484 m 0
 948 1484 1036 1468 1138 1432 c 0
 1570 1282 1786 1040 1786 700 c 0
 1786 494 1720 326 1590 196 c 128
 1460 66 1292 0 1086 0 c 0
 1010 0 922 18 822 54 c 0
 392 204 178 450 178 788 c 0
 178 994 242 1160 370 1290 c 128
 500 1420 668 1484 872 1484 c 0
270 778 m 0
 270 604 326 460 440 350 c 0
 554 238 698 182 872 182 c 0
 1050 182 1196 238 1308 350 c 128
 1420 464 1476 608 1476 786 c 128
 1476 964 1420 1110 1308 1222 c 128
 1196 1334 1050 1390 872 1390 c 128
 694 1390 550 1334 438 1218 c 0
 326 1102 270 956 270 778 c 0
EndSplineSet
Back
1135 1427 m 1
 1349 1339 l 2
 1479 1285 1583.17 1199.5 1661.5 1082.5 c 128
 1739.83 965.5 1779 836.666 1779 696 c 0
 1779 503.334 1711 339.166 1575 203.5 c 128
 1439 67.834 1274.67 0 1082 0 c 0
 991.334 0 903 17.666 817 53 c 2
 603 142 l 2
 473 195.334 368.834 280.5 290.5 397.5 c 128
 212.166 514.5 173 643.334 173 784 c 0
 173 976 240.834 1140 376.5 1276 c 128
 512.166 1412 676 1480 868 1480 c 0
 953.334 1480 1042.33 1462.33 1135 1427 c 1
266 776 m 0
 266 613.334 325.334 473.5 444 356.5 c 128
 562.666 239.5 704.334 181 869 181 c 0
 1035 181 1177 240 1295 358 c 128
 1413 476 1472 618.334 1472 785 c 0
 1472 951 1413 1093 1295 1211 c 128
 1177 1329 1035 1388 869 1388 c 0
 700.334 1388 557.666 1328.67 441 1210 c 128
 324.334 1091.33 266 946.666 266 776 c 0
EndSplineSet
EndChar
StartChar: square6
Encoding: 110 61550 79
Width: 1562
Flags: HW
Fore
172 148 m 1
 172 1332 l 1
 1358 1332 l 1
 1358 148 l 1
 172 148 l 1
EndSplineSet
Back
173 148 m 5
 173 1332 l 5
 1357 1332 l 5
 1357 148 l 5
 173 148 l 5
EndSplineSet
EndChar
StartChar: box3
Encoding: 111 61551 80
Width: 1850
Flags: HW
Fore
370 196 m 1
 1456 196 l 1
 1456 1282 l 1
 370 1282 l 1
 370 196 l 1
172 0 m 1
 172 1480 l 1
 1652 1480 l 1
 1652 0 l 1
 172 0 l 1
EndSplineSet
Back
370 197 m 5
 1456 197 l 5
 1456 1283 l 5
 370 1283 l 5
 370 197 l 5
173 0 m 5
 173 1480 l 5
 1653 1480 l 5
 1653 0 l 5
 173 0 l 5
EndSplineSet
EndChar
StartChar: box4
Encoding: 112 61552 81
Width: 1902
Flags: HW
Fore
468 296 m 1
 1358 296 l 1
 1358 1184 l 1
 468 1184 l 1
 468 296 l 1
172 0 m 1
 172 1480 l 1
 1652 1480 l 1
 1652 0 l 1
 172 0 l 1
EndSplineSet
Back
469 296 m 5
 1357 296 l 5
 1357 1184 l 5
 469 1184 l 5
 469 296 l 5
173 0 m 5
 173 1480 l 5
 1653 1480 l 5
 1653 0 l 5
 173 0 l 5
EndSplineSet
EndChar
StartChar: boxshadowdwn
Encoding: 113 61553 82
Width: 1844
VWidth: 1000
Flags: HW
Fore
266 300 m 1
 1352 300 l 1
 1352 1384 l 1
 266 1384 l 1
 266 300 l 1
168 1484 m 1
 1454 1484 l 1
 1650 1284 l 1
 1650 0 l 1
 364 0 l 1
 168 196 l 1
 168 1484 l 1
EndSplineSet
Back
272 296 m 1
 1357 296 l 1
 1357 1382 l 1
 272 1382 l 1
 272 296 l 1
173 1480 m 1
 1456 1480 l 1
 1653 1283 l 1
 1653 0 l 1
 370 0 l 1
 173 197 l 1
 173 1480 l 1
EndSplineSet
EndChar
StartChar: boxshadowup
Encoding: 114 61554 83
Width: 1800
VWidth: 1000
Flags: HW
Fore
1356 94 m 1
 1356 1182 l 1
 268 1182 l 1
 270 94 l 1
 1356 94 l 1
172 -4 m 1
 172 1282 l 1
 368 1480 l 1
 1654 1480 l 1
 1654 194 l 1
 1458 -4 l 1
 172 -4 l 1
EndSplineSet
Back
1357 99 m 1
 1357 1184 l 1
 271 1184 l 1
 272 98 l 1
 1357 99 l 1
173 0 m 1
 173 1283 l 1
 370 1480 l 1
 1653 1480 l 1
 1653 197 l 1
 1456 0 l 1
 173 0 l 1
EndSplineSet
EndChar
StartChar: lozenge4
Encoding: 115 61555 84
Width: 1006
Flags: HW
Fore
172 740 m 1
 468 1160 l 1
 766 740 l 1
 468 322 l 1
 172 740 l 1
EndSplineSet
Back
173 740 m 5
 469 1159 l 5
 765 740 l 5
 469 321 l 5
 173 740 l 5
EndSplineSet
EndChar
StartChar: lozenge6
Encoding: 116 61556 85
Width: 2048
Flags: HW
Fore
168 740 m 1
 766 1580 l 1
 1364 740 l 1
 766 -96 l 1
 168 740 l 1
EndSplineSet
Back
173 740 m 5
 765 1578 l 5
 1357 740 l 5
 765 -97 l 5
 173 740 l 5
EndSplineSet
EndChar
StartChar: rhombus6
Encoding: 117 61557 86
Width: 2048
Flags: HW
Fore
172 740 m 5
 1010 1580 l 5
 1848 740 l 5
 1010 -96 l 5
 172 740 l 5
EndSplineSet
Back
173 740 m 5
 1010 1578 l 5
 1848 740 l 5
 1010 -97 l 5
 173 740 l 5
EndSplineSet
EndChar
StartChar: xrhombus
Encoding: 118 61558 87
Width: 1874
Flags: HW
Fore
474 440 m 1
 172 740 l 1
 474 1040 l 1
 774 740 l 1
 474 440 l 1
612 1180 m 1
 914 1480 l 1
 1214 1180 l 1
 914 878 l 1
 612 1180 l 1
1354 1040 m 1
 1652 740 l 1
 1354 440 l 1
 1052 740 l 1
 1354 1040 l 1
1212 300 m 1
 914 0 l 1
 612 300 l 1
 914 600 l 1
 1212 300 l 1
EndSplineSet
Back
473 440 m 5
 173 740 l 5
 473 1040 l 5
 774 740 l 5
 473 440 l 5
613 1180 m 5
 913 1480 l 5
 1214 1180 l 5
 913 879 l 5
 613 1180 l 5
1353 1040 m 5
 1653 740 l 5
 1353 440 l 5
 1053 740 l 5
 1353 1040 l 5
1213 300 m 5
 913 0 l 5
 613 300 l 5
 913 600 l 5
 1213 300 l 5
EndSplineSet
EndChar
StartChar: rhombus4
Encoding: 119 61559 88
Width: 1246
Flags: HW
Fore
172 740 m 1
 592 1160 l 1
 1010 740 l 1
 592 322 l 1
 172 740 l 1
EndSplineSet
Back
173 740 m 5
 592 1159 l 5
 1010 740 l 5
 592 321 l 5
 173 740 l 5
EndSplineSet
EndChar
StartChar: clear
Encoding: 120 8999 89
Width: 2172
Flags: HW
Fore
172 0 m 1
 172 1480 l 1
 1998 1480 l 1
 1998 0 l 1
 172 0 l 1
322 148 m 1
 1852 148 l 1
 1852 1332 l 1
 322 1332 l 1
 322 148 l 1
1086 846 m 1
 1452 1210 l 1
 1556 1106 l 1
 1190 740 l 1
 1556 374 l 1
 1452 268 l 1
 1086 634 l 1
 718 268 l 1
 614 374 l 1
 980 740 l 1
 614 1106 l 1
 718 1210 l 1
 1086 846 l 1
EndSplineSet
Back
173 0 m 5
 173 1480 l 5
 1999 1480 l 5
 1999 0 l 5
 173 0 l 5
321 148 m 5
 1851 148 l 5
 1851 1332 l 5
 321 1332 l 5
 321 148 l 5
1086 845 m 5
 1452 1211 l 5
 1557 1106 l 5
 1190 740 l 5
 1557 374 l 5
 1452 269 l 5
 1086 635 l 5
 719 269 l 5
 615 374 l 5
 981 740 l 5
 615 1106 l 5
 719 1211 l 5
 1086 845 l 5
EndSplineSet
EndChar
StartChar: escape
Encoding: 121 9243 90
Width: 2176
Flags: HW
Fore
172 0 m 1
 172 1480 l 1
 1998 1480 l 1
 1998 0 l 1
 172 0 l 1
322 148 m 1
 1852 148 l 1
 1852 1332 l 1
 322 1332 l 1
 322 148 l 1
1086 1184 m 1
 1726 542 l 1
 1622 438 l 1
 1086 974 l 1
 548 438 l 1
 444 542 l 1
 1086 1184 l 1
EndSplineSet
Back
173 0 m 5
 173 1480 l 5
 1999 1480 l 5
 1999 0 l 5
 173 0 l 5
321 148 m 5
 1851 148 l 5
 1851 1332 l 5
 321 1332 l 5
 321 148 l 5
1086 1184 m 5
 1727 543 l 5
 1623 438 l 5
 1086 975 l 5
 549 438 l 5
 444 543 l 5
 1086 1184 l 5
EndSplineSet
EndChar
StartChar: command
Encoding: 122 61562 91
Width: 1240
VWidth: 1000
Flags: HW
Fore
928 1112 m 1
 1084 1266 l 1
 1144 1204 l 1
 990 1050 l 1
 1062 958 1100 858 1100 750 c 0
 1100 640 1062 538 990 444 c 1
 1144 290 l 1
 1084 232 l 1
 928 386 l 1
 830 310 734 272 638 272 c 0
 496 272 392 310 322 386 c 1
 166 232 l 1
 102 290 l 1
 258 444 l 1
 186 528 150 628 150 748 c 0
 150 860 186 962 258 1050 c 1
 102 1204 l 1
 166 1266 l 1
 322 1112 l 1
 406 1184 508 1220 626 1220 c 0
 742 1220 844 1184 928 1112 c 1
624 1134 m 0
 518 1134 426 1096 350 1020 c 128
 274 944 236 852 236 746 c 0
 236 638 274 548 350 472 c 128
 426 396 518 358 624 358 c 0
 730 358 822 396 900 474 c 128
 976 550 1014 642 1014 748 c 0
 1014 852 976 944 900 1020 c 128
 822 1096 730 1134 624 1134 c 0
EndSplineSet
Back
1209 592 m 1
 1357 592 l 2
 1438.33 592 1508 562.834 1566 504.5 c 128
 1624 446.166 1653 376.666 1653 296 c 0
 1653 215.334 1624 145.834 1566 87.5 c 128
 1508 29.166 1438.33 0 1357 0 c 0
 1276.33 0 1206.83 29 1148.5 87 c 128
 1090.17 145 1061 214.666 1061 296 c 2
 1061 444 l 1
 765 444 l 1
 765 296 l 2
 765 216 736 146.666 678 88 c 128
 620 29.334 550.334 0 469 0 c 0
 389 0 319.666 28.834 261 86.5 c 128
 202.334 144.166 173 214 173 296 c 0
 173 377.334 202.166 447 260.5 505 c 128
 318.834 563 388.334 592 469 592 c 2
 617 592 l 1
 617 888 l 1
 469 888 l 2
 388.334 888 318.834 917 260.5 975 c 128
 202.166 1033 173 1102.67 173 1184 c 0
 173 1265.33 202.166 1335 260.5 1393 c 128
 318.834 1451 388.334 1480 469 1480 c 0
 549.666 1480 619.166 1451 677.5 1393 c 128
 735.834 1335 765 1265.33 765 1184 c 2
 765 1036 l 1
 1061 1036 l 1
 1061 1184 l 2
 1061 1265.33 1090.17 1335 1148.5 1393 c 128
 1206.83 1451 1276.33 1480 1357 1480 c 0
 1437.67 1480 1507.17 1451 1565.5 1393 c 128
 1623.83 1335 1653 1265.33 1653 1184 c 0
 1653 1103.33 1624 1033.83 1566 975.5 c 128
 1508 917.166 1438.33 888 1357 888 c 2
 1209 888 l 1
 1209 592 l 1
1209 1036 m 1
 1357 1036 l 2
 1397.67 1036 1432.5 1050.67 1461.5 1080 c 128
 1490.5 1109.33 1505 1144 1505 1184 c 0
 1505 1224 1490.5 1258.67 1461.5 1288 c 128
 1432.5 1317.33 1397.67 1332 1357 1332 c 0
 1316.33 1332 1281.5 1317.5 1252.5 1288.5 c 128
 1223.5 1259.5 1209 1224.67 1209 1184 c 2
 1209 1036 l 1
617 444 m 1
 469 444 l 2
 428.334 444 393.5 429.334 364.5 400 c 128
 335.5 370.666 321 336 321 296 c 0
 321 256 335.5 221.334 364.5 192 c 128
 393.5 162.666 428.334 148 469 148 c 0
 509.666 148 544.5 162.666 573.5 192 c 128
 602.5 221.334 617 256 617 296 c 2
 617 444 l 1
617 1036 m 1
 617 1184 l 2
 617 1224 602.334 1258.67 573 1288 c 128
 543.666 1317.33 509 1332 469 1332 c 0
 429.666 1332 395.166 1317.67 365.5 1289 c 128
 335.834 1260.33 321 1225.33 321 1184 c 0
 321 1143.33 335.5 1108.5 364.5 1079.5 c 128
 393.5 1050.5 428.334 1036 469 1036 c 2
 617 1036 l 1
1209 444 m 1
 1209 296 l 2
 1209 255.334 1223.67 220.5 1253 191.5 c 128
 1282.33 162.5 1317 148 1357 148 c 0
 1397 148 1431.67 162.5 1461 191.5 c 128
 1490.33 220.5 1505 255.334 1505 296 c 0
 1505 336.666 1490.5 371.5 1461.5 400.5 c 128
 1432.5 429.5 1397.67 444 1357 444 c 2
 1209 444 l 1
1061 592 m 1
 1061 888 l 1
 765 888 l 1
 765 592 l 1
 1061 592 l 1
EndSplineSet
EndChar
StartChar: rosette
Encoding: 123 61563 92
Width: 1910
VWidth: 1000
Flags: HW
Fore
934 150 m 1
 868 28 772 -32 646 -32 c 0
 546 -32 460 2 390 72 c 128
 318 142 282 226 282 326 c 0
 282 400 314 474 374 546 c 1
 290 564 222 602 170 662 c 128
 118 720 92 792 92 876 c 0
 92 972 124 1056 190 1126 c 128
 254 1198 334 1234 430 1234 c 0
 476 1234 524 1224 578 1202 c 1
 574 1248 572 1284 572 1308 c 0
 572 1392 610 1460 688 1514 c 0
 760 1564 836 1590 922 1590 c 0
 1030 1590 1114 1554 1178 1480 c 128
 1242 1410 1270 1320 1264 1212 c 1
 1316 1236 1366 1250 1414 1250 c 0
 1510 1250 1592 1214 1656 1144 c 128
 1722 1074 1756 990 1756 890 c 0
 1756 810 1730 740 1680 682 c 128
 1628 622 1564 582 1482 562 c 1
 1550 492 1584 414 1584 330 c 0
 1584 234 1546 150 1474 76 c 128
 1402 4 1318 -32 1222 -32 c 0
 1100 -32 1004 28 934 150 c 1
920 940 m 0
 870 940 824 920 786 882 c 128
 748 844 730 800 730 750 c 0
 730 700 748 654 786 616 c 128
 824 578 870 560 920 560 c 0
 972 560 1016 578 1054 616 c 128
 1092 654 1112 698 1112 750 c 0
 1112 800 1092 844 1054 882 c 128
 1016 920 972 940 920 940 c 0
EndSplineSet
Back
909 144 m 1
 890.334 107.334 866.666 79.666 838 61 c 128
 809.334 42.334 776 33 738 33 c 0
 672.666 33 617.334 68.334 572 139 c 2
 556 164 l 2
 534 198 503.334 219.334 464 228 c 2
 435 234 l 2
 389 244 351.334 266.666 322 302 c 128
 292.666 337.334 278 377.666 278 423 c 0
 278 465.666 300.666 511.666 346 561 c 1
 288.666 573 245.5 594.834 216.5 626.5 c 128
 187.5 658.166 173 700 173 752 c 0
 173 790 187.666 827.334 217 864 c 2
 241 893 l 2
 272.334 931.666 288 961.334 288 982 c 0
 288 989.334 287.334 999.666 286 1013 c 1
 284 1050 l 1
 283.334 1058.67 283 1067 283 1075 c 0
 283 1121 302 1163 340 1201 c 0
 377.334 1239 418.666 1258 464 1258 c 0
 494.666 1258 530.334 1247.67 571 1227 c 1
 565.666 1248.33 563 1264 563 1274 c 0
 563 1320 581.666 1361 619 1397 c 128
 656.334 1433 699 1451 747 1451 c 0
 769.666 1451 794.334 1446 821 1436 c 2
 855 1424 l 1
 886.334 1411.33 907.334 1405 918 1405 c 0
 933.334 1405 953.666 1410.33 979 1421 c 2
 1007 1434 l 2
 1033 1445.33 1058.67 1451 1084 1451 c 0
 1132.67 1451 1176.17 1433 1214.5 1397 c 128
 1252.83 1361 1272 1320 1272 1274 c 0
 1272 1260.67 1270.33 1242 1267 1218 c 1
 1281.67 1228 1297.33 1235.33 1314 1240 c 128
 1330.67 1244.67 1348.33 1247 1367 1247 c 0
 1419.67 1247 1463.67 1227 1499 1187 c 0
 1534.33 1147 1550.33 1099.33 1547 1044 c 1
 1545 1002 l 1
 1543.67 982.666 1543 971 1543 967 c 0
 1543 945 1556 919 1582 889 c 2
 1600 869 l 2
 1635.33 829 1653 788 1653 746 c 0
 1653 696.666 1639.17 655.666 1611.5 623 c 128
 1583.83 590.334 1542 566.334 1486 551 c 1
 1524 505 1543 460 1543 416 c 0
 1543 320.666 1493.67 260 1395 234 c 2
 1365 226 l 2
 1315.67 213.334 1281.67 190 1263 156 c 2
 1246 126 l 2
 1210.67 63.334 1156 32 1082 32 c 0
 1048.67 32 1017.67 41.334 989 60 c 128
 960.334 78.666 933.666 106.666 909 144 c 1
935 431 m 1
 931.666 402.334 930 377 930 355 c 0
 930 264.334 942.666 196.166 968 150.5 c 128
 993.334 104.834 1031 82 1081 82 c 0
 1131 82 1173 108.334 1207 161 c 2
 1227 191 l 2
 1255 234.334 1296 262.334 1350 275 c 2
 1382 282 l 2
 1456.67 299.334 1494 344.666 1494 418 c 0
 1494 458 1467 504 1413 556 c 1
 1327 566.666 1255.67 587.666 1199 619 c 1
 1214 665 l 1
 1310.67 623 1391.33 602 1456 602 c 0
 1505.33 602 1542.17 613.666 1566.5 637 c 128
 1590.83 660.334 1603 695.334 1603 742 c 0
 1603 772 1590 802.334 1564 833 c 2
 1540 861 l 2
 1508 899 1492 938.666 1492 980 c 0
 1492 987.334 1492.33 995 1493 1003 c 1
 1495 1037 l 1
 1495.67 1044.33 1496 1052.33 1496 1061 c 0
 1496 1099.67 1483.67 1132.33 1459 1159 c 0
 1433.67 1185.67 1403 1199 1367 1199 c 0
 1347.67 1199 1327.5 1195.17 1306.5 1187.5 c 128
 1285.5 1179.83 1263.67 1168.33 1241 1153 c 1
 1203.67 1081.67 1163 1022.33 1119 975 c 1
 1079 1005 l 1
 1173 1113.67 1220 1203 1220 1273 c 0
 1220 1307.67 1206.67 1337.67 1180 1363 c 128
 1153.33 1388.33 1121.33 1401 1084 1401 c 0
 1068.67 1401 1049.33 1396.33 1026 1387 c 2
 993 1374 l 2
 962.334 1361.33 937.334 1355 918 1355 c 0
 902 1355 876 1362.33 840 1377 c 2
 809 1389 l 2
 784.334 1398.33 763 1403 745 1403 c 0
 706.334 1403 674.666 1389.67 650 1363 c 128
 625.334 1336.33 613 1302.33 613 1261 c 0
 613 1242.33 615.334 1217.67 620 1187 c 1
 668 1139.67 713 1080.67 755 1010 c 1
 715 982 l 1
 623 1133.33 541 1209 469 1209 c 0
 428.334 1209 395 1194 369 1164 c 0
 342.334 1133.33 330 1096 332 1052 c 1
 334 1016 l 1
 334.666 1007.33 335 998.334 335 989 c 0
 335 951 317 910.666 281 868 c 2
 258 840 l 2
 233.334 810.666 221 780 221 748 c 0
 221 712 235.666 681.166 265 655.5 c 128
 294.334 629.834 338 609.666 396 595 c 1
 452.666 627 523.666 653.334 609 674 c 1
 624 627 l 1
 506.666 593 428 562 388 534 c 128
 348 506 328 468 328 420 c 0
 328 346 365.334 300.666 440 284 c 2
 473 276 l 2
 528.334 263.334 570.334 234.334 599 189 c 2
 618 159 l 2
 649.334 109 690.666 84 742 84 c 0
 770 84 796.5 93.834 821.5 113.5 c 128
 846.5 133.166 870 162.666 892 202 c 1
 882 248.666 877 300 877 356 c 0
 877 379.334 879.334 404.334 884 431 c 1
 935 431 l 1
914 580 m 1
 892 527 l 1
 847 537 l 1
 849 593 l 1
 782 516 l 1
 744 545 l 1
 794 634 l 1
 740 615 l 1
 717 658 l 1
 760 694 l 1
 705 696 l 1
 700 742 l 1
 754 757 l 1
 659 797 l 1
 675 843 l 1
 774 820 l 1
 741 868 l 1
 774 902 l 1
 819 871 l 1
 805 924 l 1
 850 945 l 1
 878 898 l 1
 887 999 l 1
 937 999 l 1
 945 898 l 1
 979 945 l 1
 1024 924 l 1
 1009 870 l 1
 1054 901 l 1
 1086 867 l 1
 1051 823 l 1
 1152 847 l 1
 1165 801 l 1
 1073 760 l 1
 1127 744 l 1
 1121 695 l 1
 1067 693 l 1
 1110 659 l 1
 1087 616 l 1
 1034 636 l 1
 1090 550 l 1
 1049 520 l 1
 982 595 l 1
 981 537 l 1
 935 528 l 1
 914 580 l 1
914 594 m 0
 955.334 594 990.334 608.334 1019 637 c 128
 1047.67 665.666 1062 700.666 1062 742 c 0
 1062 783.334 1047.67 818.334 1019 847 c 128
 990.334 875.666 955.334 890 914 890 c 0
 872.666 890 837.666 875.666 809 847 c 128
 780.334 818.334 766 783.334 766 742 c 0
 766 700.666 780.166 665.666 808.5 637 c 128
 836.834 608.334 872 594 914 594 c 0
912 680 m 0
 872 680 852 700.666 852 742 c 0
 852 782.666 872 803 912 803 c 0
 952 803 972 782.666 972 742 c 0
 972 700.666 952 680 912 680 c 0
EndSplineSet
EndChar
StartChar: rosettesolid
Encoding: 124 61564 93
Width: 1848
VWidth: 1000
Flags: HW
Fore
1094 1320 m 0
 1094 1272 1052 1132 966 900 c 1
 932 908 894 908 854 900 c 1
 770 1130 730 1270 730 1320 c 0
 730 1372 746 1414 780 1450 c 128
 816 1484 860 1502 912 1502 c 0
 960 1502 1002 1484 1038 1448 c 128
 1076 1412 1094 1370 1094 1320 c 0
840 1310 m 0
 840 1276 862 1258 908 1258 c 0
 950 1258 970 1276 970 1310 c 0
 970 1348 950 1366 908 1366 c 0
 862 1366 840 1348 840 1310 c 0
1060 814 m 1
 1044 848 1018 874 984 890 c 1
 1050 1038 1092 1128 1112 1160 c 0
 1180 1276 1250 1336 1320 1336 c 0
 1370 1336 1414 1316 1450 1280 c 128
 1486 1244 1506 1200 1506 1150 c 0
 1506 1080 1446 1010 1330 940 c 0
 1298 922 1208 880 1060 814 c 1
1268 1164 m 0
 1268 1126 1288 1108 1332 1108 c 0
 1374 1108 1396 1126 1396 1164 c 0
 1396 1198 1374 1216 1332 1216 c 0
 1288 1216 1268 1198 1268 1164 c 0
838 890 m 1
 804 874 778 848 760 814 c 1
 612 878 522 918 492 938 c 0
 376 1008 320 1078 320 1150 c 0
 320 1200 338 1244 374 1280 c 128
 412 1316 454 1336 504 1336 c 0
 574 1336 644 1276 712 1160 c 0
 718 1148 760 1058 838 890 c 1
464 1128 m 0
 464 1092 486 1074 530 1074 c 0
 572 1074 594 1092 594 1128 c 0
 594 1164 572 1182 530 1182 c 0
 486 1182 464 1164 464 1128 c 0
1674 742 m 0
 1674 692 1654 650 1618 612 c 128
 1582 576 1538 560 1488 560 c 0
 1438 560 1298 600 1070 684 c 1
 1078 720 1078 758 1070 798 c 1
 1302 882 1442 924 1488 924 c 0
 1538 924 1582 906 1618 868 c 128
 1654 832 1674 790 1674 742 c 0
1420 732 m 0
 1420 698 1442 680 1484 680 c 0
 1528 680 1548 698 1548 732 c 0
 1548 768 1528 786 1484 786 c 0
 1442 786 1420 768 1420 732 c 0
752 684 m 1
 522 600 382 560 330 560 c 0
 282 560 240 576 202 612 c 128
 166 650 148 692 148 742 c 0
 148 790 166 832 202 868 c 128
 240 906 282 924 330 924 c 0
 380 924 520 882 752 798 c 1
 746 780 744 762 744 742 c 0
 744 720 746 702 752 684 c 1
262 748 m 0
 262 712 284 694 328 694 c 0
 370 694 392 712 392 748 c 0
 392 784 370 802 328 802 c 0
 284 802 262 784 262 748 c 0
1320 148 m 0
 1250 148 1180 206 1112 324 c 0
 1092 354 1050 444 984 592 c 1
 1018 606 1044 632 1060 668 c 1
 1208 602 1298 560 1330 540 c 0
 1446 472 1506 402 1506 332 c 0
 1506 282 1486 238 1450 202 c 128
 1414 166 1370 148 1320 148 c 0
1274 314 m 0
 1274 280 1296 262 1340 262 c 0
 1382 262 1402 280 1402 314 c 0
 1402 350 1382 368 1340 368 c 0
 1296 368 1274 350 1274 314 c 0
838 592 m 1
 716 296 604 148 504 148 c 0
 454 148 412 166 374 202 c 128
 338 238 320 282 320 332 c 0
 320 400 378 470 494 540 c 0
 518 556 606 598 760 668 c 1
 776 630 802 606 838 592 c 1
430 322 m 0
 430 286 452 268 496 268 c 0
 538 268 560 286 560 322 c 0
 560 358 538 374 496 374 c 0
 452 374 430 358 430 322 c 0
1094 160 m 0
 1094 110 1076 68 1040 32 c 128
 1004 -2 962 -20 912 -20 c 0
 862 -20 820 -2 784 32 c 128
 748 70 730 112 730 160 c 0
 730 212 770 352 854 582 c 1
 894 574 932 574 966 582 c 1
 1052 350 1094 210 1094 160 c 0
856 156 m 0
 856 120 878 102 922 102 c 0
 964 102 986 120 986 156 c 0
 986 192 964 210 922 210 c 0
 878 210 856 192 856 156 c 0
EndSplineSet
Back
914 580 m 1
 935 528 l 1
 981 537 l 1
 982 595 l 1
 1049 520 l 1
 1090 550 l 1
 1034 636 l 1
 1087 616 l 1
 1110 659 l 1
 1067 693 l 1
 1121 695 l 1
 1127 744 l 1
 1073 760 l 1
 1165 801 l 1
 1152 847 l 1
 1051 823 l 1
 1086 867 l 1
 1054 901 l 1
 1009 870 l 1
 1024 924 l 1
 979 945 l 1
 945 898 l 1
 937 999 l 1
 887 999 l 1
 878 898 l 1
 850 945 l 1
 805 924 l 1
 819 871 l 1
 774 902 l 1
 741 868 l 1
 774 820 l 1
 675 843 l 1
 659 797 l 1
 754 757 l 1
 700 742 l 1
 705 696 l 1
 760 694 l 1
 717 658 l 1
 740 615 l 1
 794 634 l 1
 744 545 l 1
 782 516 l 1
 849 593 l 1
 847 537 l 1
 892 527 l 1
 914 580 l 1
914 594 m 0
 872 594 836.834 608.334 808.5 637 c 128
 780.166 665.666 766 700.666 766 742 c 0
 766 783.334 780.334 818.334 809 847 c 128
 837.666 875.666 872.666 890 914 890 c 0
 955.334 890 990.334 875.666 1019 847 c 128
 1047.67 818.334 1062 783.334 1062 742 c 0
 1062 700.666 1047.67 665.666 1019 637 c 128
 990.334 608.334 955.334 594 914 594 c 0
912 680 m 0
 932 680 947 685.166 957 695.5 c 128
 967 705.834 972 721.334 972 742 c 0
 972 762.666 967 778 957 788 c 128
 947 798 932 803 912 803 c 0
 892 803 877 798 867 788 c 128
 857 778 852 762.666 852 742 c 0
 852 721.334 857 705.834 867 695.5 c 128
 877 685.166 892 680 912 680 c 0
914 312 m 1
 890.666 139.334 825.334 53 718 53 c 0
 656 53 609.666 81 579 137 c 2
 564 165 l 2
 543.334 203 509.666 228 463 240 c 2
 431 248 l 2
 337 270.666 290 323 290 405 c 0
 290 494.334 357 567 491 623 c 1
 440.334 615 399.666 611 369 611 c 0
 313 611 266.334 626.666 229 658 c 128
 191.666 689.334 173 728.334 173 775 c 0
 173 812.334 188.666 848.334 220 883 c 2
 244 910 l 2
 272 940.666 286 969.666 286 997 c 0
 286 1003 285 1017.33 283 1040 c 1
 280 1066 l 1
 280 1085 l 2
 280 1195 334 1250 442 1250 c 0
 509.334 1250 581.334 1206.67 658 1120 c 1
 615.334 1192 594 1256.67 594 1314 c 0
 594 1358.67 608.5 1396.17 637.5 1426.5 c 128
 666.5 1456.83 702.334 1472 745 1472 c 0
 769 1472 791.666 1467.33 813 1458 c 2
 838 1446 l 2
 872.666 1430.67 898.666 1423 916 1423 c 0
 930 1423 950.666 1428.33 978 1439 c 2
 1007 1451 l 2
 1039.67 1464.33 1066.67 1471 1088 1471 c 0
 1132 1471 1169.67 1454 1201 1420 c 128
 1232.33 1386 1248 1345.33 1248 1298 c 0
 1248 1244.67 1225 1184.67 1179 1118 c 1
 1256.33 1206 1328.67 1250 1396 1250 c 0
 1440.67 1250 1477.33 1234.67 1506 1204 c 128
 1534.67 1173.33 1549 1133.67 1549 1085 c 0
 1549 1075 1548.33 1066 1547 1058 c 2
 1543 1034 l 1
 1541.67 1024 1541 1013.67 1541 1003 c 0
 1541 968.334 1555.67 934.666 1585 902 c 2
 1604 880 l 2
 1637.33 842.666 1654 805.666 1654 769 c 0
 1654 720.334 1636.5 679.666 1601.5 647 c 128
 1566.5 614.334 1523 598 1471 598 c 0
 1437.67 598 1393.67 603.334 1339 614 c 1
 1471 558 1537 486.334 1537 399 c 0
 1537 321 1495.67 272 1413 252 c 2
 1384 244 l 2
 1328 230.666 1288.67 204.666 1266 166 c 2
 1253 143 l 1
 1217 83 1168.67 53 1108 53 c 0
 991.334 53 926.666 139.334 914 312 c 1
EndSplineSet
EndChar
StartChar: quotedbllftbld
Encoding: 125 61565 94
Width: 1112
VWidth: 1000
Flags: HW
Fore
516 1032 m 0
 516 948 474 908 388 908 c 0
 326 908 276 936 240 996 c 0
 206 1048 190 1106 190 1170 c 0
 190 1260 226 1340 296 1410 c 128
 368 1478 450 1512 540 1512 c 1
 550 1508 l 1
 558 1498 l 1
 552 1486 l 1
 386 1404 304 1312 304 1210 c 0
 304 1184 310 1158 324 1132 c 1
 354 1150 382 1160 406 1160 c 0
 436 1160 462 1146 484 1118 c 128
 506 1092 516 1064 516 1032 c 0
850 1160 m 2
 882 1160 908 1146 932 1122 c 128
 954 1098 964 1070 964 1040 c 0
 964 1002 950 970 920 944 c 128
 890 916 854 904 816 904 c 0
 756 904 710 930 674 986 c 0
 646 1032 630 1086 630 1150 c 0
 630 1238 660 1318 718 1392 c 0
 782 1472 856 1512 940 1512 c 1
 972 1504 l 1
 984 1496 l 1
 978 1486 l 1
 904 1444 852 1408 822 1378 c 0
 770 1330 746 1274 746 1212 c 0
 746 1198 752 1170 764 1132 c 1
 788 1142 816 1150 852 1160 c 2
 850 1160 l 2
EndSplineSet
Back
1012 1579 m 1
 1012 1456 l 1
 910 1456 853.334 1390 842 1258 c 1
 1012 1258 l 1
 1012 864 l 1
 617 864 l 1
 617 1147 l 2
 617 1291 648 1396.83 710 1464.5 c 128
 772 1532.17 872.666 1570.33 1012 1579 c 1
469 1579 m 1
 469 1456 l 1
 367.666 1456 311 1390 299 1258 c 1
 469 1258 l 1
 469 864 l 1
 74 864 l 1
 74 1147 l 2
 74 1291 105 1396.83 167 1464.5 c 128
 229 1532.17 329.666 1570.33 469 1579 c 1
EndSplineSet
EndChar
StartChar: quotedblrtbld
Encoding: 126 61566 95
Width: 1042
VWidth: 1000
Flags: HW
Fore
358 1212 m 1
 358 1242 352 1272 338 1304 c 1
 314 1290 288 1282 260 1282 c 0
 228 1282 200 1294 176 1318 c 128
 152 1344 140 1372 140 1404 c 0
 140 1440 154 1470 182 1496 c 128
 210 1520 244 1532 278 1532 c 0
 340 1532 390 1508 430 1458 c 0
 466 1412 484 1356 484 1292 c 0
 484 1208 450 1126 386 1046 c 128
 318 968 244 928 160 928 c 1
 124 942 l 1
 142 964 l 1
 202 986 250 1018 288 1058 c 1
 336 1106 360 1160 360 1216 c 1
 358 1212 l 1
690 1284 m 2
 658 1284 632 1296 612 1320 c 128
 592 1346 582 1374 582 1406 c 0
 582 1442 596 1472 624 1496 c 128
 654 1518 686 1530 720 1530 c 0
 780 1530 828 1502 864 1448 c 0
 892 1402 908 1346 908 1282 c 0
 908 1192 874 1110 808 1038 c 128
 744 966 666 930 578 930 c 1
 552 946 l 1
 630 1002 630 1002 710 1056 c 0
 766 1100 794 1152 794 1216 c 0
 794 1246 792 1274 784 1298 c 1
 752 1288 720 1284 688 1284 c 2
 690 1284 l 2
EndSplineSet
Back
74 864 m 1
 74 987 l 1
 176 987 232.666 1052.67 244 1184 c 1
 74 1184 l 1
 74 1579 l 1
 469 1579 l 1
 469 1295 l 2
 469 1151.67 438 1046 376 978 c 128
 314 910 213.334 872 74 864 c 1
617 864 m 1
 617 987 l 1
 719 987 775.334 1052.67 786 1184 c 1
 617 1184 l 1
 617 1579 l 1
 1012 1579 l 1
 1012 1295 l 2
 1012 1151.67 980.834 1046 918.5 978 c 128
 856.166 910 755.666 872 617 864 c 1
EndSplineSet
EndChar
StartChar: zerosans
Encoding: 128 61568 96
Width: 1826
Flags: HW
Fore
172 740 m 0
 172 944 244 1118 390 1264 c 128
 534 1408 708 1480 914 1480 c 0
 1118 1480 1292 1408 1436 1264 c 128
 1580 1118 1652 944 1652 740 c 0
 1652 534 1580 360 1436 218 c 128
 1292 72 1118 0 914 0 c 0
 708 0 534 72 390 218 c 128
 244 360 172 534 172 740 c 0
272 740 m 0
 272 562 334 410 458 286 c 128
 584 162 736 98 914 98 c 0
 1090 98 1242 162 1366 286 c 128
 1492 410 1554 562 1554 740 c 0
 1554 916 1492 1068 1366 1194 c 128
 1242 1320 1090 1382 914 1382 c 0
 736 1382 584 1320 458 1194 c 128
 334 1068 272 916 272 740 c 0
914 252 m 0
 816 252 736 296 676 386 c 128
 618 476 588 594 588 742 c 0
 588 888 618 1006 676 1096 c 128
 736 1186 816 1230 914 1230 c 0
 1012 1230 1090 1186 1150 1096 c 128
 1210 1006 1240 888 1240 742 c 0
 1240 594 1210 476 1150 386 c 128
 1090 296 1012 252 914 252 c 0
914 344 m 0
 978 344 1028 378 1058 444 c 128
 1092 510 1108 608 1108 742 c 0
 1108 872 1092 972 1058 1038 c 128
 1028 1104 978 1136 914 1136 c 0
 848 1136 800 1104 768 1038 c 128
 736 972 718 872 718 742 c 0
 718 608 736 510 768 444 c 128
 800 378 848 344 914 344 c 0
EndSplineSet
Back
173 740 m 4
 173 944.666 245.166 1119.17 389.5 1263.5 c 132
 533.834 1407.83 708.334 1480 913 1480 c 4
 1117.67 1480 1292.17 1407.83 1436.5 1263.5 c 132
 1580.83 1119.17 1653 944.666 1653 740 c 4
 1653 535.334 1580.83 360.834 1436.5 216.5 c 132
 1292.17 72.166 1117.67 0 913 0 c 4
 708.334 0 533.834 72.166 389.5 216.5 c 132
 245.166 360.834 173 535.334 173 740 c 4
272 740 m 4
 272 562.666 334.5 411.5 459.5 286.5 c 132
 584.5 161.5 735.666 99 913 99 c 4
 1090.33 99 1241.67 161.5 1367 286.5 c 132
 1492.33 411.5 1555 562.666 1555 740 c 4
 1555 917.334 1492.33 1068.67 1367 1194 c 132
 1241.67 1319.33 1090.33 1382 913 1382 c 4
 735.666 1382 584.5 1319.33 459.5 1194 c 132
 334.5 1068.67 272 917.334 272 740 c 4
913 251 m 4
 815 251 736.166 295.834 676.5 385.5 c 132
 616.834 475.166 587 593.666 587 741 c 4
 587 887.666 616.834 1006 676.5 1096 c 132
 736.166 1186 815 1231 913 1231 c 4
 1011 1231 1090 1186 1150 1096 c 132
 1210 1006 1240 887.666 1240 741 c 4
 1240 593.666 1210 475.166 1150 385.5 c 132
 1090 295.834 1011 251 913 251 c 4
913 344 m 4
 978.334 344 1027.17 377.166 1059.5 443.5 c 132
 1091.83 509.834 1108 609 1108 741 c 4
 1108 873 1091.83 972 1059.5 1038 c 132
 1027.17 1104 978.334 1137 913 1137 c 4
 848.334 1137 799.834 1104 767.5 1038 c 132
 735.166 972 719 873 719 741 c 4
 719 609 735.166 509.834 767.5 443.5 c 132
 799.834 377.166 848.334 344 913 344 c 4
EndSplineSet
EndChar
StartChar: onesans
Encoding: 129 61569 97
Width: 1826
Flags: HW
Fore
172 740 m 0
 172 944 244 1118 390 1264 c 128
 534 1408 708 1480 914 1480 c 0
 1118 1480 1292 1408 1436 1264 c 128
 1580 1118 1652 944 1652 740 c 0
 1652 534 1580 360 1436 218 c 128
 1292 72 1118 0 914 0 c 0
 708 0 534 72 390 218 c 128
 244 360 172 534 172 740 c 0
272 740 m 0
 272 562 334 410 458 286 c 128
 584 162 736 98 914 98 c 0
 1090 98 1242 162 1366 286 c 128
 1492 410 1554 562 1554 740 c 0
 1554 916 1492 1068 1366 1194 c 128
 1242 1320 1090 1382 914 1382 c 0
 736 1382 584 1320 458 1194 c 128
 334 1068 272 916 272 740 c 0
864 270 m 1
 864 1110 l 1
 716 1110 l 1
 716 1190 l 1
 988 1212 l 1
 988 270 l 1
 864 270 l 1
EndSplineSet
Back
173 740 m 4
 173 944.666 245.166 1119.17 389.5 1263.5 c 132
 533.834 1407.83 708.334 1480 913 1480 c 4
 1117.67 1480 1292.17 1407.83 1436.5 1263.5 c 132
 1580.83 1119.17 1653 944.666 1653 740 c 4
 1653 535.334 1580.83 360.834 1436.5 216.5 c 132
 1292.17 72.166 1117.67 0 913 0 c 4
 708.334 0 533.834 72.166 389.5 216.5 c 132
 245.166 360.834 173 535.334 173 740 c 4
272 740 m 4
 272 562.666 334.5 411.5 459.5 286.5 c 132
 584.5 161.5 735.666 99 913 99 c 4
 1090.33 99 1241.67 161.5 1367 286.5 c 132
 1492.33 411.5 1555 562.666 1555 740 c 4
 1555 917.334 1492.33 1068.67 1367 1194 c 132
 1241.67 1319.33 1090.33 1382 913 1382 c 4
 735.666 1382 584.5 1319.33 459.5 1194 c 132
 334.5 1068.67 272 917.334 272 740 c 4
864 271 m 5
 864 1111 l 5
 716 1111 l 5
 716 1189 l 5
 988 1212 l 5
 988 271 l 5
 864 271 l 5
EndSplineSet
EndChar
StartChar: twosans
Encoding: 130 61570 98
Width: 1812
Flags: HW
Fore
172 740 m 0
 172 944 244 1118 390 1264 c 128
 534 1408 708 1480 914 1480 c 0
 1118 1480 1292 1408 1436 1264 c 128
 1580 1118 1652 944 1652 740 c 0
 1652 534 1580 360 1436 218 c 128
 1292 72 1118 0 914 0 c 0
 708 0 534 72 390 218 c 128
 244 360 172 534 172 740 c 0
272 740 m 0
 272 562 334 410 458 286 c 128
 584 162 736 98 914 98 c 0
 1090 98 1242 162 1366 286 c 128
 1492 410 1554 562 1554 740 c 0
 1554 916 1492 1068 1366 1194 c 128
 1242 1320 1090 1382 914 1382 c 0
 736 1382 584 1320 458 1194 c 128
 334 1068 272 916 272 740 c 0
642 284 m 1
 642 394 l 1
 676 476 750 568 860 668 c 2
 932 734 l 2
 1024 816 1070 898 1070 978 c 0
 1070 1034 1054 1076 1024 1104 c 128
 996 1132 952 1146 892 1146 c 0
 830 1146 754 1122 666 1072 c 1
 666 1182 l 1
 748 1220 830 1240 912 1240 c 0
 998 1240 1070 1216 1122 1170 c 128
 1174 1122 1200 1058 1200 980 c 0
 1200 926 1188 876 1162 834 c 128
 1134 790 1084 738 1012 676 c 2
 964 634 l 2
 864 550 808 470 792 394 c 1
 1196 394 l 1
 1196 284 l 1
 642 284 l 1
EndSplineSet
Back
173 740 m 4
 173 944.666 245.166 1119.17 389.5 1263.5 c 132
 533.834 1407.83 708.334 1480 913 1480 c 4
 1117.67 1480 1292.17 1407.83 1436.5 1263.5 c 132
 1580.83 1119.17 1653 944.666 1653 740 c 4
 1653 535.334 1580.83 360.834 1436.5 216.5 c 132
 1292.17 72.166 1117.67 0 913 0 c 4
 708.334 0 533.834 72.166 389.5 216.5 c 132
 245.166 360.834 173 535.334 173 740 c 4
272 740 m 4
 272 562.666 334.5 411.5 459.5 286.5 c 132
 584.5 161.5 735.666 99 913 99 c 4
 1090.33 99 1241.67 161.5 1367 286.5 c 132
 1492.33 411.5 1555 562.666 1555 740 c 4
 1555 917.334 1492.33 1068.67 1367 1194 c 132
 1241.67 1319.33 1090.33 1382 913 1382 c 4
 735.666 1382 584.5 1319.33 459.5 1194 c 132
 334.5 1068.67 272 917.334 272 740 c 4
642 284 m 5
 642 393 l 5
 677.334 477 750.334 568.666 861 668 c 6
 932 733 l 6
 1023.33 815 1069 897 1069 979 c 4
 1069 1035 1054.33 1076.83 1025 1104.5 c 132
 995.666 1132.17 951.666 1146 893 1146 c 4
 829.666 1146 753.666 1121 665 1071 c 5
 665 1181 l 5
 747.666 1220.33 830 1240 912 1240 c 4
 999.334 1240 1069.33 1216.33 1122 1169 c 132
 1174.67 1121.67 1201 1059.33 1201 982 c 4
 1201 926 1187.67 876.5 1161 833.5 c 132
 1134.33 790.5 1084.67 738 1012 676 c 6
 964 635 l 6
 865.334 550.334 808 469.666 792 393 c 5
 1197 393 l 5
 1197 284 l 5
 642 284 l 5
EndSplineSet
EndChar
StartChar: threesans
Encoding: 131 61571 99
Width: 1866
Flags: HW
Fore
172 740 m 0
 172 944 244 1118 390 1264 c 128
 534 1408 708 1480 914 1480 c 0
 1118 1480 1292 1408 1436 1264 c 128
 1580 1118 1652 944 1652 740 c 0
 1652 534 1580 360 1436 218 c 128
 1292 72 1118 0 914 0 c 0
 708 0 534 72 390 218 c 128
 244 360 172 534 172 740 c 0
272 740 m 0
 272 562 334 410 458 286 c 128
 584 162 736 98 914 98 c 0
 1090 98 1242 162 1366 286 c 128
 1492 410 1554 562 1554 740 c 0
 1554 916 1492 1068 1366 1194 c 128
 1242 1320 1090 1382 914 1382 c 0
 736 1382 584 1320 458 1194 c 128
 334 1068 272 916 272 740 c 0
674 280 m 1
 674 398 l 1
 764 362 834 344 884 344 c 0
 944 344 992 362 1028 396 c 128
 1066 430 1086 476 1086 530 c 0
 1086 598 1062 648 1016 680 c 128
 970 712 902 728 812 728 c 2
 762 728 l 1
 762 812 l 1
 804 812 l 2
 890 812 956 826 1000 858 c 128
 1042 888 1062 934 1062 994 c 0
 1062 1042 1048 1078 1020 1102 c 128
 992 1126 948 1136 890 1136 c 0
 830 1136 762 1120 686 1086 c 1
 686 1194 l 1
 760 1218 832 1230 902 1230 c 0
 996 1230 1068 1214 1116 1178 c 128
 1164 1140 1188 1086 1188 1014 c 0
 1188 960 1172 912 1138 874 c 128
 1106 834 1058 804 994 780 c 1
 1068 762 1124 734 1162 692 c 128
 1200 652 1218 598 1218 532 c 0
 1218 446 1190 376 1130 326 c 128
 1074 276 994 252 892 252 c 0
 836 252 762 262 674 280 c 1
EndSplineSet
Back
173 740 m 4
 173 944.666 245.166 1119.17 389.5 1263.5 c 132
 533.834 1407.83 708.334 1480 913 1480 c 4
 1117.67 1480 1292.17 1407.83 1436.5 1263.5 c 132
 1580.83 1119.17 1653 944.666 1653 740 c 4
 1653 535.334 1580.83 360.834 1436.5 216.5 c 132
 1292.17 72.166 1117.67 0 913 0 c 4
 708.334 0 533.834 72.166 389.5 216.5 c 132
 245.166 360.834 173 535.334 173 740 c 4
272 740 m 4
 272 562.666 334.5 411.5 459.5 286.5 c 132
 584.5 161.5 735.666 99 913 99 c 4
 1090.33 99 1241.67 161.5 1367 286.5 c 132
 1492.33 411.5 1555 562.666 1555 740 c 4
 1555 917.334 1492.33 1068.67 1367 1194 c 132
 1241.67 1319.33 1090.33 1382 913 1382 c 4
 735.666 1382 584.5 1319.33 459.5 1194 c 132
 334.5 1068.67 272 917.334 272 740 c 4
674 281 m 5
 674 397 l 5
 763.334 361.666 833.334 344 884 344 c 4
 943.334 344 991.666 361.334 1029 396 c 132
 1066.33 430.666 1085 475.666 1085 531 c 4
 1085 597 1062.17 646.334 1016.5 679 c 132
 970.834 711.666 902 728 810 728 c 6
 761 728 l 5
 761 811 l 5
 804 812 l 6
 890.666 812 955.5 827.166 998.5 857.5 c 132
 1041.5 887.834 1063 933.334 1063 994 c 4
 1063 1042 1048.67 1077.83 1020 1101.5 c 132
 991.334 1125.17 948.334 1137 891 1137 c 4
 829.666 1137 761.666 1119.67 687 1085 c 5
 687 1193 l 5
 760.334 1218.33 831.666 1231 901 1231 c 4
 996.334 1231 1067.83 1213 1115.5 1177 c 132
 1163.17 1141 1187 1086.67 1187 1014 c 4
 1187 959.334 1170.83 912.5 1138.5 873.5 c 132
 1106.17 834.5 1057.67 803.334 993 780 c 5
 1068.33 762.666 1124.67 733.334 1162 692 c 132
 1199.33 650.666 1218 597.666 1218 533 c 4
 1218 445.666 1189 376.834 1131 326.5 c 132
 1073 276.166 993.666 251 893 251 c 4
 835 251 762 261 674 281 c 5
EndSplineSet
EndChar
StartChar: foursans
Encoding: 132 61572 100
Width: 1850
Flags: HW
Fore
172 740 m 0
 172 944 244 1118 390 1264 c 128
 534 1408 708 1480 914 1480 c 0
 1118 1480 1292 1408 1436 1264 c 128
 1580 1118 1652 944 1652 740 c 0
 1652 534 1580 360 1436 218 c 128
 1292 72 1118 0 914 0 c 0
 708 0 534 72 390 218 c 128
 244 360 172 534 172 740 c 0
272 740 m 0
 272 562 334 410 458 286 c 128
 584 162 736 98 914 98 c 0
 1090 98 1242 162 1366 286 c 128
 1492 410 1554 562 1554 740 c 0
 1554 916 1492 1068 1366 1194 c 128
 1242 1320 1090 1382 914 1382 c 0
 736 1382 584 1320 458 1194 c 128
 334 1068 272 916 272 740 c 0
938 284 m 1
 938 548 l 1
 518 548 l 1
 518 642 l 1
 938 1216 l 1
 1054 1216 l 1
 1054 650 l 1
 1180 650 l 1
 1180 548 l 1
 1054 548 l 1
 1054 284 l 1
 938 284 l 1
638 650 m 1
 946 650 l 1
 946 1064 l 1
 638 650 l 1
EndSplineSet
Back
173 740 m 4
 173 944.666 245.166 1119.17 389.5 1263.5 c 132
 533.834 1407.83 708.334 1480 913 1480 c 4
 1117.67 1480 1292.17 1407.83 1436.5 1263.5 c 132
 1580.83 1119.17 1653 944.666 1653 740 c 4
 1653 535.334 1580.83 360.834 1436.5 216.5 c 132
 1292.17 72.166 1117.67 0 913 0 c 4
 708.334 0 533.834 72.166 389.5 216.5 c 132
 245.166 360.834 173 535.334 173 740 c 4
272 740 m 4
 272 562.666 334.5 411.5 459.5 286.5 c 132
 584.5 161.5 735.666 99 913 99 c 4
 1090.33 99 1241.67 161.5 1367 286.5 c 132
 1492.33 411.5 1555 562.666 1555 740 c 4
 1555 917.334 1492.33 1068.67 1367 1194 c 132
 1241.67 1319.33 1090.33 1382 913 1382 c 4
 735.666 1382 584.5 1319.33 459.5 1194 c 132
 334.5 1068.67 272 917.334 272 740 c 4
938 284 m 5
 938 548 l 5
 518 548 l 5
 518 641 l 5
 938 1216 l 5
 1054 1216 l 5
 1054 649 l 5
 1179 649 l 5
 1179 548 l 5
 1054 548 l 5
 1054 284 l 5
 938 284 l 5
640 649 m 5
 946 649 l 5
 946 1064 l 5
 640 649 l 5
EndSplineSet
EndChar
StartChar: fivesans
Encoding: 133 61573 101
Width: 1806
Flags: HW
Fore
172 740 m 0
 172 944 244 1118 390 1264 c 128
 534 1408 708 1480 914 1480 c 0
 1118 1480 1292 1408 1436 1264 c 128
 1580 1118 1652 944 1652 740 c 0
 1652 534 1580 360 1436 218 c 128
 1292 72 1118 0 914 0 c 0
 708 0 534 72 390 218 c 128
 244 360 172 534 172 740 c 0
272 740 m 0
 272 562 334 410 458 286 c 128
 584 162 736 98 914 98 c 0
 1090 98 1242 162 1366 286 c 128
 1492 410 1554 562 1554 740 c 0
 1554 916 1492 1068 1366 1194 c 128
 1242 1320 1090 1382 914 1382 c 0
 736 1382 584 1320 458 1194 c 128
 334 1068 272 916 272 740 c 0
682 268 m 1
 682 378 l 1
 744 354 802 342 858 342 c 0
 926 342 974 358 1008 392 c 128
 1040 426 1056 476 1056 544 c 0
 1056 614 1032 666 986 702 c 128
 938 738 864 756 768 756 c 0
 746 756 722 754 698 750 c 1
 698 1204 l 1
 1172 1204 l 1
 1172 1096 l 1
 808 1096 l 1
 808 850 l 1
 928 850 1020 822 1088 768 c 128
 1156 712 1190 636 1190 538 c 0
 1190 448 1160 376 1098 326 c 128
 1036 274 952 248 846 248 c 0
 796 248 740 254 682 268 c 1
EndSplineSet
Back
173 740 m 4
 173 944.666 245.166 1119.17 389.5 1263.5 c 132
 533.834 1407.83 708.334 1480 913 1480 c 4
 1117.67 1480 1292.17 1407.83 1436.5 1263.5 c 132
 1580.83 1119.17 1653 944.666 1653 740 c 4
 1653 535.334 1580.83 360.834 1436.5 216.5 c 132
 1292.17 72.166 1117.67 0 913 0 c 4
 708.334 0 533.834 72.166 389.5 216.5 c 132
 245.166 360.834 173 535.334 173 740 c 4
272 740 m 4
 272 562.666 334.5 411.5 459.5 286.5 c 132
 584.5 161.5 735.666 99 913 99 c 4
 1090.33 99 1241.67 161.5 1367 286.5 c 132
 1492.33 411.5 1555 562.666 1555 740 c 4
 1555 917.334 1492.33 1068.67 1367 1194 c 132
 1241.67 1319.33 1090.33 1382 913 1382 c 4
 735.666 1382 584.5 1319.33 459.5 1194 c 132
 334.5 1068.67 272 917.334 272 740 c 4
683 268 m 5
 683 378 l 5
 744.334 353.334 803 341 859 341 c 4
 925 341 974.5 358 1007.5 392 c 132
 1040.5 426 1057 476.666 1057 544 c 4
 1057 614.666 1033 667.5 985 702.5 c 132
 937 737.5 865 755 769 755 c 4
 747 755 723.666 753.334 699 750 c 5
 699 1204 l 5
 1171 1204 l 5
 1171 1095 l 5
 808 1095 l 5
 808 850 l 5
 927.334 850 1020.67 822.5 1088 767.5 c 132
 1155.33 712.5 1189 636 1189 538 c 4
 1189 447.334 1158.5 376.334 1097.5 325 c 132
 1036.5 273.666 952.334 248 845 248 c 4
 795.666 248 741.666 254.666 683 268 c 5
EndSplineSet
EndChar
StartChar: sixsans
Encoding: 134 61574 102
Width: 1840
Flags: HW
Fore
172 740 m 0
 172 944 244 1118 390 1264 c 128
 534 1408 708 1480 914 1480 c 0
 1118 1480 1292 1408 1436 1264 c 128
 1580 1118 1652 944 1652 740 c 0
 1652 534 1580 360 1436 218 c 128
 1292 72 1118 0 914 0 c 0
 708 0 534 72 390 218 c 128
 244 360 172 534 172 740 c 0
272 740 m 0
 272 562 334 410 458 286 c 128
 584 162 736 98 914 98 c 0
 1090 98 1242 162 1366 286 c 128
 1492 410 1554 562 1554 740 c 0
 1554 916 1492 1068 1366 1194 c 128
 1242 1320 1090 1382 914 1382 c 0
 736 1382 584 1320 458 1194 c 128
 334 1068 272 916 272 740 c 0
718 754 m 1
 748 792 782 822 820 842 c 128
 856 860 898 870 942 870 c 0
 1024 870 1090 844 1142 788 c 128
 1194 736 1220 666 1220 582 c 0
 1220 484 1192 404 1132 342 c 128
 1076 280 1002 248 912 248 c 0
 808 248 728 290 670 372 c 128
 612 456 584 570 584 716 c 0
 584 878 616 1004 682 1094 c 128
 748 1184 842 1228 962 1228 c 0
 1020 1228 1090 1218 1172 1194 c 1
 1172 1084 l 1
 1084 1118 1012 1134 954 1134 c 0
 876 1134 818 1102 778 1038 c 128
 738 976 718 880 718 754 c 1
1096 558 m 0
 1096 632 1080 688 1050 724 c 128
 1022 762 978 780 918 780 c 0
 864 780 818 762 780 728 c 128
 744 692 724 650 724 600 c 0
 724 522 742 460 778 412 c 128
 814 366 860 342 920 342 c 0
 978 342 1022 360 1052 396 c 128
 1082 430 1096 484 1096 558 c 0
EndSplineSet
Back
173 740 m 4
 173 944.666 245.166 1119.17 389.5 1263.5 c 132
 533.834 1407.83 708.334 1480 913 1480 c 4
 1117.67 1480 1292.17 1407.83 1436.5 1263.5 c 132
 1580.83 1119.17 1653 944.666 1653 740 c 4
 1653 535.334 1580.83 360.834 1436.5 216.5 c 132
 1292.17 72.166 1117.67 0 913 0 c 4
 708.334 0 533.834 72.166 389.5 216.5 c 132
 245.166 360.834 173 535.334 173 740 c 4
272 740 m 4
 272 562.666 334.5 411.5 459.5 286.5 c 132
 584.5 161.5 735.666 99 913 99 c 4
 1090.33 99 1241.67 161.5 1367 286.5 c 132
 1492.33 411.5 1555 562.666 1555 740 c 4
 1555 917.334 1492.33 1068.67 1367 1194 c 132
 1241.67 1319.33 1090.33 1382 913 1382 c 4
 735.666 1382 584.5 1319.33 459.5 1194 c 132
 334.5 1068.67 272 917.334 272 740 c 4
719 754 m 5
 748.334 792.666 781.666 821.666 819 841 c 132
 856.334 860.334 897.666 870 943 870 c 4
 1024.33 870 1090.83 843 1142.5 789 c 132
 1194.17 735 1220 665.666 1220 581 c 4
 1220 484.334 1191 404.666 1133 342 c 132
 1075 279.334 1001 248 911 248 c 4
 808.334 248 728 289.5 670 372.5 c 132
 612 455.5 583 570.334 583 717 c 4
 583 878.334 616.334 1003.83 683 1093.5 c 132
 749.666 1183.17 843 1228 963 1228 c 4
 1019.67 1228 1089.33 1216.33 1172 1193 c 5
 1172 1084 l 5
 1084 1117.33 1011.67 1134 955 1134 c 4
 876.334 1134 817.334 1102.33 778 1039 c 132
 738.666 975.666 719 880.666 719 754 c 5
1096 557 m 4
 1096 631.666 1081.17 687.5 1051.5 724.5 c 132
 1021.83 761.5 977 780 917 780 c 4
 863.666 780 818.166 762.5 780.5 727.5 c 132
 742.834 692.5 724 650 724 600 c 4
 724 522 742 459.334 778 412 c 132
 814 364.666 861.334 341 920 341 c 4
 978.666 341 1022.67 359 1052 395 c 132
 1081.33 431 1096 485 1096 557 c 4
EndSplineSet
EndChar
StartChar: sevensans
Encoding: 135 61575 103
Width: 1802
Flags: HW
Fore
172 740 m 0
 172 944 244 1118 390 1264 c 128
 534 1408 708 1480 914 1480 c 0
 1118 1480 1292 1408 1436 1264 c 128
 1580 1118 1652 944 1652 740 c 0
 1652 534 1580 360 1436 218 c 128
 1292 72 1118 0 914 0 c 0
 708 0 534 72 390 218 c 128
 244 360 172 534 172 740 c 0
272 740 m 0
 272 562 334 410 458 286 c 128
 584 162 736 98 914 98 c 0
 1090 98 1242 162 1366 286 c 128
 1492 410 1554 562 1554 740 c 0
 1554 916 1492 1068 1366 1194 c 128
 1242 1320 1090 1382 914 1382 c 0
 736 1382 584 1320 458 1194 c 128
 334 1068 272 916 272 740 c 0
686 234 m 1
 706 354 764 490 858 642 c 2
 1112 1050 l 1
 632 1050 l 1
 632 1168 l 1
 1230 1168 l 1
 1230 1050 l 1
 992 698 858 426 830 234 c 1
 686 234 l 1
EndSplineSet
Back
173 740 m 4
 173 944.666 245.166 1119.17 389.5 1263.5 c 132
 533.834 1407.83 708.334 1480 913 1480 c 4
 1117.67 1480 1292.17 1407.83 1436.5 1263.5 c 132
 1580.83 1119.17 1653 944.666 1653 740 c 4
 1653 535.334 1580.83 360.834 1436.5 216.5 c 132
 1292.17 72.166 1117.67 0 913 0 c 4
 708.334 0 533.834 72.166 389.5 216.5 c 132
 245.166 360.834 173 535.334 173 740 c 4
272 740 m 4
 272 562.666 334.5 411.5 459.5 286.5 c 132
 584.5 161.5 735.666 99 913 99 c 4
 1090.33 99 1241.67 161.5 1367 286.5 c 132
 1492.33 411.5 1555 562.666 1555 740 c 4
 1555 917.334 1492.33 1068.67 1367 1194 c 132
 1241.67 1319.33 1090.33 1382 913 1382 c 4
 735.666 1382 584.5 1319.33 459.5 1194 c 132
 334.5 1068.67 272 917.334 272 740 c 4
687 234 m 5
 707 354 764 489.666 858 641 c 6
 1112 1050 l 5
 632 1050 l 5
 632 1167 l 5
 1231 1167 l 5
 1231 1050 l 5
 991.666 698.666 857.666 426.666 829 234 c 5
 687 234 l 5
EndSplineSet
EndChar
StartChar: eightsans
Encoding: 136 61576 104
Width: 1786
Flags: HW
Fore
172 740 m 0
 172 944 244 1118 390 1264 c 128
 534 1408 708 1480 914 1480 c 0
 1118 1480 1292 1408 1436 1264 c 128
 1580 1118 1652 944 1652 740 c 0
 1652 534 1580 360 1436 218 c 128
 1292 72 1118 0 914 0 c 0
 708 0 534 72 390 218 c 128
 244 360 172 534 172 740 c 0
272 740 m 0
 272 562 334 410 458 286 c 128
 584 162 736 98 914 98 c 0
 1090 98 1242 162 1366 286 c 128
 1492 410 1554 562 1554 740 c 0
 1554 916 1492 1068 1366 1194 c 128
 1242 1320 1090 1382 914 1382 c 0
 736 1382 584 1320 458 1194 c 128
 334 1068 272 916 272 740 c 0
776 778 m 1
 686 842 642 912 642 990 c 0
 642 1060 666 1118 718 1162 c 128
 770 1204 838 1226 922 1226 c 0
 998 1226 1060 1208 1108 1172 c 128
 1156 1134 1180 1086 1180 1026 c 0
 1180 936 1122 854 1006 778 c 1
 1146 710 1216 622 1216 512 c 0
 1216 434 1188 370 1128 322 c 128
 1070 272 994 248 902 248 c 0
 808 248 734 272 678 318 c 128
 620 364 592 426 592 502 c 0
 592 612 654 704 776 778 c 1
936 818 m 1
 1024 874 1068 938 1068 1010 c 0
 1068 1046 1052 1076 1022 1100 c 128
 994 1122 956 1134 910 1134 c 0
 862 1134 826 1122 796 1100 c 128
 768 1078 754 1050 754 1014 c 0
 754 952 814 886 936 818 c 1
846 730 m 1
 760 664 716 594 716 520 c 0
 716 466 734 424 768 392 c 128
 802 358 848 342 904 342 c 0
 958 342 1002 356 1036 382 c 128
 1070 412 1088 448 1088 494 c 0
 1088 556 1036 616 934 676 c 2
 846 730 l 1
EndSplineSet
Back
173 740 m 4
 173 944.666 245.166 1119.17 389.5 1263.5 c 132
 533.834 1407.83 708.334 1480 913 1480 c 4
 1117.67 1480 1292.17 1407.83 1436.5 1263.5 c 132
 1580.83 1119.17 1653 944.666 1653 740 c 4
 1653 535.334 1580.83 360.834 1436.5 216.5 c 132
 1292.17 72.166 1117.67 0 913 0 c 4
 708.334 0 533.834 72.166 389.5 216.5 c 132
 245.166 360.834 173 535.334 173 740 c 4
272 740 m 4
 272 562.666 334.5 411.5 459.5 286.5 c 132
 584.5 161.5 735.666 99 913 99 c 4
 1090.33 99 1241.67 161.5 1367 286.5 c 132
 1492.33 411.5 1555 562.666 1555 740 c 4
 1555 917.334 1492.33 1068.67 1367 1194 c 132
 1241.67 1319.33 1090.33 1382 913 1382 c 4
 735.666 1382 584.5 1319.33 459.5 1194 c 132
 334.5 1068.67 272 917.334 272 740 c 4
777 779 m 5
 686.334 842.334 641 912.666 641 990 c 4
 641 1060.67 666.834 1117.83 718.5 1161.5 c 132
 770.166 1205.17 837.666 1227 921 1227 c 4
 997.666 1227 1059.83 1208.5 1107.5 1171.5 c 132
 1155.17 1134.5 1179 1086 1179 1026 c 4
 1179 936 1121 853.666 1005 779 c 5
 1146.33 710.334 1217 621.666 1217 513 c 4
 1217 435 1187.5 371.334 1128.5 322 c 132
 1069.5 272.666 993.666 248 901 248 c 4
 808.334 248 733.666 271.166 677 317.5 c 132
 620.334 363.834 592 425 592 501 c 4
 592 612.334 653.666 705 777 779 c 5
936 818 m 5
 1022.67 875.334 1066 939 1066 1009 c 4
 1066 1046.33 1051.5 1076.5 1022.5 1099.5 c 132
 993.5 1122.5 955.666 1134 909 1134 c 4
 863 1134 825.5 1122.83 796.5 1100.5 c 132
 767.5 1078.17 753 1049 753 1013 c 4
 753 952.334 814 887.334 936 818 c 5
845 729 m 5
 759.666 663 717 593.666 717 521 c 4
 717 467 734.166 423.5 768.5 390.5 c 132
 802.834 357.5 848 341 904 341 c 4
 958 341 1002.17 355.166 1036.5 383.5 c 132
 1070.83 411.834 1088 448.334 1088 493 c 4
 1088 554.334 1036.67 615.334 934 676 c 6
 845 729 l 5
EndSplineSet
EndChar
StartChar: ninesans
Encoding: 137 61577 105
Width: 1792
Flags: HW
Fore
172 740 m 0
 172 944 244 1118 390 1264 c 128
 534 1408 708 1480 914 1480 c 0
 1118 1480 1292 1408 1436 1264 c 128
 1580 1118 1652 944 1652 740 c 0
 1652 534 1580 360 1436 218 c 128
 1292 72 1118 0 914 0 c 0
 708 0 534 72 390 218 c 128
 244 360 172 534 172 740 c 0
272 740 m 0
 272 562 334 410 458 286 c 128
 584 162 736 98 914 98 c 0
 1090 98 1242 162 1366 286 c 128
 1492 410 1554 562 1554 740 c 0
 1554 916 1492 1068 1366 1194 c 128
 1242 1320 1090 1382 914 1382 c 0
 736 1382 584 1320 458 1194 c 128
 334 1068 272 916 272 740 c 0
656 276 m 1
 656 382 l 1
 736 356 804 342 858 342 c 0
 940 342 1002 372 1042 434 c 128
 1084 496 1104 590 1104 714 c 1
 1072 676 1040 646 1004 626 c 128
 968 608 930 598 888 598 c 0
 810 598 744 626 690 684 c 128
 636 742 608 812 608 898 c 0
 608 992 636 1070 694 1132 c 128
 752 1196 826 1226 914 1226 c 0
 1016 1226 1096 1186 1156 1106 c 128
 1212 1024 1242 912 1242 772 c 0
 1242 610 1206 484 1134 390 c 128
 1064 294 968 248 846 248 c 0
 796 248 734 258 656 276 c 1
732 916 m 0
 732 840 746 784 776 746 c 128
 806 706 852 686 912 686 c 0
 964 686 1010 704 1046 742 c 128
 1084 776 1102 820 1102 870 c 0
 1102 950 1084 1014 1048 1060 c 128
 1014 1110 966 1134 908 1134 c 0
 848 1134 804 1116 776 1080 c 128
 746 1042 732 988 732 916 c 0
EndSplineSet
Back
173 740 m 4
 173 944.666 245.166 1119.17 389.5 1263.5 c 132
 533.834 1407.83 708.334 1480 913 1480 c 4
 1117.67 1480 1292.17 1407.83 1436.5 1263.5 c 132
 1580.83 1119.17 1653 944.666 1653 740 c 4
 1653 535.334 1580.83 360.834 1436.5 216.5 c 132
 1292.17 72.166 1117.67 0 913 0 c 4
 708.334 0 533.834 72.166 389.5 216.5 c 132
 245.166 360.834 173 535.334 173 740 c 4
272 740 m 4
 272 562.666 334.5 411.5 459.5 286.5 c 132
 584.5 161.5 735.666 99 913 99 c 4
 1090.33 99 1241.67 161.5 1367 286.5 c 132
 1492.33 411.5 1555 562.666 1555 740 c 4
 1555 917.334 1492.33 1068.67 1367 1194 c 132
 1241.67 1319.33 1090.33 1382 913 1382 c 4
 735.666 1382 584.5 1319.33 459.5 1194 c 132
 334.5 1068.67 272 917.334 272 740 c 4
656 277 m 5
 656 382 l 5
 736 354.666 803.334 341 858 341 c 4
 940 341 1001.5 372.166 1042.5 434.5 c 132
 1083.5 496.834 1104 590 1104 714 c 5
 1072.67 675.334 1039.17 646.334 1003.5 627 c 132
 967.834 607.666 929.666 598 889 598 c 4
 810.334 598 743.834 626.834 689.5 684.5 c 132
 635.166 742.166 608 812.666 608 896 c 4
 608 991.334 637 1070.33 695 1133 c 132
 753 1195.67 826 1227 914 1227 c 4
 1016 1227 1096.17 1186.5 1154.5 1105.5 c 132
 1212.83 1024.5 1242 913.334 1242 772 c 4
 1242 611.334 1206.33 483.834 1135 389.5 c 132
 1063.67 295.166 967.334 248 846 248 c 4
 797.334 248 734 257.666 656 277 c 5
732 916 m 4
 732 840 747 782.834 777 744.5 c 132
 807 706.166 852 687 912 687 c 4
 964.666 687 1009.5 704.834 1046.5 740.5 c 132
 1083.5 776.166 1102 819.334 1102 870 c 4
 1102 949.334 1084.17 1013.17 1048.5 1061.5 c 132
 1012.83 1109.83 965.666 1134 907 1134 c 4
 849 1134 805.334 1115.83 776 1079.5 c 132
 746.666 1043.17 732 988.666 732 916 c 4
EndSplineSet
EndChar
StartChar: tensans
Encoding: 138 61578 106
Width: 1816
Flags: HW
Fore
172 740 m 0
 172 944 244 1118 390 1264 c 128
 534 1408 708 1480 914 1480 c 0
 1118 1480 1292 1408 1436 1264 c 128
 1580 1118 1652 944 1652 740 c 0
 1652 534 1580 360 1436 218 c 128
 1292 72 1118 0 914 0 c 0
 708 0 534 72 390 218 c 128
 244 360 172 534 172 740 c 0
272 740 m 0
 272 562 334 410 458 286 c 128
 584 162 736 98 914 98 c 0
 1090 98 1242 162 1366 286 c 128
 1492 410 1554 562 1554 740 c 0
 1554 916 1492 1068 1366 1194 c 128
 1242 1320 1090 1382 914 1382 c 0
 736 1382 584 1320 458 1194 c 128
 334 1068 272 916 272 740 c 0
604 270 m 1
 604 1110 l 1
 506 1110 l 1
 506 1190 l 1
 730 1212 l 1
 730 270 l 1
 604 270 l 1
1110 248 m 0
 1026 248 960 292 910 382 c 128
 858 472 834 590 834 738 c 0
 834 884 858 1002 910 1092 c 128
 960 1182 1026 1226 1110 1226 c 0
 1194 1226 1262 1182 1312 1092 c 128
 1364 1002 1388 884 1388 738 c 0
 1388 590 1364 472 1312 382 c 128
 1262 292 1194 248 1110 248 c 0
1110 342 m 0
 1160 342 1196 374 1220 440 c 128
 1244 508 1256 606 1256 740 c 0
 1256 872 1244 970 1220 1036 c 128
 1196 1102 1160 1134 1110 1134 c 0
 1062 1134 1026 1102 1004 1034 c 128
 978 968 966 870 966 738 c 0
 966 606 978 508 1004 440 c 128
 1026 374 1062 342 1110 342 c 0
EndSplineSet
Back
173 740 m 4
 173 944.666 245.166 1119.17 389.5 1263.5 c 132
 533.834 1407.83 708.334 1480 913 1480 c 4
 1117.67 1480 1292.17 1407.83 1436.5 1263.5 c 132
 1580.83 1119.17 1653 944.666 1653 740 c 4
 1653 535.334 1580.83 360.834 1436.5 216.5 c 132
 1292.17 72.166 1117.67 0 913 0 c 4
 708.334 0 533.834 72.166 389.5 216.5 c 132
 245.166 360.834 173 535.334 173 740 c 4
272 740 m 4
 272 562.666 334.5 411.5 459.5 286.5 c 132
 584.5 161.5 735.666 99 913 99 c 4
 1090.33 99 1241.67 161.5 1367 286.5 c 132
 1492.33 411.5 1555 562.666 1555 740 c 4
 1555 917.334 1492.33 1068.67 1367 1194 c 132
 1241.67 1319.33 1090.33 1382 913 1382 c 4
 735.666 1382 584.5 1319.33 459.5 1194 c 132
 334.5 1068.67 272 917.334 272 740 c 4
605 271 m 5
 605 1111 l 5
 506 1111 l 5
 506 1189 l 5
 729 1212 l 5
 729 271 l 5
 605 271 l 5
1111 248 m 4
 1027.67 248 960.666 292.834 910 382.5 c 132
 859.334 472.166 834 590.666 834 738 c 4
 834 884.666 859.334 1002.83 910 1092.5 c 132
 960.666 1182.17 1027.67 1227 1111 1227 c 4
 1194.33 1227 1261.33 1182.17 1312 1092.5 c 132
 1362.67 1002.83 1388 884.666 1388 738 c 4
 1388 590.666 1362.67 472.166 1312 382.5 c 132
 1261.33 292.834 1194.33 248 1111 248 c 4
1111 341 m 4
 1159.67 341 1196 374.166 1220 440.5 c 132
 1244 506.834 1256 606.334 1256 739 c 4
 1256 871 1244 969.834 1220 1035.5 c 132
 1196 1101.17 1159.67 1134 1111 1134 c 4
 1063 1134 1026.83 1101 1002.5 1035 c 132
 978.166 969 966 870 966 738 c 4
 966 606 978.166 506.834 1002.5 440.5 c 132
 1026.83 374.166 1063 341 1111 341 c 4
EndSplineSet
EndChar
StartChar: zerosansinv
Encoding: 139 61579 107
Width: 1822
Flags: HW
Fore
172 740 m 0
 172 944 244 1118 390 1264 c 128
 534 1408 708 1480 914 1480 c 0
 1118 1480 1292 1408 1436 1264 c 128
 1580 1118 1652 944 1652 740 c 0
 1652 534 1580 360 1436 218 c 128
 1292 72 1118 0 914 0 c 0
 708 0 534 72 390 218 c 128
 244 360 172 534 172 740 c 0
552 740 m 0
 552 594 586 476 652 386 c 128
 718 296 806 252 914 252 c 0
 1022 252 1108 296 1176 386 c 128
 1242 476 1276 594 1276 740 c 0
 1276 886 1242 1006 1176 1096 c 128
 1108 1186 1022 1230 914 1230 c 0
 806 1230 718 1186 652 1096 c 128
 586 1006 552 886 552 740 c 0
750 740 m 0
 750 988 804 1112 914 1112 c 0
 1022 1112 1078 992 1078 754 c 0
 1078 496 1022 366 914 366 c 0
 804 366 750 490 750 740 c 0
EndSplineSet
Back
173 740 m 4
 173 944.666 245.166 1119.17 389.5 1263.5 c 132
 533.834 1407.83 708.334 1480 913 1480 c 4
 1117.67 1480 1292.17 1407.83 1436.5 1263.5 c 132
 1580.83 1119.17 1653 944.666 1653 740 c 4
 1653 535.334 1580.83 360.834 1436.5 216.5 c 132
 1292.17 72.166 1117.67 0 913 0 c 4
 708.334 0 533.834 72.166 389.5 216.5 c 132
 245.166 360.834 173 535.334 173 740 c 4
552 740 m 4
 552 594 585.166 476 651.5 386 c 132
 717.834 296 805 251 913 251 c 4
 1021 251 1108.33 296 1175 386 c 132
 1241.67 476 1275 594 1275 740 c 4
 1275 886.666 1241.67 1005 1175 1095 c 132
 1108.33 1185 1021 1230 913 1230 c 4
 805 1230 717.834 1185 651.5 1095 c 132
 585.166 1005 552 886.666 552 740 c 4
750 740 m 4
 750 988.666 804.334 1113 913 1113 c 4
 1022.33 1113 1077 993 1077 753 c 4
 1077 495.666 1022.33 367 913 367 c 4
 804.334 367 750 491.334 750 740 c 4
EndSplineSet
EndChar
StartChar: onesansinv
Encoding: 140 61580 108
Width: 1860
Flags: HW
Fore
172 740 m 0
 172 944 244 1118 390 1264 c 128
 534 1408 708 1480 914 1480 c 128
 1118 1480 1292 1408 1436 1264 c 128
 1580 1118 1652 944 1652 740 c 128
 1652 534 1580 360 1436 218 c 128
 1292 72 1118 0 914 0 c 128
 708 0 534 72 390 218 c 128
 244 360 172 534 172 740 c 0
836 278 m 1
 1022 278 l 1
 1022 1222 l 1
 706 1194 l 1
 710 1102 l 1
 836 1102 l 1
 836 278 l 1
EndSplineSet
Back
173 740 m 4
 173 944.666 245.166 1119.17 389.5 1263.5 c 132
 533.834 1407.83 708.334 1480 913 1480 c 132
 1117.67 1480 1292.17 1407.83 1436.5 1263.5 c 132
 1580.83 1119.17 1653 944.666 1653 740 c 132
 1653 535.334 1580.83 360.834 1436.5 216.5 c 132
 1292.17 72.166 1117.67 0 913 0 c 132
 708.334 0 533.834 72.166 389.5 216.5 c 132
 245.166 360.834 173 535.334 173 740 c 4
835 278 m 5
 1022 278 l 5
 1022 1222 l 5
 707 1195 l 5
 711 1101 l 5
 835 1101 l 5
 835 278 l 5
EndSplineSet
EndChar
StartChar: twosansinv
Encoding: 141 61581 109
Width: 1840
Flags: HW
Fore
172 740 m 0
 172 944 244 1118 390 1264 c 128
 534 1408 708 1480 914 1480 c 0
 1118 1480 1292 1408 1436 1264 c 128
 1580 1118 1652 944 1652 740 c 0
 1652 534 1580 360 1436 218 c 128
 1292 72 1118 0 914 0 c 0
 708 0 534 72 390 218 c 128
 244 360 172 534 172 740 c 0
620 284 m 1
 1244 284 l 1
 1244 430 l 1
 832 430 l 1
 848 492 900 558 988 628 c 2
 1050 678 l 2
 1182 784 1248 884 1248 980 c 0
 1248 1060 1218 1122 1160 1170 c 128
 1100 1216 1020 1240 920 1240 c 0
 876 1240 830 1234 784 1226 c 128
 740 1218 692 1206 646 1188 c 1
 646 1050 l 1
 736 1096 814 1118 882 1118 c 0
 994 1118 1048 1070 1048 972 c 0
 1048 890 986 792 860 682 c 2
 784 614 l 2
 732 566 676 506 620 430 c 1
 620 284 l 1
EndSplineSet
Back
173 740 m 4
 173 944.666 245.166 1119.17 389.5 1263.5 c 132
 533.834 1407.83 708.334 1480 913 1480 c 4
 1117.67 1480 1292.17 1407.83 1436.5 1263.5 c 132
 1580.83 1119.17 1653 944.666 1653 740 c 4
 1653 535.334 1580.83 360.834 1436.5 216.5 c 132
 1292.17 72.166 1117.67 0 913 0 c 4
 708.334 0 533.834 72.166 389.5 216.5 c 132
 245.166 360.834 173 535.334 173 740 c 4
621 284 m 5
 1244 284 l 5
 1244 431 l 5
 832 431 l 5
 848.666 492.334 900.666 558 988 628 c 6
 1051 678 l 6
 1182.33 782.666 1248 883.666 1248 981 c 4
 1248 1059.67 1218.17 1122.5 1158.5 1169.5 c 132
 1098.83 1216.5 1019.33 1240 920 1240 c 4
 876 1240 831 1235.67 785 1227 c 132
 739 1218.33 692.334 1205 645 1187 c 5
 645 1050 l 5
 735 1096 814 1119 882 1119 c 4
 993.334 1119 1049 1070.33 1049 973 c 4
 1049 889 986.334 791.666 861 681 c 6
 784 614 l 6
 730.666 566.666 676.334 505.666 621 431 c 5
 621 284 l 5
EndSplineSet
EndChar
